<mxfile host="app.diagrams.net" modified="2024-05-14T18:42:01.655Z" agent="Mozilla/5.0 (X11; Linux x86_64) AppleWebKit/537.36 (KHTML, like Gecko) Chrome/124.0.0.0 Safari/537.36" etag="A8U-l1kgOu8kwEsPFqzY" version="24.4.0" type="device">
  <diagram name="Page-1" id="CflozmMdi4sJVTgUO4zK">
    <mxGraphModel dx="2261" dy="799" grid="1" gridSize="10" guides="1" tooltips="1" connect="1" arrows="1" fold="1" page="1" pageScale="1" pageWidth="827" pageHeight="1169" math="0" shadow="0">
      <root>
        <mxCell id="0" />
        <mxCell id="1" parent="0" />
        <mxCell id="lAoFFa3lUKe8nC0rTrzX-1" value="" style="shape=image;verticalLabelPosition=bottom;labelBackgroundColor=default;verticalAlign=top;aspect=fixed;imageAspect=0;image=data:image/png,iVBORw0KGgoAAAANSUhEUgAAAgAAAAIACAYAAAD0eNT6AAAAAXNSR0IArs4c6QAAIABJREFUeAHtnd1vXFf193ud/AfPza/iD3ioRAv60QeJQGIXN1akKEkztpxkHNtNGk/qsZ2JESqiuSYFEm7bm/QlJFRNKHclVCgJIK6oCiJtCkJtQUJ5KUVUNVBlP9omY40nMzln77P2Wfuc/ak0mpdz9l57f/NZ67tm5nj6wAP8t67A1PLy5kars9Roda42Wp1bjVbHcEMDGIABGAjDwOhE05Rwu/XYxPSVxxoHFkempjavF3weoEBXgb2tY19ptDp/JdHDJDq6oisMwEA/AyWYf3+D8Zdtk/sf7dZ97lHggbvmv9oPJ88pWDAAAzAQjgGFBsA2BKs0ARj/mgJ3P/bnnT9fd/B1DwzAQMkMKDUAZqTR/HB8bm4TNpi4Ane/8yfxS0583lWFe1eFtmhbFQa0GoC1uJPTC4nbH9u/e8EfDQANAAzAAAyUzIBqAzDRvIwDJq5Ao9X5qCrdMuvknR0MwECdGFBuAG4mbn9sv9Hq3KlTQrEXDAIGYKAqDCg3AHdwwMQVqEqisE6KOgzAQN0YUG4ATOL2x/brllDsB5OAARioCgM0AHiwqgJVSRTWSVGHARioGwM0AKr2R/C6JRT7wSRgAAaqwgANAB6sqkBVEoV1UtRhAAbqxgANgKr9EbxuCcV+MAkYgIGqMEADgAerKlCVRGGdFHUYgIG6MUADoGp/BK9bQrEfTAIGYKAqDNAA4MGqClQlUVgnRR0GYKBuDNAAqNofweuWUOwHk4ABGKgKAzQAeLCqAlVJFNZJUYcBGKgbAzQAqvZH8LolFPvBJGAABqrCAA0AHqyqQFUShXVS1GEABurGAA2Aqv0RvG4JxX4wCRiAgaowQAOAB6sqUJVEYZ0UdRiAgboxQAOgan8Er1tCsR9MAgZgoCoM0ADgwaoKVCVR1tc53zG7Di2YHdNPme0Hnly72cf2tcZ8CYWP+OivyV+rBMaJYdbrTWAtaABU7Y/gZYEuEWf3oQUzNjVrhiXN2L6Z/zYCgZKW+OivyZ9EDjFHXA3UsFpW1us4YOIKVKUg7JxrDTX+Dcky2TT2XOl9ER/9N3A20RzMYyD+pHlmvjgagVxMDWNN4PXE7Y/tV6EQ2HfeToky2RT9JID46K/JXxVylDX6NRROXAkYfn88HDBxBaqQuGNTM24NwETT2DFS1wQQH/37C2fWc0n+qpCjrJEGIHErreb2Y09ce3FfVrEddnztwsCC1wMQH/2H8ZX1ugR/secn6/Mz/q5uWQyFPl5N12LVYgp0QYz13l7h75sEOw4eKXwtAPHRX5O/WPOSdRUz/q5+vmxJjRMzEiaqpgJdEGO9t3/q5wv7+IEnCzcAxEd/Tf5izUvWRQNQTcdj1RsUiD2Rt++f824A7Nii+yM++vs2ABL8FeXXZfzE0oqZ/fFJ03rnBdP+6CWz9K8fidzsXHbOmfMnjY3hsqZYzp1eWjanf3jQ/PzibvPeL7ebj3+3zXx2fcvazT62r126sMecOn3QNBeXcu/Rly2pcRvMgCfpKRBLgg1bBwaMAfsWOwkD1uZvWF5Iv37geydM++aLIoZ/v8Zh4caLZv9zJ3IbpPQ+Xedb/PZR8+ZPdpnVa18z5o9fzXWz5755cbdpP3M0c5++bEuNS8/x2PEGBVwTouzztQsw8WlAfIutRANSRr5Z81/85JXg5t9tDGys2JuA/e1l89Nze81n723JZfqDmgP7CcHr5xpmX3t5aCPgy5bUuA1mwJP0FCijwBSJgQFjwL7FTsKAtfkrkjt5xtqP5Mt45981/+79wo0zZjLSrwPsO/f3f/MNb+PvbwauX9luDq8sDGwCfNmWGpee47HjDQrkKRKa52gXYOLTgPgWW4kGJHTu2e/8u6Zc9v3s+ZMDTTH0nu83/zdPHFn7fr/fxIs+v/XWiDn+7L2/UOrLltS4DWbAk/QUuF8yxHAMA8aAfYudhAFr8xc6B+3FeWUbfzde69rzUTUA9p2/vaCvqNkPG2+bgMMr7Q179mVbalx6jseONygQusAUnV+7ABOfBsS32Eo0IEXzJ2v84t/lrvbvGnve+/btlzaYYdZaQx6339P/+ddjwcy/2xT86VePG3t9QXcvvmxJjdtgBjxJT4EuiLHeY8AYsG+xkzBgbf5C5+XS6lm1TwBs7ND7yzu/veCva9Kh7199eWJ9375sS41Lz/HY8QYF8iaI1nnaBZj4NCC+xVaiAQmdd3nfrYc6L/T+8sxv/9SvyNX+rg3Dp9e+vv5VgC9bUuM2mAFP0lMgT4JonoMBY8C+xU7CgLX5C517oYw977yh95dnfvt3/q4mXvT8N157Yu1TAF+2pcal53jseIMCeRJE8xztAkx8GhDfYivRgITOvbxGHeq80PvLmt/+wp/Lj/wUNf7ueBvT/mKgL1tS4zaYAU/SUyArQbSPY8AYsG+xkzBgbf5C518oY887b+j9Zc1vf963a8pl35867f6/2fbNhWHj0nM8drxBgawE0T6uXYCJTwMyrHhmvS7RgITOv7xGHeq80PvLmt/+tn/Zxt+Nd+nibj4B2OBGPCldgawE0T6OAWPAWUY77LiEAWvzFzr/Qhl73nlD7y9rfvs/8ekactn39hcCh7Fb1uulGw4B41IgK0G0j2sXYOLTgPgWY4kGJHT+5TXqUOeF3l/W/P/4/Va1BuDjt7fSAMRlh+mtJitBtI9jwBiwpgFr8xc6/0IZe955Q+8va/7/XPf/n/0U/cTg3+9uoQFIz3Lj2nFWgmgf1y7AxKcB0WxAQudfXqMOdV7o/WXNTwMQlx+xmpIVyEoQ7eMYMAasacDa/IXOv1DGnnfe0PvLmp+vAEo2HMLFpUBWgmgf1y7AxKcB0WxAQudfXqMOdV7o/WXNz0WAcfkRqylZgawE0T6OAWPAmgaszV/o/Atl7HnnDb2/rPkvXdijdhHgzy7s4RqAkv2OcH0KZCWI9nHtAkx8GhDNBiR0/uU16lDnhd5f1vynTuv9END3+SGgPjfiaekKZCWI9nEMGAPWNGBt/kLnXyhjzztv6P1lzW9/jpefAi7ddggYiwJZCaJ9XLsAE58GRLMBCZ1/eY061Hmh95dn/jcVfg3QfvVg1+bLltS4WHyIdSgpkCdBNM/BgDFg32Jn2SnKrjZ/RdefNT6UseedN2t9ZRxvP3PUfFbi7wHYPz18+ltP0wAoeR5hexQoI8GKxNAuwMSnAdFsQIrkTp6xS6tnTV6zFj9v9WzhBi3PHvOc8/q5RmkXA148O7G+b1+2pMb1WAEPU1QgT3JonoMBY8C+xc6yU5Rdbf6Krj9rfPujl9UagPbtlwr/+2TtL+/xfe1lY3+bv+iv+2WNf/fKdrNv4dj6vn3ZlhqXouex5x4F8iaI1nnaBZj4NCC+xVaiAQmdd613XlBrAFrXnl83wtD7zDP/4ZW2ufnbkWBNwO23tpkjK+0Ne/ZlS2pcjxXwMEUF8iSG5jkYMAbsW+wkDFibv9C5N3P+pFoDMHvuuxvMMPRe88x//NmWufWWfBNgG4vOs/P37NeXbalxKXoee+5RIE9SaJ6jXYCJTwPiW2wlGpDQuTextGIWbpwpvQlY+NsZM7m0co8hht5vnvmf7LTNH34xLvZJgP3Y3366MCi2L1tS43qsgIcpKjAIyphew4AxYN9iJ2HA2vyVkYv7nzthFj95pbQmYPGfZ83+kycGGmIZ+80Tw35P/+rLE4V+I8Be7X/h7MSG7/z7Y/uyLTUuRc9jzz0K9AMZ23PtAkx8GhDfYivRgJSVj7YJKOOTAPvOP3bz79XcvnN/47UnnBoB+8NCly7uXv9Tv975+h/7siU1rscKeJiiAv1AxvYcA8aAfYudhAFr81dmPtqP5GfPnzT24jx7hb7Un/3Zueyc9jv/WD/2z9LZ/mLgqdMzxv5+//Wrj5uP395q7Dt8e7OP7WtvvLbH/OD0jLHnZs3XPe7LttS4FD2PPfco0AUx1vvxA4e8fy3Lji26L+Kjv2+xleCvKL+M7xSuASE19GVLalyPFfAwRQVCwi0x947pp7wbgB0HjxROfuKjv2+xleBPIoeYI94mwJctqXEpeh577lEg9uKw69CCdwNgxxbdH/HR37fYSvBXlF/Gx2v+9t/Gly2pcT1WwMMUFahCgRibmnVOFDumMS+T/MRHf9eCK8lfFXKUNfrVGleupM9P0fPYc48CVUjcXYfaZnSymb8JmGya3YeLv/vvakN89Nfkr8sh934mG7Nu0obuOl+PFfAwRQViTo7ete2cPZqvCZhsmp1zRwt/9N8b2z4mPvrnagIC8dfPI8/r0Qy4Grb0+Sl6HnvuUaBKhcS+Ex/bNzP0k4CxqRnRd/792hAf/TX56+eR59VvAqQN3XW+HivgYYoKVK6IzHeMNWJ7db79Myt7s1dbl3bBFfHRX5O/VvVNr3I1J6DmroYtfX6KnseeexQgGSmoMAADMKDDgLShu87XYwU8TFEBEl8n8dEd3WEABlwNW/r8FD2PPfcoQBGiCMEADMCADgPShu46X48V8DBFBUh8ncRHd3SHARhwNWzp81P0PPbcowBFiCIEAzAAAzoMSBu663w9VsDDFBUg8XUSH93RHQZgwNWwpc9P0fPYc48CFCGKEAzAAAzoMCBt6K7z9VgBD1NUgMTXSXx0R3cYgAFXw5Y+P0XPY889ClCEKEIwAAMwoMOAtKG7ztdjBTxMUQESXyfx0R3dYQAGXA1b+vwUPY899yhAEaIIwQAMwIAOA9KG7jpfjxXwMEUFSHydxEd3dIcBGHA1bOnzU/Q89tyjAEWIIgQDMAADOgxIG7rrfD1WwMMUFSDxdRIf3dEdBmDA1bClz0/R89hzjwIUIYoQDMAADOgwIG3orvP1WAEPU1SAxNdJfHRHdxiAAVfDlj4/Rc9jzz0KNFqdOxQiChEMwAAMlM+AtKE7znenxwp4mKICjVbnNolffuKjOZrDAAw4GrYRPv9Gip7HnnsUaLQ6VylEFCIYgAEYKJ8BYUN3bRAu91gBD1NUoHH0+CKJX37iozmawwAMqDYAk9MLKXoee+5RYGp5eXNj/viHFCOKEQzAAAyUy4BiA/DB+Nzcph4r4GGqCkzOH3u00eqskvzlJj96ozcMpM2AUgPw6cje5pdT9Tv2PUCBtSaATwIMBTntgsy/P//+ZTKg0AB8gPkPMEBeeuCB8bnvbNo7f6y9t9W50mh1bpaZCMSi8MIADKTGQEkNwM3Riebl0cnpBT72x+mjUuChbaOGGxrAAAxoMfC5R75kHnz4EZVbVMWYxaBA2QpoJT1xMRwYgAHLAA1A2VWfeChwVwGKMEUYBmBAkwEaAOwIBZQU0Ex8YmM8MAADNABKxZ+wKEABpgDDAAxoMkADgA+hgJICmolPbIwHBmCABkCp+BMWBSjAFGAYgAFNBmgA8CEUUFJAM/GJjfHAAAzQACgVf8KiAAWYAgwDMKDJAA0APoQCSgpoJj6xMR4YgAEaAKXiT1gUoABTgGEABjQZoAHAh1BASQHNxCc2xgMDMEADoFT8CYsCFGAKMAzAgCYDNAD4EAooKaCZ+MTGeGAABmgAlIo/YVGAAkwBhgEY0GSABgAfQgElBTQTn9gYDwzAAA2AUvEnLApQgCnAMAADmgzQAOBDKKCkgGbiExvjgQEYoAFQKv6ERQEKMAUYBmBAkwEaAHwIBZQU0Ex8YmM8MAADNABKxZ+wKEABpgDDAAxoMkADgA+hgJICmolPbIwHBmCABkCp+BMWBSjAFGAYgAFNBmgA8CEUUFJAM/GJjfHAAAzQACgVf8KiAAWYAgwDMKDJAA0APoQCSgpoJj6xMR4YgAEaAKXiT1gUoABTgGEABjQZoAHAh1BASQHNxCc2xgMDMEADoFT8CYsCFGAKMAzAgCYDNAD4EAooKaCZ+MTGeGAABmgAlIo/YVGAAkwBhgEY0GSABgAfQgElBTQTn9gYDwzAAA2AUvEnbFwKTC0vb260OkuNVudqo9W51Wh1DDc0gAEYgIEwDIxONE0Jt1uPTUxfeaxxYHFkampzXK7DaqJQYG/r2Fcarc5fSfQwiY6u6AoDMNDPQAnm399g/GXb5P5HozAdFhGHAnfNf7UfTp5TsGAABmAgHAMKDYBtCFZpAuLwXvVV3P3Yn3f+fN3B1z0wAAMlM6DUAJiRRvPD8bm5TeoGxAJ0Fbj7nT+JX3Li864q3LsqtEXbqjCg1QCsxZ2cXtB1H6KrK3D3gj8aABoAGIABGCiZAdUGYKJ5Wd2AWICuAo1W56OqdMusk3d2MAADdWJAuQG4qes+RFdXoNHq3KlTQrEXDAIGYKAqDCg3AHfUDYgF6CpQlURhnRR1GICBujGg3AAYXfchuroCdUso9oNJwAAMVIUBGgB1C0x7AVVJFNZJUYcBGKgbAzQAafuv+u7rllDsB5OAARioCgM0AOoWmPYCqpIorJOiDgMwUDcGaADS9l/13dctodgPJgEDMFAVBmgA1C0w7QVUJVFYJ0UdBmCgbgzQAKTtv+q7r1tCsR9MAgZgoCoM0ACoW2DaC6hKorBOijoMwEDdGKABSNt/1Xdft4RiP5gEDMBAVRigAVC3wLQXUJVEYZ0UdRiAgboxQAOQtv+q775uCcV+MAkYgIGqMEADoG6BaS+gKonCOinqMAADdWOABiBt/1Xffd0Siv1gEjAAA1VhgAZA3QLTXkBVEoV1UtRhAAbqxgANQNr+q777uiUU+8EkYAAGqsIADYC6Baa9gKokyvo65ztm16EFs2P6KbP9wJNrN/vYvtaYL6HwER/9NflrlcA4Mcx6vQmsBQ1A2v6rvvuyQJeIs/vQghmbmjXDkmZs38x/G4FASUt89NfkTyKHmCOuBmpYLSvrdXUDYgG6ClSlIOycaw01/g3JMtk09lzpfREf/TdwNtEczGMg/qR5Zr44GoFcTA1jTeB1XfchuroCVSgE9p23U6JMNkU/CSA++mvyV4UcZY1+DYUTVwKG3x9P3YBYgK4CVUjcsakZtwZgomnsGKlrAoiP/v2FM+u5JH9VyFHWSAOg62RE91Ig9sS1F/dlFdthx9cuDCx4PQDx0X8YX1mvS/AXe36yPj/j7+qWxVDo416mwaD6KNAFMdZ7e4W/bxLsOHik8LUAxEd/Tf5izUvWVcz4u/r5siU1rj5Oxk68FOiCGOu9/VM/X9jHDzxZuAEgPvpr8hdrXrIuGgAvw2FQXArEnsjb9895NwB2bNH9ER/9fRsACf6K8usyfmJpxcz++KRpvfOCaX/0kln6149EbnYuO+fM+ZPGxnBZUyznTi8tm9M/PGh+fnG3ee+X283Hv9tmPru+Ze1mH9vXLl3YY06dPmiai0u59+jLltS4uNyI1ZSuQCwJNmwdGDAG7FvsJAxYm79heSH9+oHvnTDtmy+KGP79GoeFGy+a/c+dyG2Q0vt0nW/x20fNmz/ZZVavfc2YP341182e++bF3ab9zNHMffqyLTWudMMhYFwKuCZE2edrF2Di04D4FluJBqSMfLPmv/jJK8HNv9sY2FixNwH728vmp+f2ms/e25LL9Ac1B/YTgtfPNcy+9vLQRsCXLalxcbkRqyldgTIKTJEYGDAG7FvsJAxYm78iuZNnrP1Ivox3/l3z794v3DhjJiP9OsC+c3//N9/wNv7+ZuD6le3m8MrCwCbAl22pcaUbDgHjUiBPkdA8R7sAE58GxLfYSjQgoXPPfuffNeWy72fPnxxoiqH3fL/5v3niyNr3+/0mXvT5rbdGzPFn7/2FUl+2pMbF5UaspnQF7pcMMRzDgDFg32InYcDa/IXOQXtxXtnG343XuvZ8VA2AfedvL+gravbDxtsm4PBKe8OefdmWGle64RAwLgVCF5ii82sXYOLTgPgWW4kGpGj+ZI1f/Lvc1f5dY89737790gYzzFpryOP2e/o//3osmPl3m4I//epxY68v6O7Fly2pcXG5EaspXYEuiLHeY8AYsG+xkzBgbf5C5+XS6lm1TwBs7ND7yzu/veCva9Kh7199eWJ9375sS40r3XAIGJcCeRNE6zztAkx8GhDfYivRgITOu7zv1kOdF3p/eea3f+pX5Gp/14bh02tfX/8qwJctqXFxuRGrKV2BPAmieQ4GjAH7FjsJA9bmL3TuhTL2vPOG3l+e+e3f+buaeNHz33jtibVPAXzZlhpXuuEQMC4F8iSI5jnaBZj4NCC+xVaiAQmde3mNOtR5ofeXNb/9hT+XH/kpavzd8Tam/cVAX7akxsXlRqymdAWyEkT7OAaMAfsWOwkD1uYvdP6FMva884beX9b89ud9u6Zc9v2p0+7/m23fXBg2rnTDIWBcCmQliPZx7QJMfBqQYcUz63WJBiR0/uU16lDnhd5f1vz2t/3LNv5uvEsXd/MJQFx2mN5qshJE+zgGjAFnGe2w4xIGrM1f6PwLZex55w29v6z57f/Ep2vIZd/bXwgcxm5Zr6fneOx4gwJZCaJ9XLsAE58GxLcYSzQgofMvr1GHOi/0/rLm/8fvt6o1AB+/vZUGYIMb8aR0BbISRPs4BowBaxqwNn+h8y+UseedN/T+sub/z3X//9lP0U8M/v3uFhqA0h2PgBsUyEoQ7ePaBZj4NCCaDUjo/Mtr1KHOC72/rPlpADbYAU9SUyArQbSPY8AYsKYBa/MXOv9CGXveeUPvL2t+vgJIzfHY7wYFshJE+7h2ASY+DYhmAxI6//IadajzQu8va34uAtxgBzxJTYGsBNE+jgFjwJoGrM1f6PwLZex55w29v6z5L13Yo3YR4M8u7OEagNQMN7b9ZiWI9nHtAkx8GhDNBiR0/uU16lDnhd5f1vynTuv9END3+SGg2OwwvfVkJYj2cQwYA9Y0YG3+QudfKGPPO2/o/WXNb3+Ol58CTs/32PFdBbISRPu4dgEmPg2IZgMSOv/yGnWo80LvL8/8byr8GqD96sGuzZctqXEYYeIK5EkQzXMwYAzYt9hZdoqyq81f0fVnjQ9l7HnnzVpfGcfbzxw1n5X4ewD2Tw+f/tbTNACJe28U2y8jwYrE0C7AxKcB0WxAiuROnrFLq2dNXrMWP2/1bOEGLc8e85zz+rlGaRcDXjw7sb5vX7akxkVhQixCT4E8yaF5DgaMAfsWO8tOUXa1+Su6/qzx7Y9eVmsA2rdfKvzvk7W/vMf3tZeN/W3+or/ulzX+3Svbzb6FY+v79mVbapye8xA5CgXyJojWedoFmPg0IL7FVqIBCZ13rXdeUGsAWteeXzfC0PvMM//hlba5+duRYE3A7be2mSMr7Q179mVLalwUJsQi9BTIkxia52DAGLBvsZMwYG3+QufezPmTag3A7LnvbjDD0HvNM//xZ1vm1lvyTYBtLDrPzt+zX1+2pcbpOQ+Ro1AgT1JonqNdgIlPA+JbbCUakNC5N7G0YhZunCm9CVj42xkzubRyjyGG3m+e+Z/stM0ffjEu9kmA/djffrowKLYvW1LjojAhFqGnwCAoY3oNA8aAfYudhAFr81dGLu5/7oRZ/OSV0pqAxX+eNftPnhhoiGXsN08M+z39qy9PFPqNAHu1/4WzExu+8++P7cu21Dg95yFyFAr0Axnbc+0CTHwaEN9iK9GAlJWPtgko45MA+84/dvPv1dy+c3/jtSecGgH7w0KXLu5e/1O/3vn6H/uyJTUuChNiEXoK9AMZ23MMGAP2LXYSBqzNX5n5aD+Snz1/0tiL8+wV+lJ/9mfnsnPa7/xj/dg/S2f7i4GnTs8Y+/v9168+bj5+e6ux7/DtzT62r73x2h7zg9Mzxp6bNV/3uC/bUuP0nIfIUSjQBTHW+/EDh7x/LcuOLbov4qO/b7GV4K8ov4zvFK4BITX0ZUtqXBQmxCL0FAgJt8TcO6af8m4Adhw8Ujj5iY/+vsVWgj+JHGKOeJsAX7akxuk5D5GjUCD24rDr0IJ3A2DHFt0f8dHft9hK8FeUX8bHa/7238aXLalxUZgQi9BToAoFYmxq1jlR7JjGvEzyEx/9XQuuJH9VyFHW6FdrXLmSPl/PeYgchQJVSNxdh9pmdLKZvwmYbJrdh4u/++9qQ3z01+SvyyH3fiYbs27Shu46XxQmxCL0FIg5OXrXtnP2aL4mYLJpds4dLfzRf29s+5j46J+rCQjEXz+PPK9HM+Bq2NLn6zkPkaNQoEqFxL4TH9s3M/STgLGpGdF3/v3aEB/9Nfnr55Hn1W8CpA3ddb4oTIhF6ClQuSIy3zHWiO3V+fbPrOzNXm1d2gVXxEd/Tf5a1Te9ytWcgJq7Grb0+XrOQ+QoFCAZKagwAAMwoMOAtKG7zheFCbEIPQVIfJ3ER3d0hwEYcDVs6fP1nIfIUShAEaIIwQAMwIAOA9KG7jpfFCbEIvQUIPF1Eh/d0R0GYMDVsKXP13MeIkehAEWIIgQDMAADOgxIG7rrfFGYEIvQU4DE10l8dEd3GIABV8OWPl/PeYgchQIUIYoQDMAADOgwIG3orvNFYUIsQk8BEl8n8dEd3WEABlwNW/p8PechchQKUIQoQjAAAzCgw4C0obvOF4UJsQg9BUh8ncRHd3SHARhwNWzp8/Wch8hRKEARogjBAAzAgA4D0obuOl8UJsQi9BQg8XUSH93RHQZgwNWwpc/Xcx4iR6EARYgiBAMwAAM6DEgbuut8UZgQi9BTgMTXSXx0R3cYgAFXw5Y+X895iByFAhQhihAMwAAM6DAgbeiu80VhQixCTwESXyfx0R3dYQAGXA1b+nw95yFyFAo0Wp07FCIKEQzAAAyUz4C0oTvOdycKE2IRego0Wp3bJH75iY/maA4DMOBo2Eb4/Bt6zkPkKBRotDpXKUQUIhiAARgonwFhQ3dtEC5HYUIsQk+BxtHjiyR++YmP5mgOAzCg2gBMTi/oOQ+Ro1Bganl5c2P++IcUI4oRDMAADJTLgGID8MH43NymKEyIRegqMDl/7NFGq7NK8peb/OiN3jCQNgNKDcCnI3ubX9Z1HaJHpcBaE8DiiQt3AAAgAElEQVQnAYaCnHZB5t+ff/8yGVBoAD7A/KOy3ngWMz73nU1754+197Y6Vxqtzs0yE4FYFF4YgIHUGCipAbg5OtG8PDo5vcDH/vH4LSt54IEHHto2arihAQzAgBYDn3vkS+bBhx9RuWECKJC0AlpJT1wMBwZgwDJAA5C0BbF5TQUowhRhGIABTQZoADQdgNhJK6CZ+MTGeGAABmgAkrYgNq+pAAWYAgwDMKDJAA2ApgMQO2kFNBOf2BgPDMAADUDSFsTmNRWgAFOAYQAGNBmgAdB0AGInrYBm4hMb44EBGKABSNqC2LymAhRgCjAMwIAmAzQAmg5A7KQV0Ex8YmM8MAADNABJWxCb11SAAkwBhgEY0GSABkDTAYidtAKaiU9sjAcGYIAGIGkLYvOaClCAKcAwAAOaDNAAaDoAsZNWQDPxiY3xwAAM0AAkbUFsXlMBCjAFGAZgQJMBGgBNByB20gpoJj6xMR4YgAEagKQtiM1rKkABpgDDAAxoMkADoOkAxE5aAc3EJzbGAwMwQAOQtAWxeU0FKMAUYBiAAU0GaAA0HYDYSSugmfjExnhgAAZoAJK2IDavqQAFmAIMAzCgyQANgKYDEDtpBTQTn9gYDwzAAA1A0hbE5jUVoABTgGEABjQZoAHQdABiJ62AZuITG+OBARigAUjagti8pgIUYAowDMCAJgM0AJoOQOykFdBMfGJjPDAAAzQASVsQm9dUgAJMAYYBGNBkgAZA0wGInbQCmolPbIwHBmCABiBpC2LzmgpQgCnAMAADmgzQAGg6ALGTVkAz8YmN8cAADNAAJG1BbF5TAQowBRgGYECTARoATQcgdtIKaCY+sTEeGIABGoCkLYjNdxWYWl7e3Gh1lhqtztVGq3Or0eoYbmgAAzAAA2EYGJ1omhJutx6bmL7yWOPA4sjU1OZuveceBdYV2Ns69pVGq/NXEj1MoqMrusIADPQzUIL59zcYf9k2uf/R9cLPAxS4a/6r/XDynIIFAzAAA+EYUGgAbEOwShOA768pcPdjf97583UHX/fAAAyUzIBSA2BGGs0Px+fmNmGDiStw9zt/Er/kxOddVbh3VWiLtlVhQKsBWIs7Ob2QuP2x/bsX/NEA0ADAAAzAQMkMqDYAE83LOGDiCjRanY+q0i2zTt7ZwQAM1IkB5QbgZuL2x/Ybrc6dOiUUe8EgYAAGqsKAcgNwBwdMXIGqJArrpKjDAAzUjQHlBsAkbn9sv24JxX4wCRiAgaowQAOAB6sqUJVEYZ0UdRiAgboxQAOgan8Er1tCsR9MAgZgoCoM0ADgwaoKVCVRWCdFHQZgoG4M0ACo2h/B65ZQ7AeTgAEYqAoDNAB4sKoCVUkU1klRhwEYqBsDNACq9kfwuiUU+8EkYAAGqsIADQAerKpAVRKFdVLUYQAG6sYADYCq/RG8bgnFfjAJGICBqjBAA4AHqypQlURhnRR1GICBujFAA6BqfwSvW0KxH0wCBmCgKgzQAODBqgpUJVFYJ0UdBmCgbgzQAKjaH8HrllDsB5OAARioCgM0AHiwqgJVSRTWSVGHARioGwM0AKr2R/C6JRT7wSRgAAaqwgANAB6sqkBVEmV9nfMds+vQgtkx/ZTZfuDJtZt9bF9rzJdQ+IiP/pr8tUpgnBhmvd4E1oIGQNX+CF4W6BJxdh9aMGNTs2ZY0oztmzG7DrWDJS/x0V+TP4kcYo64Gqhhtays13HAxBWoSkHYOdcaavwbkmWyaXbOHhVvAoiP/hs4m2gO5jEQf1XJU9bp1mDkYmoYawKvJ25/bL8KCWvfeTslymTzv18JCH18R3z01+SvCjnKGt2Mv6uXE1cCht8fDwdMXIEuiDHfj03NuDUAE01jx0hdE0B89O8vnFnPJfmLOTdZm5/xd3XL4ij08cTtj+13QYz13l7c55sEEtcDEB/9NfmLNS9ZVzHj7+rny5bUOBwwcQW6IMZ6b6/w94V9x8Ejha8FID76a/IXa16yLhqAxK2zHtuPPZHtn/r5FuDxA08WbgCIj/6a/MWen6yvWCPgy5bUuHq4GLvwViD2BN6+f867AbBji+6P+OjvW2wl+CvKr8v4iaUVM/vjk6b1zgum/dFLZulfPxK52bnsnDPnTxobw2VNsZw7vbRsTv/woPn5xd3mvV9uNx//bpv57PqWtZt9bF+7dGGPOXX6oGkuLuXeoy9bUuO8jYOB9VAglgQbtg4MGAP2LXYSBqzN37C8kH79wPdOmPbNF0UM/36Nw8KNF83+507kNkjpfbrOt/jto+bNn+wyq9e+Zswfv5rrZs998+Ju034m+8+RfdmWGlcPF2MX3gq4JkTZ52sXYOLTgPgWW4kGpIx8s+a/+Mkrwc2/2xjYWLE3Afvby+an5/aaz97bksv0BzUH9hOC1881zL728tCGx5ctqXHexsHAeihQRoEpEgMDxoB9i52EAWvzVyR38oy1H8mX8c6/a/7d+4UbZ8xkpF8H2Hfu7//mG97G398MXL+y3RxeWRjYBPiyLTWuHi7GLrwVyFMkNM/RLsDEpwHxLbYSDUjo3LPf+XdNuez72fMnB5pi6D3fb/5vnjiy9v1+v4kXfX7rrRFz/NnWPfv1ZUtqnLdxMLAeCtwvGWI4hgFjwL7FTsKAtfkLnYP24ryyjb8br3Xt+XsMMfR+7ze/fedvL+gravbDxtsm4PDKxv9XiS/bUuPq4WLswluB+yVEDMe0CzDxaUB8i61EAxI6Bxf/Lne1f9fY8963b78UTQNgv6f/86/Hgpl/tyn4068eN/b6gu6/qy9bUuO8jYOB9VCgC2Ks9xgwBuxb7CQMWJu/0Hm5tHpW7RMAGzv0/vLOby/465p06PtXX55Y37cv21Lj6uFi7MJbgbwJonWedgEmPg2Ib7GVaEBC513ed+uhzgu9vzzz2z/1K3K1v2vD8Om1r69/FeDLltQ4b+NgYD0UyJMgmudgwBiwb7GTMGBt/kLnXihjzztv6P3lmd/+nb+riRc9/43Xnlj7FMCXbalx9XAxduGtQJ4E0TxHuwATnwbEt9hKNCChcy+vUYc6L/T+sua3v/Dn8iM/RY2/O97GtL8Y6MuW1Dhv42BgPRTIShDt4xgwBuxb7CQMWJu/0PkXytjzzht6f1nz25/37Zpy2fenTrv/b7Z9c2HYuHq4GLvwViArQbSPaxdg4tOADCueWa9LNCCh8y+vUYc6L/T+sua3v+1ftvF34126uJtPALydi4EiCmQliPZxDBgDzjLaYcclDFibv9D5F8rY884ben9Z89v/iU/XkMu+t78QOIzdsl4XMREmqa4CWQmifVy7ABOfBsS3GEs0IKHzL69Rhzov9P6y5v/H77eqNQAfv72VBqC61lmPlWcliPZxDBgD1jRgbf5C518oY887b+j9Zc3/n+v+/7Ofop8Y/PvdLTQA9bDR6u4iK0G0j2sXYOLTgGg2IKHzL69Rhzov9P6y5qcBqK53sXIBBbISRPs4BowBaxqwNn+h8y+UseedN/T+subnKwABE2GK6iqQlSDax7ULMPFpQDQbkND5l9eoQ50Xen9Z83MRYHW9i5ULKJCVINrHMWAMWNOAtfkLnX+hjD3vvKH3lzX/pQt71C4C/NmFPVwDIOBhTFFAgawE0T6uXYCJTwOi2YCEzr+8Rh3qvND7y5r/1Gm9HwL6Pj8EVMC5GCqiQFaCaB/HgDFgTQPW5i90/oUy9rzzht5f1vz253j5KWARK2GSKiqQlSDax7ULMPFpQDQbkND5l9eoQ50Xen955n9T4dcA7VcPdm2+bEmNq6JnsWZBBfIkiOY5GDAG7FvsLDtF2dXmr+j6s8aHMva882atr4zj7WeOms9K/D0A+6eHT3/raRoAQR9jKk8FykiwIjG0CzDxaUA0G5AiuZNn7NLqWZPXrMXPWz1buEHLs8c857x+rlHaxYAXz06s79uXLalxnrbBsLookCc5NM/BgDFg32Jn2SnKrjZ/RdefNb790ctqDUD79kuF/32y9pf3+L72srG/zV/01/2yxr97ZbvZt3Bsfd++bEuNq4uPsQ9PBfImiNZ52gWY+DQgvsVWogEJnXetd15QawBa155fN8LQ+8wz/+GVtrn525FgTcDtt7aZIyvtDXv2ZUtqnKdtMKwuCuRJDM1zMGAM2LfYSRiwNn+hc2/m/Em1BmD23Hc3mGHoveaZ//izLXPrLfkmwDYWnWfn79mvL9tS4+riY+zDU4E8SaF5jnYBJj4NiG+xlWhAQufexNKKWbhxpvQmYOFvZ8zk0so9hhh6v3nmf7LTNn/4xbjYJwH2Y3/76cKg2L5sSY3ztA2G1UWBQVDG9BoGjAH7FjsJA9bmr4xc3P/cCbP4ySulNQGL/zxr9p88MdAQy9hvnhj2e/pXX54o9BsB9mr/C2cnNnzn3x/bl22pcXXxMfbhqUA/kLE91y7AxKcB8S22Eg1IWflom4AyPgmw7/xjN/9eze079zdee8KpEbA/LHTp4u71P/Xrna//sS9bUuM8bYNhdVGgH8jYnmPAGLBvsZMwYG3+ysxH+5H87PmTxl6cZ6/Ql/qzPzuXndN+5x/rx/5ZOttfDDx1esbY3++/fvVx8/HbW419h29v9rF97Y3X9pgfnJ4x9tys+brHfdmWGlcXH2Mfngp0QYz1fvzAIe9fy7Jji+6L+OjvW2wl+CvKL+M7hWtASA192ZIa52kbDKuLAiHhlph7x/RT3g3AjoNHCic/8dHft9hK8CeRQ8wRbxPgy5bUuLr4GPvwVCD24rDr0IJ3A2DHFt0f8dHft9hK8FeUX8bHa/7238aXLalxnrbBsLooUIUCMTY165wodkxjXib5iY/+rgVXkr8q5Chr9Ks1rlxJn18XH2MfngpUIXF3HWqb0clm/iZgsml2Hy7+7r+rDfHRX5O/Lofc+5lszLpJG7rrfJ62wbC6KBBzcvSubefs0XxNwGTT7Jw7Wvij/97Y9jHx0T9XExCIv34eeV6PZsDVsKXPr4uPsQ9PBapUSOw78bF9M0M/CRibmhF959+vDfHRX5O/fh55Xv0mQNrQXefztA2G1UWByhWR+Y6xRmyvzrd/ZmVv9mrr0i64Ij76a/LXqr7pVa7mBNTc1bClz6+Lj7EPTwVIRgoqDMAADOgwIG3orvN52gbD6qIAia+T+OiO7jAAA66GLX1+XXyMfXgqQBGiCMEADMCADgPShu46n6dtMKwuCpD4OomP7ugOAzDgatjS59fFx9iHpwIUIYoQDMAADOgwIG3orvN52gbD6qIAia+T+OiO7jAAA66GLX1+XXyMfXgqQBGiCMEADMCADgPShu46n6dtMKwuCpD4OomP7ugOAzDgatjS59fFx9iHpwIUIYoQDMAADOgwIG3orvN52gbD6qIAia+T+OiO7jAAA66GLX1+XXyMfXgqQBGiCMEADMCADgPShu46n6dtMKwuCpD4OomP7ugOAzDgatjS59fFx9iHpwIUIYoQDMAADOgwIG3orvN52gbD6qIAia+T+OiO7jAAA66GLX1+XXyMfXgqQBGiCMEADMCADgPShu46n6dtMKwuCpD4OomP7ugOAzDgatjS59fFx9iHpwKNVucOhYhCBAMwAAPlMyBt6I7z3fG0DYbVRYFGq3ObxC8/8dEczWEABhwN2wiff6MuPsY+PBVotDpXKUQUIhiAARgonwFhQ3dtEC572gbD6qJA4+jxRRK//MRHczSHARhQbQAmpxfq4mPsw1OBqeXlzY354x9SjChGMAADMFAuA4oNwAfjc3ObPG2DYXVSYHL+2KONVmeV5C83+dEbvWEgbQaUGoBPR/Y2v1wnD2MvBRVYawL4JMBQkNMuyPz78+9fJgMKDcAHmH9Bs6zr8PG572zaO3+svbfVudJodW6WmQjEovDCAAykxkBJDcDN0Ynm5dHJ6QU+9q+re1d0Xw9tGzXc0AAGYECLgc898iXz4MOPqNwqWrZZNgrIKKCV9MTFcGAABiwDNAAytZxZUMBZAYowRRgGYECTARoA57LNABSQUUAz8YmN8cAADNAAyNRyZkEBZwUowBRgGIABTQZoAJzLNgNQQEYBzcQnNsYDAzBAAyBTy5kFBZwVoABTgGEABjQZoAFwLtsMQAEZBTQTn9gYDwzAAA2ATC1nFhRwVoACTAGGARjQZIAGwLlsMwAFZBTQTHxiYzwwAAM0ADK1nFlQwFkBCjAFGAZgQJMBGgDnss0AFJBRQDPxiY3xwAAM0ADI1HJmQQFnBSjAFGAYgAFNBmgAnMs2A1BARgHNxCc2xgMDMEADIFPLmQUFnBWgAFOAYQAGNBmgAXAu2wxAARkFNBOf2BgPDMAADYBMLWcWFHBWgAJMAYYBGNBkgAbAuWwzAAVkFNBMfGJjPDAAAzQAMrWcWVDAWQEKMAUYBmBAkwEaAOeyzQAUkFFAM/GJjfHAAAzQAMjUcmZBAWcFKMAUYBiAAU0GaACcyzYDUEBGAc3EJzbGAwMwQAMgU8uZBQWcFaAAU4BhAAY0GaABcC7bDEABGQU0E5/YGA8MwAANgEwtZxYUcFaAAkwBhgEY0GSABsC5bDMABWQU0Ex8YmM8MAADNAAytZxZUMBZAQowBRgGYECTARoA57LNABSQUUAz8YmN8cAADNAAyNRyZkEBZwUowBRgGIABTQZoAJzLNgNQQEYBzcQnNsYDAzBAAyBTy5kFBZwVoABTgGEABjQZoAFwLtsMQAEZBTQTn9gYDwzAAA2ATC1nloorMLW8vLnR6iw1Wp2rjVbnVqPVMdzQAAZgAAbCMDA60TQl3G49NjF95bHGgcWRqanNFbcplh9Cgb2tY19ptDp/JdHDJDq6oisMwEA/AyWYf3+D8Zdtk/sfDeEhzFlRBe6a/2o/nDynYMEADMBAOAYUGgDbEKzSBFTUrKWXffdjf97583UHX/fAAAyUzIBSA2BGGs0Px+fmNkn7CfNVTIG73/mT+CUnPu+qwr2rQlu0rQoDWg3AWtzJ6YWK2RXLlVbg7gV/NAA0ADAAAzBQMgOqDcBE87K0nzBfxRRotDofVaVbZp28s4MBGKgTA8oNwM2K2RXLlVag0ercqVNCsRcMAgZgoCoMKDcAd6T9hPkqpkBVEoV1UtRhAAbqxoByA2AqZlcsV1qBuiUU+8EkYAAGqsIADYC0ozGfkwJVSRTWSVGHARioGwM0AE52xcnSCtQtodgPJgEDMFAVBmgApB2N+ZwUqEqisE6KOgzAQN0YoAFwsitOllagbgnFfjAJGICBqjBAAyDtaMznpEBVEoV1UtRhAAbqxgANgJNdcbK0AnVLKPaDScAADFSFARoAaUdjPicFqpIorJOiDgMwUDcGaACc7IqTpRWoW0KxH0wCBmCgKgzQAEg7GvM5KVCVRGGdFHUYgIG6MUAD4GRXnCytQN0Siv1gEjAAA1VhgAZA2tGYz0mBqiQK66SowwAM1I0BGgAnu+JkaQXqllDsB5OAARioCgM0ANKOxnxOClQlUVgnRR0GYKBuDNAAONkVJ0srULeEYj+YBAzAQFUYoAGQdjTmc1KgKomyvs75jtl1aMHsmH7KbD/w5NrNPravNeZLKHzER39N/lolME4Ms15vAmtBA+BkV5wsrUBZoEvE2X1owYxNzZphSTO2b8bsOtQOlrzER39N/iRyiDniaqCG1bKyXpf2E+armAJVKQg751pDjX9Dskw2zc7Zo+JNAPHRfwNnE83BPAbiryp5yjrdGoxcTA1jTeD1itkVy5VWoAoJa995OyXKZPO/XwkIfXxHfPTX5K8KOcoa3Yy/q5cTVwKG3x9P2k+Yr2IKdEGM+X5sasatAZhoGjtG6poA4qN/f+HMei7JX8y5ydr8jL+rWxZHoY9XzK5YrrQCXRBjvbcX9/kmgcT1AMRHf03+Ys1L1lXM+Lv6+bIlNU7aT5ivYgp0QYz13l7h7wv7joNHCl8LQHz01+Qv1rxkXTQAFbM6ljtIgdgT2f6pn28BHj/wZOEGgPjor8lf7PnJ+oo1Ar5sSY0b5Am8lpACsSfw9v1z3g2AHVt0f8RHf99iK8FfUX5dxk8srZjZH580rXdeMO2PXjJL//qRyM3OZeecOX/S2Bgua4rl3OmlZXP6hwfNzy/uNu/9crv5+HfbzGfXt6zd7GP72qULe8yp0wdNc3Ep9x592ZIal5DVsdVBCsSSYMPWgQFjwL7FTsKAtfkblhfSrx/43gnTvvmiiOHfr3FYuPGi2f/cidwGKb1P1/kWv33UvPmTXWb12teM+eNXc93suW9e3G3az2T/ObIv21LjBnkCryWkgGtClH2+dgEmPg2Ib7GVaEDKyDdr/oufvBLc/LuNgY0VexOwv71sfnpur/nsvS25TH9Qc2A/IXj9XMPsay8PbXh82ZIal5DVsdVBCpRRYIrEwIAxYN9iJ2HA2vwVyZ08Y+1H8mW88++af/d+4cYZMxnp1wH2nfv7v/mGt/H3NwPXr2w3h1cWBjYBvmxLjRvkCbyWkAJ5ioTmOdoFmPg0IL7FVqIBCZ179jv/rimXfT97/uRAUwy95/vN/80TR9a+3+838aLPb701Yo4/27pnv75sSY1LyOrY6iAF7pcMMRzDgDFg32InYcDa/IXOQXtxXtnG343Xuvb8PYYYer/3m9++87cX9BU1+2HjbRNweGXj/6vEl22pcYM8gdcSUuB+CRHDMe0CTHwaEN9iK9GAhM7Bxb/LXe3fNfa89+3bL0XTANjv6f/867Fg5t9tCv70q8eNvb6g++/qy5bUuISsjq0OUqALYqz3GDAG7FvsJAxYm7/Qebm0elbtEwAbO/T+8s5vL/jrmnTo+1dfnljfty/bUuMGeQKvJaRA3gTROk+7ABOfBsS32Eo0IKHzLu+79VDnhd5fnvntn/oVudrftWH49NrX178K8GVLalxCVsdWBymQJ0E0z8GAMWDfYidhwNr8hc69UMaed97Q+8szv/07f1cTL3r+G689sfYpgC/bUuMGeQKvJaRAngTRPEe7ABOfBsS32Eo0IKFzL69Rhzov9P6y5re/8OfyIz9Fjb873sa0vxjoy5bUuISsjq0OUiArQbSPY8AYsG+xkzBgbf5C518oY887b+j9Zc1vf963a8pl35867f6/2fbNhWHjBnkCryWkQFaCaB/XLsDEpwEZVjyzXpdoQELnX16jDnVe6P1lzW9/279s4+/Gu3RxN58AJOS1UW41K0G0j2PAGHCW0Q47LmHA2vyFzr9Qxp533tD7y5rf/k98uoZc9r39hcBh7Jb1epSmxKLKUyArQbSPaxdg4tOA+BZjiQYkdP7lNepQ54XeX9b8//j9VrUG4OO3t9IAlGd1RBqkQFaCaB/HgDFgTQPW5i90/oUy9rzzht5f1vz/ue7/P/sp+onBv9/dQgMwyJR4rTwFshJE+7h2ASY+DYhmAxI6//IadajzQu8va34agPK8hkgRKpCVINrHMWAMWNOAtfkLnX+hjD3vvKH3lzU/XwFEaEosqTwFshJE+7h2ASY+DYhmAxI6//IadajzQu8va34uAizPa4gUoQJZCaJ9HAPGgDUNWJu/0PkXytjzzht6f1nzX7qwR+0iwJ9d2MM1ABF6YlJLykoQ7ePaBZj4NCCaDUjo/Mtr1KHOC72/rPlPndb7IaDv80NASXltlJvNShDt4xgwBqxpwNr8hc6/UMaed97Q+8ua3/4cLz8FHKU1sagyFMhKEO3j2gWY+DQgmg1I6PzLa9Shzgu9vzzzv6nwa4D2qwe7Nl+2pMaV4THEiFiBPAmieQ4GjAH7FjvLTlF2tfkruv6s8aGMPe+8Wesr43j7maPmsxJ/D8D+6eHT33qaBiBiX0xmaWUkWJEY2gWY+DQgmg1IkdzJM3Zp9azJa9bi562eLdyg5dljnnNeP9co7WLAi2cn1vfty5bUuGSMjo0OViBPcmiegwFjwL7FzrJTlF1t/oquP2t8+6OX1RqA9u2XCv/7ZO0v7/F97WVjf5u/6K/7ZY1/98p2s2/h2Pq+fdmWGjfYFXg1GQXyJojWedoFmPg0IL7FVqIBCZ13rXdeUGsAWteeXzfC0PvMM//hlba5+duRYE3A7be2mSMr7Q179mVLalwyRsdGByuQJzE0z8GAMWDfYidhwNr8hc69mfMn1RqA2XPf3WCGofeaZ/7jz7bMrbfkmwDbWHSenb9nv75sS40b7Aq8mowCeZJC8xztAkx8GhDfYivRgITOvYmlFbNw40zpTcDC386YyaWVewwx9H7zzP9kp23+8ItxsU8C7Mf+9tOFQbF92ZIal4zRsdHBCgyCMqbXMGAM2LfYSRiwNn9l5OL+506YxU9eKa0JWPznWbP/5ImBhljGfvPEsN/Tv/ryRKHfCLBX+184O7HhO//+2L5sS40b7Aq8mowC/UDG9ly7ABOfBsS32Eo0IGXlo20CyvgkwL7zj938ezW379zfeO0Jp0bA/rDQpYu71//Ur3e+/se+bEmNS8bo2OhgBfqBjO05BowB+xY7CQPW5q/MfLQfyc+eP2nsxXn2Cn2pP/uzc9k57Xf+sX7sn6Wz/cXAU6dnjP39/utXHzcfv73V2Hf49mYf29feeG2P+cHpGWPPzZqve9yXbalxg12BV5NRoAtirPfjBw55/1qWHVt0X8RHf99iK8FfUX4Z3ylcA0Jq6MuW1LhkjI6NDlYgJNwSc++Yfsq7Adhx8Ejh5Cc++vsWWwn+JHKIOeJtAnzZkho32BV4NRkFYi8Ouw4teDcAdmzR/REf/X2LrQR/RfllfLzmb/9tfNmSGpeM0bHRwQpUoUCMTc06J4od05iXSX7io79rwZXkrwo5yhr9ao0rV9LnD3YFXk1GgSok7q5DbTM62czfBEw2ze7Dxd/9d7UhPvpr8tflkHs/k41ZN2lDd50vGaNjo4MViDk5ete2c/ZoviZgsml2zh0t/NF/b2z7mPjon6sJCMRfP488r0cz4GrY0ucPdgVeTcZM9tcAAAWGSURBVEaBKhUS+058bN/M0E8CxqZmRN/592tDfPTX5K+fR55XvwmQNnTX+ZIxOjY6WIHKFZH5jrFGbK/Ot39mZW/2auvSLrgiPvpr8teqvulVruYE1NzVsKXPH+wKvJqMAiQjBRUGYAAGdBiQNnTX+ZIxOjY6WAESXyfx0R3dYQAGXA1b+vzBrsCryShAEaIIwQAMwIAOA9KG7jpfMkbHRgcrQOLrJD66ozsMwICrYUufP9gVeDUZBShCFCEYgAEY0GFA2tBd50vG6NjoYAVIfJ3ER3d0hwEYcDVs6fMHuwKvJqMARYgiBAMwAAM6DEgbuut8yRgdGx2sAImvk/joju4wAAOuhi19/mBX4NVkFKAIUYRgAAZgQIcBaUN3nS8Zo2OjgxUg8XUSH93RHQZgwNWwpc8f7Aq8mowCFCGKEAzAAAzoMCBt6K7zJWN0bHSwAiS+TuKjO7rDAAy4Grb0+YNdgVeTUYAiRBGCARiAAR0GpA3ddb5kjI6NDlaAxNdJfHRHdxiAAVfDlj5/sCvwajIKUIQoQjAAAzCgw4C0obvOl4zRsdHBCpD4OomP7ugOAzDgatjS5w92BV5NRoFGq3OHQkQhggEYgIHyGZA2dMf57iRjdGx0sAKNVuc2iV9+4qM5msMADDgathE+/8ZgV+DVZBRotDpXKUQUIhiAARgonwFhQ3dtEC4nY3RsdLACjaPHF0n88hMfzdEcBmBAtQGYnF4Y7Aq8mowCU8vLmxvzxz+kGFGMYAAGYKBcBhQbgA/G5+Y2JWN0bHS4ApPzxx5ttDqrJH+5yY/e6A0DaTOg1AB8OrK3+eXhjsCR5BRYawL4JMBQkNMuyPz78+9fJgMKDcAHmH9y9p5vw+Nz39m0d/5Ye2+rc6XR6twsMxGIReGFARhIjYGSGoCboxPNy6OT0wt87J/PCzmrJAUe2jZquKEBDMCAFgOfe+RL5sGHH1G5lVRmCYMCcSqglfTExXBgAAYsAzQAcXoDq0pAAYowRRgGYECTARqABIyGLcapgGbiExvjgQEYoAGI0xtYVQIKUIApwDAAA5oM0AAkYDRsMU4FNBOf2BgPDMAADUCc3sCqElCAAkwBhgEY0GSABiABo2GLcSqgmfjExnhgAAZoAOL0BlaVgAIUYAowDMCAJgM0AAkYDVuMUwHNxCc2xgMDMEADEKc3sKoEFKAAU4BhAAY0GaABSMBo2GKcCmgmPrExHhiAARqAOL2BVSWgAAWYAgwDMKDJAA1AAkbDFuNUQDPxiY3xwAAM0ADE6Q2sKgEFKMAUYBiAAU0GaAASMBq2GKcCmolPbIwHBmCABiBOb2BVCShAAaYAwwAMaDJAA5CA0bDFOBXQTHxiYzwwAAM0AHF6A6tKQAEKMAUYBmBAkwEagASMhi3GqYBm4hMb44EBGKABiNMbWFUCClCAKcAwAAOaDNAAJGA0bDFOBTQTn9gYDwzAAA1AnN7AqhJQgAJMAYYBGNBkgAYgAaNhi3EqoJn4xMZ4YAAGaADi9AZWlYACD20bvUMRpgjDAAxoMaDYANxJoMSzRRQYrsBD20ZvayU+cTEdGIABrQbgfx5+5MbwysgRFEhAgYe2jV6lCFOEYQAGtBjQawC+eDmBEs8WUWC4Ap/f9tiiVuITF9OBARjQagAefPjhheGVkSMokIAC/3dkZPND20b/QiGmEMMADGgwoNQAvP9/vvCFTQmUeLaIAvdX4PNbH/t/D20bXdVIfmJiOjCQNgMKDcCn//PFL/7v/asiR1EgIQX+2wSMfEgxTrsY8+/Pv3/ZDJTcALyP+SdkbGw1vwJfGB/f9PmRkfZD2x678tC20ZtlFwLiYT4wkB4Dn3vki/9+8OFHTMDbzf95+IuX7Xf+fOyf3w/KOPP/AyoQOgI8CoFaAAAAAElFTkSuQmCC;" vertex="1" parent="1">
          <mxGeometry x="110" y="750" width="152" height="152" as="geometry" />
        </mxCell>
        <mxCell id="lAoFFa3lUKe8nC0rTrzX-2" value="" style="shape=image;verticalLabelPosition=bottom;labelBackgroundColor=default;verticalAlign=top;aspect=fixed;imageAspect=0;image=data:image/png,iVBORw0KGgoAAAANSUhEUgAAAgAAAAIACAYAAAD0eNT6AAAAAXNSR0IArs4c6QAAIABJREFUeAHtnQmcJEWZt8f7YFfXY71d3dVVV3ddXY9PvBhgOpsBprK6MnOurqzp6YpqQAUEunq4J2e4b4Z7uC9BbmG4RlG5D0E5BAU5BEUUuVRETuf9jOzqoZnpnuruqsyKyHz4/ZrpozIz3if+Ee8/IjMjpk3jPwhAAAIQgAAEUiXQXSh/1ClWtu4qVM5y3PB2xw2fcNzwRccNxXHDlxo/395dDM923HCbjXsqH0u1gFwMAhCAAAQgAIH2EJg+ffprnUI413ErNzQSvU72k/m6ySmUe/V52lMizgIBCEAAAhCAQKIEut3KDMcNfzHJhD+eObh7hht2J1pgTg4BCEAAAhCAwNQJzJy59RscNzzMccNVbUr+q01BlxsePX163xunXjqOhAAEIAABCECg7QQ222z+25xCeGW7E/8a57txZrDwX9teeE4IAQhAAAIQgMDkCcyc2fsWxw1vXiNZrx69t/n3d3QH1bdPvpQcAQEIQAACEIBA2wgEQfCabrdyRZuT/LrNQyG8kocD21aFnAgCEIAABCAweQJOMdwj1eTfeJOguxDuN/nScgQEIAABCEAAAi0T6Cr2fWbU+/zrHrVP7hXAiZzrpa5C+PmWg+AEEIAABCAAAQhMjkDqU/9rmIjuQnjN5ErMpyEAAQhAAAIQaInAJj2V9Tsx9b/mNbt6wg1aCoSDIQABCEAAAhCYOAHHDU9ZMxl36OfvTLzUfBICEIAABCAAgSkTCILg9Y4bPt2hhL/m8wHPsEDQlKuSAyEAAQhAAAITJ7BJsTzdkOQfm4Gu4gJn4qXnkxCAAAQgAAEITIlAVzEcMskA/ONNhF2mFAgHQQACEIAABCAwcQJdbuVEwwzA6RMvPZ+EAAQgAAEIQGBKBBw3vMQwA/CDKQXCQRCAAAQgAAEITJyAfv/eMANw88RLzychAAEIQAACEJgSgRQ3/lnzif/xfr5jSoFwEAQgAAEIQAACEyfguOEdJs0AdLvhPRMvPZ+EAATWIiB9fW+U+Vu9TUrqA1Lq/w8J+j8ugfpc/NWjNpJSbYZ41VniV4P4y1Obxr/z1fTVnwuqH42PLfS/Lz7XwMDr1roQv4AABKwmoBOuSQagyw0ftBoohYdAEgQkCF4vPbWPSal/Q/HUPPHUNlJSS8VTy8VT3xNPXSde9Vfiqb+IpyShryfEU78UT10tXvVc8dQR4qtIPPVNKSlfStWvS6D+XYLgNUkw4JwQgEB7CeiEa5IBcNzw9+2NkLNBwBICMjDwunjUrUfoJTUgpeq+4tXOFq92l3jqxYSSehJm4QXx1P3iqR/EBsWvLRqeaah9CnNgiRgpZi4I6IRrmAF4MhfgCTLfBKSg3i166t2r7i5+9cJGwnzJoiQ/VePwfGMW4SzxVF30LYlg4K35VgPRQ6AzBBw3fNIwA/BMZ0hwVQgkREAnOAkGvipebVvxaqc2RvRTTaBZPe4R8dSK4VsK1VnSU3lHQtXBaSEAgQYBxw2fMcwAvETlQMBqAuIu/KB41QXDyV49mINRfRKm5O+NmYKj4+cL5g2802pRUHgIGEjAccOXDDMAEvAMkYFKoUjjEpB5A++Mn6rX9+xL6hbx1CqSfiIPIurnCpbHzxNw22BcPfIHCEyEgE60piV/XZ5ZswbePJHy8xkIdIRA/ES+V+sWr3qQeOpW8ZQerSYxCuac43PVDxpeK15tiQT960sUvbojYuCiELCUgE60JhqAzTab/zZLkVLsrBKI363X787H9/DVUyR8wwxPST02XDfVWfptiqzqkLgg0C4COtGaaAA23bTvPe2KkfNAYMoEZNbAm+Op/eGkn+T79Yz0xx/pT4XNE7EZ0AsdheF6UxYAB0IgwwR0ojXSAJTmfyjD2AnNZALxE/slVRVPXSKeeo6RvmEj/ckbhb9IqXpm/CDhzK3fYLL2KBsE0iSwaWn+h0w0ABv3VD6WJgeuBYFp8RK4w6vq/ZWkb33SH2/WQN+6WS6lgf9D8hDIOwGdaE00ADPc3v/Je90QfwoERK9zr1ep89S9JP3MJv1xzEDtrrjueb0whZbGJUwkoBOtiQagqxB+3kRelCkDBIaf4I8f5jvbsuV1x0lkeUvcbY/3ueHllquzWKY4Aw2cECZMQCdaMw3Agq9MOAg+CIGJEJDSwHvFr+0t8dPibU8iJOfJ35s3kdkD4tW2l97et0xEU3wGAjYT6Cos+IqJBsCZFW5kM1fKbhCBeAc9Ty0TTz3LND/GZ4Ia0G98LJNg4N8MkjJFgUBbCehEa6QBKFZmtjVQTpY/AsNr76sVrMpH0p9g0h9rRkIv8LRCvIH/l78WRMRZJ+AUKzPNNADlYtbZE18CBOLtdPW73576SQud/liJgN9lY4q/lXq8dngJ4uA1CUiXU0IgdQJOsVw00gC4lTmpw+CC9hKQmVu/QUq1rcVTD+c48f9JPHV3Y3ncC6RUO0bivQmq+/7jYcdd4ifeS+rbUlID8Zc2SiNfJTVn9e9LaofhNyOqu798fO0E8dRFUlLXN7YtzvGrkrW7RPNi6WF7OwxKHhNw3MocEw1At1uuUEUQaEpApkevFb+qxFMPZTzx/1W82m3iVc8dTsqqKn5tpnjVz0pJfUAboKaw2vwBCbZ7k75HrqfHxa9tLp7aKt4bwa9e2NjFL+uLKN2uV4lsM1ZOB4HUCOhEa6QBKIS11CBwIfsI6NGX+LXeDL6///v4nvPwroJVCWob6LUK7KuhadPiOipu+WEp1WasNgee+oF4WdtHoXqjjtHGOqLM+SbQXQhrZhqA8rfyXTNEPy6BRkLRO/C1cj/XhGP1qnTXxk+b+6oiXu1T4wadsT/ECzDpjZV8FQ0bHr2Rj/X1ea34anrGqopwMkygu1D+lpEGoBjukGHshDYVAhJvv6tutjRRrBJP3SG+OkRKtR5eL3ulAmTatFfFr2uWqvPjpXo9dZ+l9ayN5SX61swrI+QnCJhHoLsY7mCiAehyyzubR4sSdYSAFAc+MvwqlnUjxPvjHen0Q3fBlu/vCDyLLzq8cFP8RsdyC5/xWBXXfc+W77K4Cih6xgnoRGumAQiXZBw94TUjoLdxlZLay6Id+fRT+GeIrxYywm9Wu5P/uwQLPyle9VsNM2jLok5PSKn2DZYYnnx9c0TyBLrccImZBqCyb/LRcwVjCeinq8Wr/tqCaeDhfed1eTvwJL6xFZhwwWTWwJuHNVI7Vbzany3Qya16YaqEsXB6CEyKQJdb2ddEA+AUwkMmFQgfzgYBCfo/Lp663PAO/Y/x9K5O+gMDr8sGeXujkL6+Nw6bAaVvFTxquHZWiLvwg/bSpuRZIqATrZkGoHJUljgTSxMCevMV8WoHi6deMLQDf0pK1SMl6F+fBWCaVGYH/zy8EmS/IyV1unjqb4Zq6S/iVwcxjx0UCpeOCTiFylFGGoBieAJVlBMC4vc7hj7kpdeBvzZeIS8M18tJdWQmTAkG3hrX3fCrlia89rlmGe7gbYHMyM3KQJxieIKRBsANT7cSKIWeOIHhUX88batfkVuzc+zkzw/Hq+0VBz4y8Wj4pMkE4gcI9eJKnvqjYVp7IdZaELzeZH6ULZsEHDc83UwDUD4nm8SJKiYgfnVj8dSDBnXGfxdfnR/PRrDGe2ZVGu8Z4dVmS0ldaZD2tNm9OU8LQWVWYJYF5rjlc8w0AOFFlqGkuBMhED+9PTwS09PrnRzlj1z7ueEH+gY+MZHy85nsEIj3UfD0WwTGPHcyPBvAg6XZEZnhkThueJGZBqC80nB0FG+yBPRrUOJVf2VI4n80Xoa2p/KOycbB57NFYHjBoXhJ4ieN0GZJ3SQ96r+yRZloTCTguOWVRhqAQnilibwo0xQISBC8XrzqoeIpE+713yklVeWd/SlUZMYPiR8a1E/ne+o3BhgBvdDRNnqJ5IxjJ7wOEnAK4ZVGGgC3ckMHsXDpdhGQeDc4dVPnO9TabVKqFehQ21Wz2T3P8KuEaqEhz6icp41JdmkTWScJOG7lBhMNQLcb/qyTXLh2Gwg09oh/osPJ/27RO+0FwWvaEBKnyBGB2AjofRx89bsOa/hB8Qb+X47QE2pKBHSiNdEAdLnhXSkh4DLtJiDTo9c2tnnt5IN+D8XvgE+PXtvu+DhfvgjEbw4MG4E/dNAI6IdVt80XeaJNmoBOtCYaAMcN70s6ds6fAAEpqQ809rgfeco+7X8fFb+2SC8Pm0B4nDLHBCT4xj/F2vLUUx0zAvpV1WLfv+S4Ggi9jQR0ojXUAPy2jWFyqjQISE91EympxzrUOf5VfLWzBNu9KY1YuUZ+CUhP5R3iq8PEUy92SOv3iKc+nd8aIPJ2EXDc8LdGGoBC+Md2xch5EiagH6wTr7q7eKpTU/5nscFKwpXM6dcioJOweOqqDpmAv4lf612rUPwCApMg4BTCPxppANzwz5MIg492isDwymrqtA51gneLV+vuVOxcFwKaQGMnwoc61AaWsTkVOpwqAccN/2yoAXhuqjFxXEoE4qnQzoyA9HR/pNcXSClULgOBdRKIV7jUmvTUc6kbAV+do6+/zgLyRwiMQcBxw+cMNQCrprEGxhg1Zsiv9Lrl4lV/nXJnpxcSOlmCvvcYgoFiQOAVBCTo/7h4tZUptwv9oO0NUlDvfkVh+AECTQg4brjKUAMgAQO8JrXXoT9Lj+qS9J+EfkRPtXYoZC4LgUkREL8aiKfSXgPjYbYXnlQ15frDOsGamvx1uQqF/n/OdQWZGHxjf/UX0h3h1M6WoPp2E3lQJgiMRyDeY8BTF6XbVtTTGOXxaoTfjyagE6zJBmD6rHnvHF1evu8gAf2gkXhqWcqd2cPi12Z2MGwuDYGWCAy/IVOriVf7c4pt5yXx1DdbKjgHZ56ATrAmG4CNNq+8P/OVYEOAehnd+N57qtv3Muq3QRuUcWIEGrMBK1I0ASKl6r4TKx2fyiMBnWBNNgAbl+b/Rx7rxaiY49f8/OqFKXZcv9d7CBgFgcJAoA0EGrMBW4qn/ppae/LVgWyA1YbKy+ApdII12QDM6AnZEruTuotfbUrzieaSulKPlDoZM9eGQNIEht8UUHekZgI8tZy1ApKuVfvOrxOsyQagq9j3GfuoZqTE8d7onro2pU5qlZ6uZMe+jIiHMJoS0EtWi1c9NqX2pV8TPEPvbti0YHwgNwR0gjXZADhuyA6YnVCjzN/qbeJVb0ylc9J7B/RUN+lEnFwTAp0mEG9Vnd4tgRVsktXpGjfn+jrBGm0ACgu+bg6tnJREL7IjXkrTkyV1k5SqH8oJWsKEwJgEpEf9l3jqzlQMt1f7kd7VcMyC8MtcEXAKC75utgEod+WqQjodrN5QRzx1bwod0Srxa/vJ9Oi1nY6Z60PABAJS6P/neJo+nTdtrsYEmFDrnS2DUyh3GW0Aeio8DJ6WRKRny3eJp+5OIfk/I74qpRVX3q8TP8hZqn5IgtpnJFCfE7/2ZSnVZsSrOerV6lZ/qVL8e/03b+D/xZ/tqf63BFu+nz0X0lOReNXtxFP6PX593z7Jryu4HZBevZp4JaensrnJBqC7WPZM5Ja5MjUe+Ptpwh2O7swekVLtC5kD2KGAZN7AO6WkviSlaigltVRK6kTxlH7X/IbGPg3tfN3sqdgglqrXiFe7QDx1tJSqOw0veVv9LCPK9olAPxOTysJB+vVeZuHaV3GWnUknWKMNgFuZbxlS+4o7/KqfujqF5H+7BAP/Zh+hzpc4TvRxUlC7NKaJb+7AXgwTGY3+XuLdIWsniFfbVoKBr0oYrtd5gvaVQIKB/xFPPZh4uyyp03lF0D59tKPE3W5lvtkGoLywHXFyjnEI6Kld8aqXJt7J6Gv09r5lnGLw61EE4nvBfr8Tj649dV4qSSDZqWY9nX2nlNQp4qlt4lsQvI42qsbH/7axeuBPkm+f6qjxS8Ffskqg2y0vNNoAFMIts8q+43ENL+9bOzuFzmUZI4zxq1tPwTbuzS8ST/1APPV8CnUykdF8kp95Jo7Vry2KZwmYhh5XIPo+fSoPB/q1vcctBH/IJIHuQrilyQagq1DeNpPgOx1UvCTp8IgsyU7+BfFqtU7HauL1JVj4yeH75+qH4qlnc5Dwm+lMb5t7nvjVLVgJcm3FNjbi2idxnfi1RWtfnd9klYBOsEYbgGI4lFX2HY1LfHVYwp3Js2xJ+soqFq/2KfFVJF7troTZN0u2pv/971JSt8SsemofeyXFfP8kJfVt8dSqBPWzSrwa0645kVlXMRwy2wBUdstJVaQXpniqnmAHopPLM/oVs/QiMvdK8RP6vjokA/fxO2ka9Nspu0ipn53Bpk2bJp4q/4PHiwm24b9LqVYwt1VRsnYR6CpWdjPZADhuuGe7YuU8uvPwazMTfsf4T1KqfiXPsONllEtqQLzabQl20p1MyJ27tp4Z0Gxz/maBlNQc8dQLCerrafHUp/PcjvMQu06wZhuAygF5qIdUYozvO3vqTwl2Gk9KUP1iKsEYdpH4Hm28gE78UGWSHXPnkm+ybwpMMq7an8WrnaoXLjJMCqkVR0rVzRJ+fuRBKah3pxYQF0qdgONWDjDbAISHpQ4lixeM3yP31P0JJv/f6/eWs8huXTFJUH1742G+3yXIdpLJMdHV40wsy63xhjpB8Pp11VUW/ya+mi6e+kuC2ruO1QKzqJzhmBw3PMxoA1AIl2eXfkqRxe/6l9SVCXYSD0pQ/WhK4RhxGQnUv8fbFyc7o2JisjW3TL76Q/zgYFB9uxEiSakQemVN8ZR+iyKpujlLvzWUUjhcJkUCTiFcbrQBKJZPThFH9i4Vv+7nqdMS7Bx+k6fd/BoP9Z2T8HMUSXXkeTmvvn+9TJu07LXosSOK925IcibAVzuPfWV+azMBp1g+2WgD4IZn2sy342UXX+2cYPL/o97GtONBplAA/WxDY439vCTRLMT5d/FqZ0tx4CMpSKTjl5BS/4YJPhOwSj942PEgKUBbCThueKbZBqB8flsDztPJxFeueOrvCRmAp/TuclnnGb+7r5NIsu9eZyHZmhyDfihzuRT635d9vVZnJfh2wDN5aPNZ18jo+By3fL7ZBiC8ZHR5+X6CBKSn8g7x1KMJJf+/Zv1VP/EGPhE/ZZ7OtqwmJ88slU0vP7ws60+2S6k6P0Hjf6ewj8MEe2HzP+a44SUmG4But3KF+RQNLKF4av+Ekv/z4vc7BobcliI1jNPR3ONP7IEyAwxF7c/iVweznMj0an7JzVpV+9vS2DhJxwnoBGu0ASiE13Qckm0FiDeX0U9Et/+p4JfEVyXbeEykvPF7/L6qiKf+mAA3A5JelhP6VGOr/kovjDURfdj4GdEbLbW/D9BavtpGHpR5bQLdhfAakw1AVzH8ydql5jfrJNBY8KfdSWeV+CqTezPr2xniqZ8l1Fm2ux4mer4/NvYcuCp+EM6rHS5edfc4KeiV9PSXX+sVvxpIqdYT/6u/96oL4r95aqvGZ5fG98899T3x1HXiVX+V8HvnE42vnZ87T4pbfnidjcrSPzZeVW0nK32uF2Tm1m+wFAnFHkVAJ1iTDYDjhrePKi7fToSAXsc7gWSWuTWZpWfLdzXu8ye5uUq7O9+Xzzf83rveTXB5vL+DTuQ91f9OY+EWKfb9i3j9nxdPzRNf7SZ6Z8mSut5ic/C32CBlbDGh4deAk9jye4v/nEhfxGfMJqATrOEG4G6zCRpYOr0LX3sNQPXcrC0EEo947Zruf0o8dW38EFt8q6L2KQOlFxdJP20fazDe+VCtSHiRmpcNUXumu+/UxsZUtlMpl8waeLN46ub29gkDn5hKWTjGLAKOG95tuAH4tVnELChN4531dnWMP83SxivxRj16Dfn2JIt2MV77PCX1WLzugL6PG6jP2WzAJAheE8fg1bZt3I74s+H8X4ynzjM0zT1sytTDbeK+Ss8AWdAVUsQmBBw3/LXhBuCRJiHw5zUJ6PtzbVoQ5BEpqQ+seX5bf5aS8hN8NXLtJD45k6HXa7haSmoH/a61fijRVs7Nyh3rM6htIJ7as/GcQqvskjr+dvGqn20Wjy1/HzZhSr8K2SqvX9oSM+VcNwHHDR8x3AA8se4I+OuYBBr3tltp6M/q5UXHPLllv5Rg4K3iqe+2oeNrhedYx74gXm1l/NBdjnddi9dc0CtW6q1+W09OY3Fu5XcvxM84BMFrLJP9mMXVb/G0vkZAdfcxT84vrSPguOEThhuAv1oH1YQC6535WlgRLDPLfkpp4P/EU/cZlFhWSal6jX6jQt+OMEErJpVB7yvReH3tboPqTBuIK7KygJB4apcW2D6h18owSTOUZeoEHDf8q+EG4MWpR5fzI6VU23VKDd1Xu2UBXbxFrKf+NiUG7R+JPjK8QU3+tkyeqpYaU9b6DYckt7udzOzAo9KjuqYajynHxW8G6Lc2pqTx2mxT4qAcrRNw3PBFww2ABBmZfWu9tiZ5huFXgKqHTqqh+7X9JnkZ4z4uhf5/llL1zEnFPaXOsOm91FXxFL9f21w/CGccKEsKJME3/kn8qhJP3WFAnb4Uj6Atf0YjfjBzcm1Ea3lbSyRDMSdAIIqiV5ue/HX51g+CN00gHD4yHoHGSPjxJp3nH7Ow21f8Hryn7mkS62RGfVP57PPiqZPFU58er074/eQJDBvaWrf46vsdrl+ticttnwqPTYCntmk+w1L9tfRUN5l8jXGEyQR0YrXBAEznjZPWZRSPir1arbGl7QPiqSfFU/eLp84Tr9ovwXbWuyzx1KbNO7Omo/apJPyRY/S7+vvkYde51hXZ2hm0uWqYLL3T3wj/tP+9V4L+j7cWSeePlnkD7xRPfTOerfLUvY2+4V7x1TnxapEZWxyp88TNKIFOrDYYgI0L895tBjFKYSyBxvK1L3YoGejdEfflob705RE/NDi8EmKn6v5J6VEbpR85V4RAawR0YrXBAMzYPPy31iLl6MwSiKcxfXVYhxK/nupfLkHfezIL2JLARm3frNdTSHsm4EUp1b5hCSqKCYGYgE6sNhiArs3ns+w0ml2bwPB69LWVHejw9YNgRzPVv3addPo38SJKem2F9E2AiFc7IMsLOHW6brl+ewnoxGqDAXB6wv9ub+SczXoCUhp4r3jqztQ7ev0Of1D7jPUAMx6AeNWieEo/65LubIC+b84984yrKxvh6cRqhQEoLvhcNogTRVsISDDwb41tadPs3B+J36aYNu1VbQmCkyROQD/Y2lhU6Ol0jUD10iw8VJt4BXGBjhJwigs+Z4UBcMtf7igoLm4OAempfUw89ZsUO/SXxFcH6rcozKFASSZDQIpbflj86oUpakakpK5EM5OpJT6bNgHHLX/ZBgPQXahsmDYbrmcgAQkWflJ89bsUO/L7xFdfMxAFRZoCgcYW0M3Ww2jfrJLe22DewDunUFQOgUDiBHRitcMAlFmDInE1GH6BxrKwaXXe+kny5XofdcOxULxJEtDr+Yuvzk/PRNbu4mHRSVYSH0+FQHehvIkVBmBWxU0FCBcxk0BjQ58/pdRp3y1B//pmkqBU7SLQWB1TL9zUvhH/uOeq3cVMQLtqjvO0i0D3rIprhQEoltl/ol2Vbtt5xNviP8VXf0ino1an6XXnbWNEeadGQNyFH5SSuj4lbd2qX1udWkk5CgLtJ9BdLM+2wwCEYfuj54zGE4g7aE89mEIH/SwbnRgvh0QKKNOj18arOHpqVQo6u07CcL1EAuGkEJgkge5iGNpgALrcsppkaHzcdgLSs+W7xFMp7Alf/ZX09P+v7bwof2sExFduYw38ZG8J6I2MZm79htZKy9EQaJ2ATqx2GIDwm61HyxmsIaB3WRNP/TzxEZl+GKy39y3WgKGgiRKQ4sBHUtpy+Cy2h060Kjn5BAh0ueE3rTAAhcr2EwiHj2SBgB4diaeuTTz56137LN/TPQv1bVoMw7tmqksS15+vDjMtdsqTLwJdhcr2NhgApxDulK+ayXG0UlLHJdz5Pi+lWl+OERN6EwLxBlN6d8dxn+pv05sDbCDUpCb4c5IEdGK1wgAUK1GSHDi3IQTEVzsn3Ok+Ib6abki4FMNwAuLVauKpFxLUpN5UalPDMVC8jBJwipXICgPghvtktAoIa4SAlGo94qkkt3J9QILqR0eux78QmAgB8WszxVPPJGgCntJbGU+kLHwGAu0k4LjhPpYYgIPbGTfnMozA8Bau6q8JdrJ3S0l9wLCwKY4lBPRy0OLV/pygPh+QYOG/WoKDYmaEgOOGB9thAMpHZgQ5YaxJoPHE/2+T61xrt+lXCte8Lj9DYDIExOv/vHgqwaWoaz/iodTJ1AifbZWA45aPtMIAFMLjW42V4w0lIJ46Obnkr26Q+Vu9zdDQKZZlBKSn+t/iqUcS1Os2liGhuBYTcArh8XYYgPJpFmOm6OMRaLx3ncwKbKXqNSzrOx55fj9VAvo5EvHUw4mYAL3kNYsETbVqOG6SBJxC+TQbDEB3MTx7kqHxcRsIiK+iRDpSvQ1rMPBWGxhQRvsIxNtSl9RjyWi3upl9RCixjQR0YrXCALiVC23kS5mbEBBfXZZAJ3qP3vK1yaX5MwRaIqCXj05k6eCS2qulgnEwBCZIoNutXGiHAQgvn2BIfMwmAuLV7mqzAXhAgi3fbxMDymovgeG3A9r8imBJnWIvEUpuE4FuN7zcBgPQ5YY/tokrZZ0gAfFqt7XRADyinymY4KVz97HhXe8G3iue+rT0qC7xq8Hwl1ooJTUw/FUN49+VlC9BbYN4qpvX09aplcY6Ae1bLAgDsE7e/LF9BHRitcEAOG54ffui5kzGEBCvdkGbDMAz+jUtYwLrYEH0DIiUagUpVXcSr3aCeOpq8dTvW+T8knjVX4veyc5TR4lX3U561Ebsbz9c0VJS1Rb5vrwDoV/do4Py4dI5IqATqxUGoBj+NEfVkp9Qxa8OtqHjXKVHrfmh9nKkw2vW174gfm2ReOqihF9RezlJvbxG/irxqr8ST50hXm1L6alG52yMAAAgAElEQVR97OXS5es78dWBbdCyiFfrzhc5ou0UAacY/tQKA+CGd3aKEddNkIAEfe8RTz3fWsdZ3T3BIhp3apk38M7GiPN74qmnWmPXpk1tXjYE2iT8VrzqSeIrV4Lt3mQcwIQKFJsxT61oqT589Tt9qyahInJaCLyCgOOGd1piAO59RcH5ITsExKse1EKneYZMm/aq7NAYOxK9mJF4aqt/PHT2Q/GU3kBmrNG4ib97Wrza2aKfKcjB++2NrYTvmHL9lFR1bAXwWwi0n4DjhvdaYgB+0/7oOaMRBPQocUoPA8YL/WR3hKmXhZVg4KviqeUJb0aTlnHQsxXLxat+1gjhJVQIKVU/NDwLMlmTVrsgD2Y2IeycdgoEHDf8jSUG4NEphMchthBoTGvfMuGRU0ldqUdbtsQ3mXLqkbL4qiKe+uWEedgzIzBsNvRCTTrGIHjNZNjY8tnGCpcPTaL+VuTpdokt9Zj1cjpu+KglBuBPWa+L3MfXSHx6ZcB17Qr4VPzAWwYThwTVt4tXWyJJrTBnpkm4J379MAhen7UGoN+QkFLtmCa3bJ6Qkvo2mwBlrfbtiMdxwz9ZYgCetYMopWyZgPT2vkW8an/ceQ6/dvaD4VfPVFlmDby55QsYdgIJw/UaT/Gb+EBfWrcHHoqNQAYfgJNC//viJO+p0xqvZP44fj2zVA3Zq8Kwxpiz4jhu+KwlBmBVzqqGcLNOQAYGXidebducjfibGYpfiFedlfW6Jz4ImEDAccO/W2IA5HMDA68zgRllgEDLBOJV9jw19afFzZzOb5bcJ/P3K6RH/VfLoDkBBCAwJgGdUG1J/rqc04Pgn8YMhF9CwBYCepMi8dR3J/Fw2GSSZtY++5z41T3y8PqgLfqlnNkhoBOqTQZg457KO7JDn0hyR6Cxxn4yW8hme0bgTinVvpA7wRAwBBIkoBOqTQagqzD3fQni4NQQSIaA9FTeES+Gk+0knfTsw4tSUktZJS8ZjXLW/BHQCdUmA+DMCv89f7VExFYT0BsUiaceYMp/sovijPP5krpJL7RjtSgoPAQMIKATql0GoO8TBmCjCBCYGIH4tbaW9zkYJxHmeTZBr5PQU91kYrXApyAAgbEIOLP6PmGTAejuKf/vWHHwOwgYRSBe0KikTmfUn6h5+bveSdKoiqcwELCIgE6oVhmAYuWLFuGlqHkkMHy/X11F8k80+Y9+3uB4vZ5CHrVGzBBohUB3sfJFqwyAW/5aK/FyLAQSJSDewCcMvt//uHjVG8WLV6PbR7zqduKpsng1T0q1Gau//H5n+G2FWt/w6oS1g8VX5zQ2a1rXEs2jk3La31+hV49MtHI5OQQyRqDbLX/NLgNQmZGxKiCcrBCQnv7//cd2vY8aMvJ/RvQSyiW1WErVzSToe0+7OMeb3JTUHPFqB4h+IM+crYlv1rMv7YqT80Ag6wS63coMqwxAobxZ1uuE+CwkIEH1i+KpJzuc/B8QXx0YrzA4c+s3pIVRgoG3ilctilc9STz1RIcZ3NFOs5MWQ64DgU4Q6C6UN7PJAGxSCEud4MQ1ITAuAfFrXxZP/aVDie9x8dQyCdTnxi1gin/Q7+iLV+uWUvVM8dSzHWJyj5QG3pti2FwKAlYS0AnVJgPQVSzPsxI0hc4mgca0fyd28LtZPDXP5CVyG1sbby+eeqgDRuAOff1sqo6oINAeAjqh2mUAwr72RM5ZINAiAempfUx89Yd0k1ttpZ7ib7HoqR4+PCug5omn7kyXVfVGttpNtaq5mGUEuophn1UGwK1sYRliiptFAvo+s3jqwdQSWql6jZSqX7eZpUTRq4ffOlD3p8ZNPwg5PXqtzdwoOwSSItDlVrawyQA4brhNUiw4LwQmRED6+t4oJXV9KknMV78TX1Vk2rRXTahwFnxIv7MvXm3bFJ+bON4CLBQRAqkT0AnVKgNQqNRTh8QFITCaQOM9+qTfc39JPLW/hOF6o6+dpe+lpD4gnvpeKkbKq34rS+yIBQLtIOAUKnW7DEC4azvi5hwQmBIBKakdUkhYv5SS+tKUCmjhQY3bAkm/Qvmibc9OWFiVFNkyAk4h3NUqA1AM97AMMcXNCoH4oT9PPZesAaidIMF2b8oKs4nG0ZgNuDZZtuoBk9+amCgrPgeBdhFwiuEeVhkAt7x/u2LnPBCYFAEpqRMTTFDPiFddMKkCZezDjTUEDhBPrUqMs19VGcNGOBCYMgHHLe9vlwEIl005WA6EwFQJDD+4lthiP4+I1//5qZYta8c1bgkkM9Piqx9mjRfxQGCqBBw3XGaXASgfM9VYOQ4CUyYgQe0zyYxKa7fp6e8pFyyjB0ow8FXxlF7lsN0PWz6tX0fMKDbCgsCkCDhu+RibDEC3G540qQD5MATaQSDeUKfdyUi/Sljs+5d2lC+L5xCv9inx1CNtNwHBwFuzyIuYIDBZAjqhWmUACpUzJhsjn4dAywSkp7pJmxPRj1mlrnm1iLfFf7Z9KeHgG//U/Mp8AgLZJ9BdqJxhkwHoKobnZb9WiNA4AhL0f7yNBuAGkv/Eq7hhAn7fFv4l9djEr8wnIZBtAjqhWmUA3MrF2a4RojOSQLyMrV6Vr/XbALfL/K3eZmSQBhdKPPXp9my3XD3X4DApGgRSJdDlVi62yQA4bviDVAFxMQiMEBC/tneLBuBhKfS/b+R8/Ds5AnovBPHU863VQXXW5K7KpyGQXQI6oVpmAK7Obm0QmdEEZN7AO6WkHptiAvobr/q1Xr3iVfunyF9Eb6iUoT0VWqfJGfJOwHHDqy0zADflvc6Iv4MExO93ZPKrAf5dSsrvYLEzdWnx1J5TMAGPS6D+PVMgCAYCLRJw3PAmqwxAIbytxZA5HAKtEWi8EvjsBJPQc+LXelu7IkevSaBxO2aiKwY+rJ8hWPMc/AyBvBNwCuFtVhkAN/xl3uuM+A0g0HhH/QfrNAF+9UK9f4ABxc1kEcSvbiye+uU66uBF8dTx+tZNJgEQFARaJOC44S8tMwAPtBgyh0OgfQQaRmBH8dQZ4tcuHt4quPot8QY+0b6rcKZ1EdA7J0pJLRWvdqp46qJ4z4ZS7RtSGnjvuo7jbxDIOwHHDR+wywBUfpf3OiN+CEAAAhCAQMsEHLfyO7sMQPh4y0FzAghAAAIQgEDeCThu+LhlBuDpvNcZ8UMAAhCAAARaJuC44dOWGYAXWg6aE0AAAhCAAATyTsBxwxcsMwASsZtn3mVL/BCAAAQg0AoBnUhtS/66vNOn972xlbg5FgIQgAAEIJBrAjqR2mgAZgQB23nnWrkEDwEIQAACLRHQidRGA+D0hO9qKXAOhgAEIAABCOSZgE6kVhoAd+EH81xvxA4BCEAAAhBoiYDjLvygjQagu1D+aEuBczAEIAABCEAgzwR0IrXSAMxa8Kk81xuxQwACEIAABFoi0D1rwaesNACbl/+vpcA5GAIQgAAEIJBnAt2bl//PRgOwSU9l/TzXG7FDAAIQgAAEWiKgE6mVBqBYnt5S4BwMAQhAAAIQyDOBTYrl6TYagBlu2J3neiN2CEAAAhCAQEsEdCK10QB0FcqFlgLnYAhAAAIQgECeCehEaqcBCIM81xuxQwACEIAABFoi0FUIAzsNQKXcUuAcDAEIQAACEMgzga5CpWyjAXCKYTXP9UbsEIAABCAAgZYI6ERqpQFwK99oKXAOhgAEIAABCOSZgONWvmGnAQi3y3O9ETsEIAABCECgJQKOG25nqQHYsaXAORgCEIAABCCQZwKOG+5opQEolBfnud6IHQIQgAAEINASAadQXmylASiGe7cUOAdDAAIQgAAE8kzAKYZ722gAuovlg/Jcb8QOAQhAAAIQaImATqRWGgA3PKKlwDkYAhCAAAQgkGcC3W54hJ0GoHJcnuuN2CEAAQhAAAItEeh2K8fZaAC63PDUlgLnYAhAAAIQgECeCehEaqUBKFTOynO9ETsEIAABCECgJQJdhcpZNhoApxh+r6XAORgCEIAABCCQZwI6kVppANzwsjzXG7FDAAIQgAAEWiLguOFllhqAH7UUOAdDAAIQgAAE8kzAccMfWWoArstzvRE7BCAAAQhAoCUCjhteZ6cBKN/SUuAcDAEIQAACEMgzAcct32KnAQh/nud6I3YIQAACEIBASwQcN/y5lQagWPlVS4FzMAQgAAEIQCDPBJxi5VdWGgA3fCjP9UbsEIAABCAAgZYIOG74kKUG4A8tBc7BEIAABCAAgTwTcNzwD5YagKfyXG/EDgEIQAACEGiJgOOGT1lqAP7WUuAcDAEIQAACEMgzAccN/2apAfh7nuuN2CEAAQhAAAItEXDc8CVLDYBMnz79tS0Fz8EQgAAEIACBPBLQCdTW5B+X2wnXy2O9ETMEIAABCECgJQKOE65nswHoDqpvbwlAuw/u3Tp6S+nbe723tGP0H3zBAA2gATTQOQ3M2yF6Z7DdwW9qdz+flfPpBGq1ASiV35t6XfRF0RtLQ0s29IeW7OQPRif79ehGvx494dcj4QsGaAANoAHjNLDKq0e/8evRFV49OsqrL/mmNxh9etq0aa9KPYEYdMHuUvm9NhuATYp9H04FZ7Ddnu8PhpbUg3r0I78ePUsDN66BY74woGgADUxWA4/5g9E5/tCS3llR9OZUkolBF9EJ1GoDUCh/PDGc06Potf5gNNevR9/369FLJH2SPhpAA2ggsxr4i1ePTioNRV9KLKkYduJNCuWP220AKnoWp73/BVH0er8eVbyh6B4ae2Yb+2RHCnye0SUayIkGgnp0rTe4ZFZ7M4t5Z9ukUPm01QZgVu8X2krVH4pKfj16iMRP4kcDaAAN5F4DPw52iD7Z1iRj0Mk2mdX7BZsNwIye8KttwTmnvsdH/KHoUhp87hs8o7ycjPJo67T1CWrgBW8w2j8cPCBz75zrBGqzAegq9m7csgHw6ks8v774TxMUAwmCBIEG0AAayJ8G7u5ZtPR/W044Bp1AJ1CrDYAbbjplnPr9UG8oOp7Ez0gADaABNIAGJqCBv/n1SE056Rh2YJcbbmq3Aaj0TAnp/B33eZs/GF0zgQrH6efP6VPn1DkaQAPja2AoWhZF0aunlHwMOqjLrfTYbACcQjh30jj1Sn1+Pbqd5I/jRwNoAA2ggSlq4LSBgeWvm3QCMugAnUDtNgCVBZPCOXcoep9fX/zAFCt8fEeIW4YNGkADaCBfGhiMzguCs18zqSRk0IedQmWB1QagWB6YMM5g0b5v9evRrSR/HD8aQANoAA20RQND0bETTkKGfdAplgfsNgCVrSeEdObWh72Be/40+LY0eEZ5+RrlUd/UdzMNDEXRhBKRYR9yipWtrTYAbnlwQki9wehwOn8MABpAA2gADSSggVXBUFSYUDIy6EOOWx602wCEuzTFqZd09OvRqgQqHWfczBnzdzSCBtBAPjTwRGmHPT/UNCEZ9AHHDXex2QB0F8pL14lz+KG/6CmSP64fDaABNIAGEtbAj23aYlgnULsNQLjfOg2AV4++m3CF4+7z4e6pZ+oZDaCBiWigss6kZNAfuwvhflYbgGLl0HFxlgajGSR/HD8aQANoAA2kqIFH9UJz4yYmg/7QXawcarMB6HLDo8fEqVdp8uvRnSlW+kScIZ9hBIEG0AAayL4GDh4zMRn2S51A7TYAlRPHRDq8wQ+uFwOEBtAAGkADqWvgmZ7B6F1jJieDftnlVk602QA4bvidMXH69ehmRJ+66BnZZH9kQx1Tx2hgAhrwhqI9x0xOBv1SJ1DLDcC5a+H0h5ZsTPIn+aMBNIAG0EDnNLD4T7Oi6M1rJSiDfuG44blWG4BCuGItnH49Oq1zlU6Dgz0aQANoAA1EEgxG89dKUAb9wimEK6w2AMXw+6/AGQ4esJ4/GD2N+OiA0AAaQANooMMauOwVCcqwH5xi+H2rDYBbvuoVSIOhJWGHK5z7YxO4P0Yd0TGjATSQAw28OG/nvd79iiRl0A+OW77KbgMQ3vgKnH49Oj0HosJkYDLQABpAAxZowOTbAI4b3mi3ASjfuqYBeBgDwMgiSxqYvcc+0nvqcgm/d7L0ff8MWZC1r8tOl/C8k2T+sUdIsNueJDULklqW2lcKsRz3iiRl0A+OW77VbgMQ/mI1zjnbRx9LoTLpoOigUtHA3H33l4VXnS21+1fm5+vey6Vy4Skye1eMAH1ZNgYyXj26b3WSMuwbxw1/YbUBKIT3r0bqDy3ppdFko9HkvR57jztS1K8uz0/iX8PkVG9bIdoA5V0HxJ+N/qxnp73fsTpRGfSNUwjvt9oAuOHDq3H6Q9FSGkw2Gkye63H+0YdJ7b78Jv+RGQ911yUye499MQHMuFmvgWBw6fqrE5VB3zhu+LDNBqDbDR9bjdMfis7Kc+IgdvvNz+yle4u657LcjvxHkv/IvwtvOF/8IfvrlbaZ7zoM6lHf6kRl0Dc6gdpsABw3/MtqnEE9+ikNLd8Nzfb6X3DpaST/NW4HzDvmcOtHgLbrkvK33K/utTpRGfSNTqCWG4DnV+P064sfQKgtC5XOtkNTrsFOS6V2N6P/kdH/yL99P/4umuyQJulP29SfDkZHrk5UBn3juOHzlhsAmTZt2qtipH49egzBtkmwdDipJ525yw5h9L/G6F+bAP0wpL8IXdO32asBbzA61aC8P1KUVzluuMp2AzBz5tZvGDEAz9JI7G0kea+7+ScehQEYwwBoExBEe6duyPKuR+JvX18a1KMLRrKuKf/qxGl78tflnzmz9y0jBoBOgpG7tRroPfkYDMA4BmD2Ut4GICG3LyGnzTIYjC43JfGPlEMnzkwYgGDhv2IASPzWJv6RzmjeUYdhAMYxAPr5iBFO/GtvIsxr3RlpAIKF/5oJA1Dq/QAGAANgfYLQ09y8/7/2qof9N51vfd3mNfER97BZM9IAlHo/kAkDUFzwEQwABiATSWLh9ecyC7DGLED5zOMzUbckw/zOXBhpAIoLPpIJA+D2fhIDgAHIRJKYd8jBGIBRBkD94lIJdt0jE3WLAcAAxInKkP/NdHs/mQUDMKNQ+SwGAAOQmSRRuYTFgOI1AO67XOYvZxEgjIP9xsHEGQCdODNhAGb1fgkDgAHIjAHwFy2Rvh99N98zAfetlPJ3js1OndI+c12XRhqAWb1fyoIB6OoJN8AA0MFkq4MZiqT83eNzuS+A3glw3hHLslWftM9c16eJBkAnzkwYgOICBwNAB5PJDka/GVA+4zjRDwdWf35xNt8SuPdyUbevkL4fninzjz9S/B155Y9pf/un/UfXoZEGoLjAyYIBcNxwFgYAA5BJAzC6E+H7bCUF6jM/9blZdetb1t9gUzHp68sbbn5TNgxAxccAYAAwAGgADaABIzVgogH4yoazbsiEASiUezEANHwjGz6jvPyM8qhr6no8DZhoAL66UeHabBiASj8GAAOAAUADaAANGKkBEw3AVzYuXJMJA1Asb4UBoOEb2fDHGxHwe0aLaCA/GjDRAHxtY/eqLBiA7mL4bQwABgADgAbQABowUgNGGoCNCldmwgC45UUYABq+kQ2fUV5+RnnUNXU9ngaMNAAzihkxAOHuGAAMAAYADaABNGCkBsw0AD0/zsYMQGUvDAAN38iGP96IgN8zWkQD+dEABiCUpMxGVyE8EAOAAcAAoAE0gAaM1ICJBuDrXaVM3ALoKlYOxwDQ8I1s+Izy8jPKo66p6/E0YKIBmO5kwwA4bngsBgADgAFAA2gADRipARMNwAaOd3VS0/Ipn/cUDAAN38iGP96IgN8zWkQD+dGAkQZgEz8bCwG54XcxABgADAAaQANowEgNmGgANuwOrkt5pJ7Ug4AXYABo+EY2fEZ5+RnlUdfU9XgaMNEATJ85OyubAV2KAcAAYADQABpAA0ZqwEQDsNGmc36SiRmAYvhDDAAN38iGP96IgN8zWkQD+dGAiQZgw5lzfpoJA+CWr8UAYAAwAM00sCiSOfsdIPOOOFTmH3N4W77mHXqIzN5jH9g3Y8/fc60REw3ARpvOuS0bBiC8GQNAB5PrDmZdo8kg2lsqF50i6q6LpXb/ykS+qj+9UHpPP1b8HZdSD7RFNLCGBow0AJvPvTMjBuAODMAagltXQuBv+Zl6nH/sEaLuuSyRpD+WmajeeqHM2Xs/EgDtEQ2M0oCJBmDjzefdnQUD0O2G92AARomNBJ+fBL+uuu49+Rip3Xd5asl/xBCoX14a32pYV9n4GxrNkwZMNAAzNpt3fxYMQJcbPogBwAAw4hilgbkHHySqA8l/xARUb79Igl32oE5G1UmeEh6xvtLgGWkAZs1/KAsGwHHD32MA6GhINiMaGIqk/8bzUx/5jyT/kX/Dc0+kTkbqhH9zrQUzDUDvIxkxAE9iAOhgct3BjB5xzTvk4I4nf20C1C8uEX/REuqFtpl7DZhoALpm9T6eEQPwDAaATib3ncyICQjPO8kIA6BNgH5NcKRc/PvKaWF45IeHiQZgRqH8l4wYgJcwABgAEk1DA30/+q4xBkA/iEiiy0+io67HrmsTDYDjhs9lxABIEASvmYb4xhYfXPLFZeF15xpjAMLvHo8BwJznXgOGGoBVWTEAs2YNvBkDQEeT+45Gm72+H55pjAHoPelo6oR2mXsNGGgAns9K8tdxbLbZ/LdhAOhoct/RaAMQnneiMQZg7iEHUye0y9xrwDQD8KUNNv1rlgzAppv2vQcDQEeT+45GG4C5Bx1khAFQd10iwRBvAXALLl+34Maqb9MMwPpf3/SJTBmA0vwPYQAwABiAhgYWXt/55wDKZ3H/f6xkwO/yZwiMMwDTN/1DlgzAxj2Vj2EAMAAYgIYG5h54oNTuTX8Z4JFFgKq3XiTBTqwESLLPX7Ifq85NMwBf3mDT32TJAMxwe/8HA4ABwACM0kDvCUdJ7b5kdv8bSfRj/aun/tkQiMQ3ViLM6+8MNACZ2AdgxMR0FcLPYwBGdf55bWjE/crEM//Iw0RvzjNWok7id/03XyBz9twXI0ZbRAOjNGCcAdhws3tGkmcW/u0qLPgKBmCU4EiEr0yEeeYxe9c9pXL+SaJuX5GYEVh40/miX/njoT90l+e2Nl7sphmA9TfY7K4sJP7VMcwKN8IAYAAYdaxLA0NRPDrXr+bNP+bwlr/mHXWYzD3wIAl23wvu6+LO33KvD9MMwFc22Pz21cnTDcX674uVmRgAOprcdzTjjUD4PSNzNNA5DZhmAL48ffOfWZ/0RxuXYrmIAcAAYADQABpAA8ZpwDgDsNGsn2TKALiVORgAGr5xDZ9RV+dGXbCHvSkaMM0AfGXDzW/MkgHodssVDAAGAAOABtAAGjBOA8YZgI1mXZ8pA1AIaxgAGr5xDd+UEQjlYDSMBjqnAdMMwFc3KlybLQNQ/hYGAAOAAUADaAANGKcB0wzAVzZyr86UASiGO2AAaPjGNXxGXZ0bdcEe9qZowDQD8LWN3KuyZAC63PLOGAAMAAYADaABNGCcBkwzAF+dUbwyWwYgXIIBoOEb1/BNGYFQDkbDaKBzGjDNAHxtRvHH2TIAlX0xABgADAAaQANowDgNmGcAejJlAJxCeAgGgIZvXMNn1NW5URfsYW+KBkwzABt0Zc0AVI7CAGAAMABoAA2gAeM0YJoB+HpXKVPPADjF8AQMAA3fuIZvygiEcjAaRgOd04BpBmADp5SptwAcNzwdA4ABwACgATSABozTgHEGoNvP1DoAjls+BwNAwzeu4TPq6tyoC/awN0UDphmA6Zt4mVoJ0HHDizAAGAAMABpAA2jAOA2YZgA26A4ytReA45ZXYgBo+MY1fFNGIJSD0TAa6JwGNu/f5ifrb7Dpk6Z8bThz9g1ZWgfAKYRXYgAwABgANIAG0IBxGggGo8unGfSf44aXZcoAuJUbMAA0fOMaPqOuzo26YA97UzRgmgHocsNMLQTU7YY/wwBgADAAaAANoAHjNGCaAXDcSqZuAXS54V0YABq+cQ3flBEI5WA0jAY6pwHzDED51mzdAgjvwwBgADAAaAANoAHjNGCeAQh/mTED8FsMAA3fuIbPqKtzoy7Yw94UDRhoAB7IlAEohH/EAGAAMABoAA2gAeM0YKABeCRTBsAN/4wBoOEb1/BNGYFQDkbDaKBzGjDQADyZMQPwHAYAA4ABQANoAA0YpwEDDcDTGTMAL2EAaPjGNXxGXZ0bdcEe9qZowDwDUPldxgzA4xgADAAGAA2gATRgnAYMNACZWgeAhYBo9MY1elNGH5SDkTAa6KwGTDMA3YXy0izNAHS5lX2ZAcAEYALQABpAA8ZpwDQDsEmx78OOGz6fERPwkjOr7xMYABq+cQ2fkVdnR17wh78JGjDNAOh9iRw3PCwjBuDYeJ8lEyqaMtDhoAE0gAbQwGgNmGgApk/ve6PjhjdZbgJud5xwPQwAo39G/2gADaABIzVgogHQSbM7qL69261cYacJKF+7cWHeu+Pkr/832nHxPQ4cDaABNIAGTNCAqQZA583PDQy8rrtQ/pbjhn+wwggUwj92Fcrb6nKvTv4YABq6CQ2dMqBDNIAG1tSAyQZgJIlOnz79tc6scCOnEO7aVawc7hTC5aZ86fJ0FSu7dRV7N14r8Y8EsCZ0fqYhogE0gAbQQKc1YIMBGMmj1v7b6Urm+nQ0aAANoAE0sKYGMAAp2Io1ofMzDRENoAE0gAY6rQEMAAbAyKdTO90wuD6dMxpAA1nXAAYAA4AB4BUlNIAG0EAONYABwADQ8HPY8LM+siE+Ru9ooLkGMAAYAAwABgANoAE0kEMNYAAwADT8HDZ8RkfNR0cwglHWNYABwABgADAAaAANoIEcagADgAGg4eew4Wd9ZEN8jN7RQHMNYAAwABgADAAaQANoIIcawABgAGj4OWz4jI6aj45gBKOsawADgAHAAGAA0AAaQAM51AAGAANAw89hw8/6yIb4GL2jgeYawABgADAAGAA0gAbQQA41gAHAANDwc9jwGR01Hx3BCEZZ1wAGAAOAAY2mQnYAABPdSURBVMAAoAE0gAZyqAEMAAaAhp/Dhp/1kQ3xMXpHA801gAHAAGAAMABoAA2ggRxqAAOAAaDh57DhMzpqPjqCEYyyrgEMAAYAA4ABQANoAA3kUAMYAAwADT+HDT/rIxviY/SOBpprAAOAAcAAYADQABpAAznUAAYAA0DDz2HDZ3TUfHQEIxhlXQMYAAwABgADgAbQABrIoQYwABgAGn4OG37WRzbEx+gdDTTXAAYAA4ABwACgATSABnKoAQwABoCGn8OGz+io+egIRjDKugYwABgADAAGAA2gATSQQw1gADAANPwcNvysj2yIj9E7GmiuAQwABgADgAFAA2gADeRQAxgADAANP4cNn9FR89ERjGCUdQ1gADAAGAAMABpAA2gghxrAAGAAaPg5bPhZH9kQH6N3NNBcAxgADAAGAAOABtAAGsihBjAAGAAafg4bPqOj5qMjGMEo6xrAAGAAMAAYADSABtBADjWAAcAA0PBz2PCzPrIhPkbvaKC5BjAAGAAMAAYADaABNJBDDWAAMAA0/Bw2fEZHzUdHMIJR1jWAAcAAYAAwAGgADaCBHGoAA4ABoOHnsOFnfWRDfIze0UBzDWAAMAAYAAwAGkADaCCHGsAAYABo+Dls+IyOmo+OYASjrGsAA4ABwABgANAAGkADOdQABgADQMPPYcPP+siG+Bi9o4HmGsAAYAAwABgANIAG0EAONYABwADQ8HPY8BkdNR8dwQhGWdcABgADgAHAAKABNIAGcqgBDAAGgIafw4af9ZEN8TF6RwPNNYABwABgADAAaAANoIEcagADgAGg4eew4TM6aj46ghGMsq4BDAAGAAOAAUADaAAN5FADGAAMAA0/hw0/6yMb4mP0jgaaawADgAHAAGAA0AAaQAM51AAGAANAw89hw2d01Hx0BCMYZV0DGAAMAAYAA4AG0AAayKEGMAAYABp+Dht+1kc2xMfoHQ001wAGAAOAAcAAoAE0gAZyqAEMAAaAhp/Dhs/oqPnoCEYwyroGMAAYAAwABgANoAE0kEMNYAAwADT8HDb8rI9siI/ROxporgEMAAYAA4ABQANoAA3kUAMYAAwADT+HDZ/RUfPREYxglHUNYAAwABgADAAaQANoIIcawABgAGj4OWz4WR/ZEB+jdzTQXAMYAAwABgADgAbQABrIoQYwABgAGn4OGz6jo+ajIxjBKOsawABgADAAGAA0gAbQQA41gAHAANDwc9jwsz6yIT5G72iguQYwABgADAAGAA2gATSQQw1gADAANPwcNnxGR81HRzCCUdY1gAHAAGAAMABoAA2ggRxqAAOAAaDh57DhZ31kQ3yM3tFAcw1gADAAGAAMABpAA2gghxrAAGAAaPg5bPiMjpqPjmAEo6xrAAOAAcAAYADQABpAAznUAAYAA0DDz2HDz/rIhvgYvaOB5hrAAGAAMAAYADSABtBADjWAAcAA0PBz2PAZHTUfHcEIRlnXAAYAA4ABwACgATSABnKoAQwABoCGn8OGn/WRDfExekcDzTWAAcAAYAAwAGgADaCBHGoAA4ABoOHnsOEzOmo+OoIRjLKuAQwABgADgAFAA2gADeRQAxgADAANP4cNP+sjG+Jj9I4GmmsAA4ABwABgANAAGkADOdQABgADQMPPYcNndNR8dAQjGGVdAxgADAAGAAOABtAAGsihBjAAGAAafg4bftZHNsTH6B0NNNcABgADgAHAAKABNIAGcqgBDAAGgIafw4bP6Kj56AhGMMq6BjAAGAAMAAYADaABNJBDDWAAMAA0/Bw2/KyPbIiP0TsaaK4BDAAGAAOAAUADaAAN5FADGAAMAA0/hw2f0VHz0RGMYJR1DWAAMAAYAAwAGkADaCCHGsAAYABo+Dls+Fkf2RAfo3c00FwDGAAMAAYAA4AG0AAayKEGMAAYABp+Dhs+o6PmoyMYwSjrGsAAYAAwABgANIAG0EAONYABwADQ8HPY8LM+siE+Ru9ooLkGMAAYAAwABgANoAE0kEMNYAAwADT8HDZ8RkfNR0cwglHWNYABwABgADAAaAANoIEcagADgAGg4eew4Wd9ZEN8jN7RQHMNYAAwABgADAAaQANoIIcawABgAGj4OWz4jI6aj45gBKOsawADgAHAAGAA0AAaQAM51AAGAANAw89hw8/6yIb4GL2jgeYawABgADAAGAA0gAbQQA41gAHAANDwc9jwGR01Hx3BCEZZ1wAGAAOAAcAAoAE0gAZyqAEMAAaAhp/Dhp/1kQ3xMXpHA801gAHAAGTWAMzZ7wApf+dYqXzvZFlw8alt+aqcf5L0nnKMzNlzX2u5BTstlXlHLpPwrBOkclGbuKw4VcKzT5D5yw+XYJc9rGWzRbSrHHn8dnLOWd+Siy/4Rlu+zj/nm3LiqdvKov13lGCoeadsYuKavWix7HTAIjnp1G3kgnO/2RYumu9ZZ20thx+3ndSiXa3VjIn1NdEyYQAwAJlreDq59d/yPandvzLRr4XXnitzDzzQGn7BzkslPOcEUfdcmigX9avLpXLByTJ71z2tYbPd3jvJdSsH5Om7ehP9euCmPjno6O0lGFpsBRttWA5dvr08+JMFiXL5y529cvVlW8jWe+5sBZeJJljTP4cBwABkpsEFQ0ukcuEpiSa3tUzFvSul9/RjjWc4e499UjFFo/lUb79I9CyM6Z2gTnBP3lFONMGtaSyuWLGlzN9pd6PZ9O60u1x1WfKmaDSbJ24P5cCjdjCai+l6nkz5MAAYgMw0tsqKU9NN/qNmGMqnLzeWY7D7XqJuX9ERNuoXlxp9u2S/I3cQPfocnYTS+l6PeE29JaCn/K+7PN3kP8Jd18f+Rw0a254mk2BN/ywGAAOQiYY2f/kRHUlwq0e8966UOQeYeTug78qzOsqm/6bzxTfw3vdWS3dOfeQ/kuRG/j3upG2NbH8nn75NR0zRCBc9EzCwmOcCkjYQGAAMgJEd0GSEr6f+q7dd2NEkp43AwqvPNo7lvGWHdJyLZjP/uCOMY/ODFVt2NMnpZPeHn1WkvItZtwL6dttNHrst7Dgb/ZDgZPoBPjv5B0wxABgA6xuZKUlOJzp9r92kjmjB5d8xwgCYZo70/e207/uPjG7X/PfgY8y6563fglizjJ34+fHbQ5m3ox0PS5rU5idTFgwABsCohDUZ8Y58NjzvRCOSnDYAvScebRTP6p0Xm8Hm3svF33GpMWz2WFY3IsnpxLryoq2M4aLb1JWXbWEMm90OGjKKzUifk5V/MQAYAOsbWN/3zzAjyd2/Mn7NzpTOQb/vr02JKV+zl5qzdsLRJ3zbmCR3yw+VUW3w51dVjWFzyPLtjWJjSttuVzkwABgA6xtYpx9yG51gKxedYgzP2dFexiR/zWju/uY8JNnph9xGT6n/8tqFxmhGJ5YHblxojAE47uRvG8WmXYnXlPNgADAA1jcwDMDYD/8E0d5mGYADzFkT4JQOP+WOAZjYq5fHn2zmWxKmJPBWy4EBwABgANo4TW7SDAAGYGxjpDtNDMD4bEyaAcAAjF9PrSZ/fTwGAAOAAcAApDJTMJcZgDGn1rkFMP5sAAYAA5BCik72Eu1wapxj/IbALYCx2TADMDYX3ZaYARifDTMA47PJWj/MDECyuT8+e9ZEY1o8GICxOywMwNhcMADjc9FsMADr5mNa/9dKeTAAGABuAXALgFsACe8COPqhvzW/5xYAtwBaSeKtHIsBwABgADAAGAAMwOp+gBkAZgBSSIv5uUQrDo1jmzdGbgGMzYhbAGNz0W2KZwDGZ4MBGJ9N1vpjZgBS8CFZE41p8WAAxu6wMABjc8EAjM9Fs8EArJuPaf1fK+XBAGAAVk/9tSKkTh6LARi7w8IAjM1Fa5UZgPHZYADGZ9PJfi6Ja2MAMAAYAJ4B4BkAngFY3Q9gADAAKaTF/FwiCefGOV9upMwAvMxitC6YARibi2bEDMD4bDAA47MZ3b6y8D0zACn4kCwIxeQYMABjd1gYgLG5aC1jAMZngwEYn43J/eBUyoYBwACsnvqbioBMOAYDMHaHhQEYm4vWLAZgfDYYgPHZmNDftbMMGAAMAAaAZwB4BoBnAFb3AxgADEAKaTE/l2inY+NcazdOZgDWZqJ1wgzA2Fw0G2YAxmeDARifTdb6X2YAUvAhWRONafFgAMbusDAAY3PR+j359G3G3JlvzWV60/iZpYDHXwr4uJO/vXpmwrR+JwvlwQBgAKxvYH3fPyOVKezaBG4VhOecYAzPYKelxnDR7GbvsY8xbI4+YTtjDMAtP1TGcNFJ7edXVY1hc+jy7Y1ik4WkPzoGDAAGwPoGFp5/sjGJrveko43iWf3FJWawuXelaEMyuvPp5Pd7HT5oTJL7wYotjeGi6+SqywaMYbP4kCGj2HRSs0lcGwOAAbC+gc077FAzktz9K2XOnvsaxXPBSjNmR/quOccoLuEuu8lTPy8bkegOMWyUe/QJ3zaCyxO3h9K742KjdJNEEu7kOTEAGAD7G9iiJVK9Y0XHTcDC6881juW8I5Z1nIue/u890ayZEd3p/vjSLTqe6B67NZQFu+5mlG6qu+8mj9/ReXO08qKtjOLSyUSd1LUxABiATDSy+ccf2dlEd9/lMvfgg4xkufDaczvKpnrL9yQYWmIcm6333Fn+1OFZgJNP29Y4LjrZnHnmtzpqjp68oyxbLt3FSDZJJeNOnBcDgAHITCNbcPl3OpbowrPMefhvzY5k9pJ9RN15cUfYqHsulTn77G+sxpYdu33HEt2NP6jJnCEzp7jnLFost/yw1jE2y47bzljNrNm+bP4ZA4AByExDC3ZcIgsuOz3dRHff5RI/+T80/itnJnQQOglXb7soVTbVOy+WuQcdbLy+jjtpW/lzyjMB164ckPIuuxvNRt+a+MkVKlUToGdkjjye5J9Wn4EBwAAY3QlNpSHMP+4Iqd6efLLrv/kC0Q8gTqWMnThm9q57SuXCU6R27+XJGoH7VsqCS0+T2dHe1rDZ6YBFctuVyb/+9rufVkQ/ZDd7kZkj/zV1qWco9Lv4v/9ZJXEjoF+HHNpvR2s0syYrG3/GAKRjAFbZKA6by6zvOc899BAJzz4xnhVY8P0zpC1fl54u4XePl7kHHCC+4aP+8eov2G0v6T3uSKl872RZsPI77eGy8ozYXMw/8WiZHe1lbSe+/d47yYmnbiuXXLCV/OiSLdvytfKiLeWss7aWJYcOybwdzR71j6eZ+TvtLnssq8s5Z31LdDztYnPxBd+QE07dVrbdaydrNTMeMxt+jwFIxwD8zQYxUEazp/GpH+oHDaCBtmpgMDovhRSY70v49ejRtlZanUYATzSABtAAGmhRA4PRyfnOzilE79Wj+xBqi0LF9DBFigbQABpoqwa8wejwFFJgvi/h16MbMQAYADSABtAAGjBJA149WpLv7JxC9H49Os2kSqcsdEJoAA2gATQQDEbzU0iB+b6EX492pbHR2NAAGkADaMAkDQQ7LP1cvrNzCtH79SWBSZVOWeiE0AAaQAO518Cq3q2jt6SQAvN9ibnb7/lBGlvuG1tbH95BT+gJDaCBVjQQ1KOf5zszpxi9Pxjd20plcSyNHQ2gATSABtqmgaFoWYopMN+X8oeiY9tWcbwKw2gaDaABNIAGWtCANxQV852VU4zeH1ziYgBw72gADaABNGCABp7l/n+KBiCIotf79egxAyoe19yCa6b+6LzRABqwXgND0Vkppj8upQn4g9GR1guH5ImBQgNoAA3YroHNycopE/CGos9jABg9oAE0gAbQQMc0MBQ9MjCw/HUppz8upwn49eiKjlU8rt1210750TAaQAOtaWBoyQ5k4w4RKA0t2RADgPtHA2gADaCB9DWw+PHC0H7/3KH0x2U1Ab8eXZ1+xdPYYI4G0AAayLcGFu9MFu4wgWDR0v/x69GL+RYiHRH1jwbQABpITQOD0b19UfTGDqc/Lq8J+EPRstQqnntmrd0zgx/80AAasFwDXj3alOxrCAG9CINfjx7CBDACQANoAA2ggUQ1MBSdaUjqoxgjBIKh6It+PXo+0Yq33LXCho4RDaABNDB1DXj16L5g0b5vHck7/GsQAX9oySLEPXVxww52aAANoIFxNfBcsMPSzxmU8ijKGgRe5Q9FZyLgcQXMvUdmcdAAGkADk9fAKm9oyYI18g0/mkZAr8oUDEaXYwIwAWgADaABNNAWDQwtWWRarqM84xDQizP49eimtlT85J0i7hpmaAANoIGMaMAbig4aJ9Xwa1MJhIMHrOfXo8swAYwA0AAaQANoYEoaGIz2NTXHUa4mBOJtg3kmgJFIRkYiU+rAiB39o4GpaOCloB4NNEkx/NkCAq8K6ku25RVBRgAkUDSABtDABDTwqF+PHAtyG0WcKIHSDku/4NcXPzCByp+KW+QYRhloAA2gAcs1ENSjH5W+vdd7J5pX+JxFBOLnAgajfdk7gFEARhANoAE0MEoDT+qZ4iiKXm1RSqOoUyEQ1KPPsIsgjX9U42fkZvnIjbqkPU9RAy969Wh5z057v2MquYRjLCYQLFr8Vb8erZiicEgaJA00gAbQgJ0aeN4bjE716nv8p8UpjKK3g4A3FH3er0dH+PXFj2MGGEmgATSABrKpAa+++Bd+ffHOc4ei97Ujd3CODBHQrw0GQ1HBr0fHeEPRPXQC2ewEqFfqFQ3kRgMv/uOJ/uv9erSXHuhlKF0RStIEgu32fL9fXxIEg0t20dNFDSHd79ejP/j1xX+lE8lNJ8I0r53TvNRbPurtKb8ePezXo7v1U/x+PTraqy/ZTr/Kp1eFTTpPcP70CPx/kKPuVvDPVpQAAAAASUVORK5CYII=;" vertex="1" parent="1">
          <mxGeometry x="-90" y="620" width="114" height="114" as="geometry" />
        </mxCell>
        <mxCell id="lAoFFa3lUKe8nC0rTrzX-4" value="" style="shape=image;verticalLabelPosition=bottom;labelBackgroundColor=default;verticalAlign=top;aspect=fixed;imageAspect=0;image=data:image/png,iVBORw0KGgoAAAANSUhEUgAAAgAAAAIACAYAAAD0eNT6AAAAAXNSR0IArs4c6QAAIABJREFUeAHsvQlYFFfa9z3vO+/7fM98X673+Z5kMiaTicYkJlGTTBI1RmNi3FncpYHGDQREUSK4oQgEjWuMGOMWV3BH1kYQGlARZAdpcIv7GjPZZjIzz8zkiUm83+suPFhdVHdXd53e71yXqaa6qvrUr6vP/3+W+z6/+hX9RwSIABEgAkSACBABIkAEiAARIAJEgAgQASJABIgAESACRIAIEAEiQASIABEgAkSACBABIkAEiAARIAJEgAgQASJABIgAESACRIAIEAEiQASIABEgAkSACBABIkAEiAARIAJEgAgQASJABIgAESACRIAIEAEiQASIABEgAkSACBABIkAEiAARIAJEgAgQASJABIgAESACRIAIEAEiQASIABEgAkSACBABIkAEiAARIAJEgAgQASJABIgAESACRIAIEAEiQASIABEgAkSACBABIkAEiAARIAJEgAgQASJABIgAESACRIAIEAEiQASIABEgAkSACBABIkAEiAARIAJEgAgQASJABIgAESACRIAIEAEiQASIABEgAkSACBABIkAEiAARIAJEgAgQASJABIgAESACRIAIEAEiQASIABEgAkSACBABIkAEiAARIAJEgAgQASJABIgAESACRIAIEAEiQASIABEgAkSACBABIkAEiAARIAJEgAgQASJABIgAESACRIAIEAEiQASIABEgAkSACBABIkAEiAARIAJEgAgQASJABIgAESACRIAIEAEiQASIABEgAkSACBABIkAEiAARIAJEgAgQASJABIgAESACRIAIEAEiQASIABEgAkSACBABIkAEiAARIAJEgAgQASJABIgAESACRIAIEAEiQASIABEgAkSACBABIkAEiAARIAJEgAgQASJABIgAESACRIAIEAEiQASIABEgAkSACBABIkAEiAARIAJEgAgQASJABIgAESACRIAIEAEiQASIABEgAkSACBABIkAEiAARIAJEgAgQASJABIgAESACRIAIEAEiQASIABEgAkSACBABIkAEiAARIAJEgAgQASJABIgAESACRIAIEAEiQASIABEgAkSACBABIkAEiAARIAJEgAgQASJABIgAESACRIAIEAEiQASIABEgAkSACBABIkAEiAARIAJEgAgQASJABIgAESACRIAIEAEiQASIABEgAkSACBABIkAEiAARIAJEgAgQASJABIgAESACRIAIEAEiQASIABEgAkSACBABIkAEiAARIAJEgAgQASJABIgAESACRIAIEAEiQASIABEgAkSACBABIkAEiAARIAJEgAgQASJABIgAESACRIAIEAEiQASIABEgAkSACBABIkAEiAARIAJEgAgQASJABIgAESACRIAIEAEiQASIABEgAkSACBABIkAEiAARIAJEgAgQASJABIgAESACRIAIEAEiQASIABEgAkSACBABIkAEiAARIAJEgAgQASJABIgAESACRIAIEAEiQASIABEgAkSACBABIkAEiAARIAJEgAgQASJABIgAESACRIAIEAEiQASIABEgAkSACBABIkAEiAARIAJEgAgQASJABIgAESAC3kNAo9H8evzURWUTQhfpvOeu6U6JABEgAkSACHgxgcBpCUkjgub8PHLSAsB/PkGxPwVGJMzzYiR060SACBABIkAEPJdAYGTKUH9t3Pf+E9uEnxkA3OI+36DY/wqOXt7fcwnQnREBIkAEiAAR8CIC4eGpj46ZvKDVL2Se0OIXC7/0tZ92LuCxmuiUR7wIEd0qESACRIAIEAHPIjAhbHGGT3DsfanQW/p7RFDs/YCwhD2eRYPuhggQASJABIiAhxMIjEqZ4RsU+6Mlobf0vk9Q7H9rI5ZqPRwX3R4RIAJEgAgQAfcmMDF6WR+/4Lnf+j+Y4GdJ4JW87z9xPuA1Q6ISu7k3HSo9ESACRIAIEAEPI6CJj/+PtnH+uRbH+ZWIvtwxPto4GDc1vhxDCD0MH90OESACRIAIEAH3IxAQlrBjROAcq8f55UReyT6foNhfNBFJq9yPFJWYCBABIkAEiIAHENCGJ0X4cBjnVyL6csdg2KA2InGwB6CkWyACRIAIEAEi4PoEQiJTXhsVMu8ujs3LCbMj9/ljaGHI/JthMSsfd31yVEIiQASIABEgAm5IAGPzx0yOr/MNjlMt/KMmL4TE1WkQMfcj1ddCw+ETFHt/fGh8oRtipSITASJABIgAEXBdAoERCVtHBFofzy/XGzBzYSroipugvvk2VNRcEYwAGgK5Y63d5xMUe08bmRjjuiSpZESACBABIkAE3IBAUETSFN+g2H9ZK8Ryx2tnLIWdB8qg7vQtQfzRALB/+frTgMZA7jyr9z0IG9SEpfRwA8RURCJABIgAESACrkMgNDblGRxb9w9RP84/LnQxrNpwCKrqrrULPhN+6XZ/diVMjF7GxQj4srTCmrjfuA5ZKgkRIAJEgAgQARckoNFk/hvG2vtq1Y/zY8t9bvIWKD15voPwHz3WCrFJm+H9hE/haFmL0ftVDddh7eYsGDt1ERcjgGGDgeGJqS6Im4pEBIgAESACRMD5BDThCct9gmLbl+m1uutdlP0PJ/dlFdQZCTu29k9WX4Zlqfth9JT4dnEfMyVe2FdZd9Xo+LKK85Cwclf7cWrKg+diWuGgiMTxzidNJSACRIAIEAEi4AIEgqcn+2NMvVqBxfO1USmwdU8x1J2+aSTmNU03hf2BkckmBR3f27iroMO5h3U1MC12jcnzrCm3sCJhyPybEXNWdHIB9FQEIkAEiAARIAKOJxA2d93TOM7vxyGe31QrHlv9h3TVEDZnlWIBj5y3FrIL6o0MRO0DAxFkxkBYYwQwlBGHOhxPnT6RCBABIkAEiICTCGAufYyZ9+EQz4+ii+P8xeVnjQQbhZ+N81sjzOxYDAtcuGxbh/kDckMI7Bxbtj5BsT8FRiTMc9JXQR9LBIgAESACRMAxBILClySPCJrDZZw/9P2VcCCnsoPw8xRpjCDACYHVjTeMPgfNxZwlGxX3KpgzB/4TFwAOgQRHL+/vmG+BPoUIEAEiQASIgIMITJyeMtxfG/c9ip05MVTyniYySRirx255cRifknF+JdeXOyZk5jIhh4D48/A1hg1OmvWh6nvCz/RjYYPRKY846GuhjyECRIAIEAEiYB8C4eGpjwrL9GrnqRZJnLmfvCYdyqsvGQk/CrG14/xyIq9k3+yEDVBQ2mz0+dUN1yF1mw7GTUtQfY9YhhFBsfcDwhL22OcboasSASJABIgAEbAzgQlhizMwR74SYbV0TIwgvAYj4UXhVzPOb+kzTb2P8wMwPPCExIgcq7wg7OeYVvi/tRFLtXb+mujyRIAIEAEiQAT4ENCGJyz2CYr7yZSAWrN/SswKSMs40UH4eY7zW1Me8bEBEYlCy7+m0XgoIvdoI0TNX8elNwBXPPQLnvttSFRiNz7fDl2FCBABIkAEiABnAhOjl/VBsfIXJeQRC6Y1r7E7XW7ynT3H+a0pn/jYqTKTEXG9AVx3IHC66bwD4mtYeu2jbQsbxAgKzl8bXY4IEAEiQASIgG0ENPHx/yGM84fMVd3qbe9eP+W8cX5LYmzqfblwxIraK8I6BGOmPsw8aOp8JfsxrbAmImmVbd8UnUUEiAARIAJEgBOBgLCEHThpTYl4WTpm1qJPAFflk860d8Y4v6WymnrfVEKiouNtaw+YOs/a/Rg2qI1IHMzpa6TLEAEiQASIABFQRkAbnhThGxj7o7XCJXc8C7GTLtPrCuP8cuVVsu9hSmLjpYcxWgHzFyi5hqVj/EPmAWZSDItZ+biyb42OIgJEgAgQASJgI4GQyJTX2sb5+SzT6y7j/JbE2NT7QlrhwgajXg2cx4BrDkyYtoSLEcBIC8ysaONXSqcRASJABIgAETBNQBOd8siYyfF1mMPelNgp3d+eZrei4zK9jornV1pWHseZut9jpz4X8hpwDBu8p41MjDH9LdI7RIAIEAEiQASsIKAJW7LNJ2gOl3F+uRaxs+L5eYi7NdcYHyYf2ZBX3AQzF/IJGxz5IGxQE5bSw4qvmA4lAkSACBABIvCQQHBkSqhvUOy/rBE5U8cGz2DL9BqPibvzOL+pe7W0n815EE92ZGGDwdM/UN3Dgp/vy9IKa+J+8/AbpVdEgAgQASJABMwQmDZz1bM4ucw/RP04P4a/LUvdD6fqrnYYB9+6pxgCOS2va0l0XfH92YsxrbBxdsNT9deE/Adjpy7iYgQwbDAwPDHVzNdNbxEBIkAEiIC3E9BoMv8N16j31aof50fBxbj4kvJzRsKPrV5PHOe31WCw9Q2kaYX1J84KyxHbel3peT5Bsf8dFJE43tufcbp/IkAEiAARkBAImJbwqW9Q7C9S4bDl74i5H0HmkdoOwu9O8fy23Leac0ytcJihq4GwOau49Ab4PQgbjJizopPk66c/iQARIAJEwNsITIpMGY1JZdSIFztXE9G2TG/daePc+O48zo+hepjzn/3jFbrHmEm3mCPgQO4pI/PEwgYDwvmEDWIkB/b0eNuzTvdLBIgAESACv/rVr8Lmrnu6bZxf/TK9LPtdRa1njfMvXrETpMmJ8O/t+0qB12Q9qQFgf+PwiV4yfHKy5rIwn2LUZG5phX8KjEiYRz8IIkAEiAAR8AICuJgMJo3xCeIzzv9+wqdwtKzFqMXqCeP8QZHJUFV3Tbgv6QRGvL/Kuquw4pODgOaHiTbvrakJlJguOTp+PZfP9Z+4ALAHKDh6eX8vePzpFokAESAC3kkgOCIxxSdozs88hApXwNufXdlB+D1lnH/99jzh3nASIxuflw5toBEoPn4GYpM2cxFjU9+LqRBK5D8xehmXz/ZjYYPRKY9456+D7poIEAEi4IEEJk5PGe6vjfseW3umREbpfhwLT92mg5pGzxnnl947hiayVj/eK3sfJzfmHjVO64smAP+hGE+e9WH7sewcntvp8z+GnKP1RqarquE617BBXNgpICxhjwf+DOiWiAARIALeQ2DatJTfj5604KKfVv04P1umt7zqopEA4QQ1T4rnHx+2BNIzyoV7RHGVzsBHDskf7QEcj2fiz7bVjTdg7ZZsGBe62G5GgH0PxyXfQ1nFBUhYuYvb52LYoDZiqdZ7fi10p0SACBABDyEwIWxxBi4Sw6MF2pawprmD4HliPD+Kd+LqNCFHP6YtNsUPIx62phd1mCSIZqC04jzXGH65MphKK3xYVwPTYteYLLfctUzt83+QVjgkKrGbh/ws6DaIABEgAp5LIDgiKcEnMPYnU5W6Nfsnz14OaRknOgi/u43zY6s5Zsmnwux9vJ8NO/IB91nDwtSx2C2PufxZL4B42ybGq2U/B+cVmLqmNfvlviOWVhgnMlpzLVPH+mjbwgZxAqnn/nLozogAESACbkpg8vSkvm3L9Kof5zfVunS3eP5x0xIg5eO9gIZFLMzYVY9zGUwJnrX7zQ0L1D5Y+jcg3PjzcG4BzzkDMQkd0wpX1FwRwgYx26C19yR3PKYV1kQkrXLTnwgVmwgQASLgWQQ08fH/MWbyglYhy9skdeJvanzZ3cb5p8xaDp/uPALivASYc/+jTVkQteBj0EalcBFEqUiaGxbAVL9Ja9IhZOZS2HP4hDBxj1cvBCsHSytcXn3JyPCgAZqzZCO3e8awQW1E4mDP+iXR3RABIkAE3IgAz3F+FEa5Ge7uNs6PLX7sAsd/WPYlq3YDhtExkXTEFlmaGhbYl1UBaFDsWQ5TYYsYqTCJU6SC/4O0wmExKx93o58MFZUIEAEi4N4EQsKSpvsExf3IQ0S0M5bCzgNlHSazuds4P7Jg4o+hchiyx4OPLdfArn3pWgi8Z+krKZfcmgzVDdeFME6MdlByDUvH4ERTTCzl3r8oKj0RIAJEwMUJaCKW9Wob51e/TC/Odl+14VB7tjs2Ru5u4/xMoDA0D1v9ezLL7Zqdj32e3BbnTixffxBQZBlPnG/w8eZsGGvH0EC5soj3ya3KeKyyLWyQ1zCET1DsPW1kYoyL/4SoeESACBAB9yKgiU55ZMzk+Dpf7VwurTYUhNKT59tFCsXK3cb5xQKHrw/n1wj3g4vpSN+z9Df2gmBKY/Zv1qJPbMqwdyi3yogpdrnbu7vf0r2x99GAoOFjCY6YQck92ghR89dZzYxd12j7IGxQE5bSw71+YVRaIkAEiIALEggIS9gxIpBPPD92CWcXGmeSQyFwt3F+I9F5MPGRGQBMUSz3vnQfTphDod+4s6CDKDJxxGEQnDiIE/ek58v9vWjFTiFsMi3jOMz9YIuic+SuY899ckM+7WGDUXzCBtGo4sRUjSbuNy74k6IiEQEiQARcm0BwZEqob1Dsv3iIAc56x2x90lz27jjOb4oHW0J3b+ZJQdjljsO8+fHLd8CG7TrAWflM6HGLPSLb95UInJAV+5db1CAc66qCLnefSvbJTfqsqL0i9BLgIkRKrmHpGAwbDAxPTHXtXxqVjggQASLgIgQmzk56ZVTIvLv+IerH+dkyvbhynVjs3HWc35zgRC1YBziujffJWrQYa4//UPCx5wP3Mw64lgGm/F368T6YuXCdycRAY6cuAoynx3+OjiYwd7883mNhnydOGZuhouOtXBc4wrTCQRGJ413kJ0bFIAJEgAi4FgGNJvPfxk2NL/cJ5jfOX1x+tl3wUPjcfZzfkujhIj447s5EXrpFA4A9BNgLoDQTX1BUMuBEPrwW9phIE/pYKpM7vI8Jk9Zuzmq/T8YNh4ZsmVMhd89CnoqQ+Tcj5qzo5Fq/PCoNESACRMCJBAJCEzZhd6lcxWntPqywD+R0FEFPGOdXygLT4+L4/vyUz4QQRwxzXL3xsNWT3XCewME844l9C1I+49I9rvReHHnclJgVHQwUmsaNuwpgwjQ+YYO+wW1phZ34c6OPJgJEgAg4n8CkyJTRmFWNRyXPkr9g6lnWgmOtVnuvV8+j/K52Dcyjj7n8xSw3pxV6rPiL+WM0RGFZi9G9Hzv1ubBAEsewwZ8CIxLmOf9XSCUgAkSACDiQQGhsyjMjQ+bfFLKpqUzfayr9qyeO84tFyp6vcYIcruhnJP67j5qcJ2DPsjjr2mz+iDidMvLADIc4Z4JHufwnLgA0wMHRy/s78OdHH0UEiAARcDwBXE0Ns6b5BMdxqUDlFoDx9HF+HsJj6ho4fLJpd2GHsfDNXib+Yj64vgEOAYgjSHAuBa6qGDJzGZfn2I+FDUanPOL4XyV9IhEgAkTAzgSCIxJTfAJjfxZXrra+xrFauWV63W2cH7uTMW0u/sP4dFt52HIe9pzg52J3Ny4chDPfxS1+HErZffAYt9auLWV0pXMwh0RWQZ0Ro1P114TJgxgpwaOsI4Ji7weEJeyx80+RLk8EiAARcAyBiZHJvrzG+U3N1nbXeP5te/XtgoKtShRcpUl31ApOhmR8n4k/ZsrDHAC8Fs1RW05XO18ui6T+xFlYuGwbFxOA94thg9qIpVrH/ELpU4gAESACnAlMm5by+9GTFlz0C1Ef1mcqXtvdx/lxZj7G1zPxxS22Kld9mgG8WpWmBBQXDsIeE/yHy/NiRsD4D7c7NWe/qbK62n5T60igqZoWu5qLEfB/kFY4JCqxG+efJl2OCBABImA/AjyX6cVwtnz9aSOR9KRxfoxewGQ9LNaemQHMYcCzVelqIuoJ5cHeGulKkixskFe+BB9tW9ggzp+x3y+WrkwEiAARUEkgOCIpwScw9icelTtOsJJWriiO7jbOr5QFxu5jS5wZALbFnAZTY5Tl9zf3WdhqxVY/LoiD/2YnbODSUjX3md7ynpxJZb1ToybzSyusiUhapfInSqcTASJABPgSCIxMGeqvjfveX2VIHwoGCpVcVjZ3Hee3VgRnxqdC7tEGIyOAaXuxlwDnQFh7PTweEwJJVz/EjIG2XIvOWSDLjQ1TlVddNPrusPcqOn697Dm2sMT5NNqIxMF8f8F0NSJABIiAlQQ08fH/gaueCWlOVYo/VqDY5S2NP2ctKZy1bkuF6QrnjA9LgICIROGfkvIgCxyPLyk/ZyQmxys/h4QVuxTH42O0BFskiPUo4Baz++HCQErKQsfIC74pLtj1j2YNTZuYORouXsyF/Bkh82+Gxax83MqfLB1OBIgAEVBPgOc4f+S8tZBdKGn1Nt0UZqNjfntTla0r7sdKflnqfvhsTzHsy6oAnCEuXYQHW+PZBfVCKGPqZ3mArX4Ufen9YDKa5DXpHVbuyysyv4b9WBO9KJjdLi55c4fPkX4u/W2d6MvxwmEb6boMVQ3X28IGQxdz+Q58gmLvY14N9b9mugIRIAJEQAGBwKiUGb5BsT/KVXrW7sPV5dqW6X24Sh22mtxxnD9werKwnK5Y7MUtQEuvC0qbYfGKnYCiL+UoN1EQPwfnSODnio+XC1Mrqzj/II1tx2uLz6XX6oVfyhDzLByVpBUuq7gACSt3GX1v0vOs+dsnKPaeNjIxRsHPlw4hAkSACFhPQBOxrJdf8NxveYzz43rr2ErGmHOxMLrrOH/YnFUdhi7wvlCkcQz4k206oUt/+vyPhQl9U99fCe8nbhQyzEmXKsbZ/zipTE4AcKIgLuErZoZDJClr9wmr1km7+/G9FZ8ctHtIoVxZad9DM2EqrXBmPoYNrpH9rq3m9yBsUBOW0sP6XzedQQSIABGQIdA2zh9f56tVH8+PlRq2UKVj2+46zo9L5W7YkQ/YtctEWQhRTC8SVt5TsoIcDnHgUAE7H7d4jbkfbDUpDJirP7uw3ugco/Mb21aw4xWKZrUYqZwP4qmfZyqtMPbk4OJLPO4bf6c4L0ejifuNzM+ZdhEBIkAElBEICEvYMSJwzn0eFROmUs08UmskWu4azy8n/NjaxzA+nHhnLS826U88g7y64Trg3AhT12qbNLld6GHQl58D9m/7vlKYyClHvanPpv0PW/e2sMDfgtTAYUIo7BXjNdkVl9cODE9MVfZLp6OIABEgAg8IBEYmTcN0pLZUbtJz5Fo92Fp1x3F+bFFLW/wo/NiCx0pdeu/W/o3CfeLUpXaThGPFvFqG1paFjlcn8pb4tRm4bR3CM4VhsMRNqp8l9vn4Ow6KSBxPlRsRIAJEwCyBibOTXhkVMu8upiFlFYitW1Pjnu46zo8VtjQjIc7m5yH8YsYfbcpqNwBolNZszlL9XYivT6/tK+zW8jWV9wIjCHCxJmuvJ3e8EKYbMv9mxJwVncxWAPQmESAC3kdAo8n8t3FT48t9gvmM88vNfHbXcX5xhbr8k0NQXv2whY4CjcMa5rrqxecreY1hhOLx/Iy8ai4ioOSz6RjnmQOWVlj83WMuAVyKeHzYEi7PgG9wW1ph76vh6I6JABGQJeDvH919yLiZv/Cq/FdvzDQSMKzQjlVecNgqd7zuw9R1cEgDY/yx659V1vgaJ3LxWMlv1uIN7dfF629OK+RS+Zu6H9rvPNGXY48pmgtKDUbPAA4FxS/fIZsrQu4alvaNCIz9KTgsOU62QqCdRIAIeA+BYSOjhjzWuTe8+nYA+HGc6S9NPXvs1OcPYtE7JryxVGG54vszFqTCkZJmo4paSPSyJdvmlL14n1vTi9qvicYJcyW44v1TmexnHHC4CfMEiCeFohnMPdoIUQvWcXke/CcuAEwrHBy9vL/31HZ0p0SACBgRGDRmet//fLoX4L9Oz/WDPkMnA1YOait4zEaHi85U1V1rFzSsxDCLHYqn2uvzPj8gfIkgvmkZJ4QMfTjZL3j6B2bLiTO2P0w9ANJYfjQ7iavTrG6xYVZA1quAW+wN4H2fdD31z7ajGGL6aGlaYdbbhJEoPMqBpl8IG4xOecSoYqA/iAAR8HwC7/iG9WAGgG279BwM742ZwaWCYWObcl3mvCoxHhWhdsZSwFz7YgE+VX8N1m7JBkvx/NhKT8s4bnQuXgcnDc5WKOJS8d+beZILfx5s6BrONQ2YOApXhRQ/mxW1VwSDPXbqIi7PyYig2PsBYQl7PL/GozskAkSgncDwMWFPM+GXbl94ww+Gad7nUsFgdjtMdyuuxLB3AFf+41WJqRUqnIAnzd+O5T1RfUmI0cYMhuY+I2bJp1B8/IzRPeL5+7IrACtxuXOxpwTnFIi5YBlwASG542mfc8XYmfwxiRZmihQ/K0XHW7mu74Bhg9qIpdr2CoJeEAEi4LkEXhng/59S4Rf//ViXPvDHdwLBN0R9hAAb20RBtWclpraSlsunj+XFlQpxcR5za7yjmcHQverGG0b3iEmPcEY3TiJk5UNTIDZF2OOwYsMhs9dn59LWO40AC6+VDjthXo3QOavany01zweGAWPa75CoxG6eW/PRnREBIvCrX/3qvf8lFnxTr5/o9jb0GxHKpYLBsU0Uw9om4yVThUrMREtZTYVmy7ksPlu6rCsaAVxVD5cuNnfdKbOWyy7FixnfMD8/LvwjXgsB88Lzivs2Vy56zzOMgzaq40JazGRaGrJS+gz4aNvCBjUaza+pqiQCRMBDCfzn072FSYCmxF+8v8vLQ2HQ2JlmxU9pBRP6/kphbXpxbwDvSkxpWUwdh4u1SJcqZuXF/TMXmp/QaKo3gV0DIwdwsiT2jpgqA+33DNG2x/coLKVdYLwuBO+IG0wrrIlIWuWh1R/dFhHwbgKPWmEA0Aw82rkP9Og7GnyCY7mIltwCQbwrMTWVL4ozdv1jMiMm3GyLkxsxcmCSmaxtpnoTsgvqbVo7QM290LmeZybw+cQeKRyiYs8lbnXFTTBzIZ+wQXxuMGxQG5E42LtrS7p7IuBhBB7trLwHQNwb8Nuub8HrA4PBP0R96mCTYYPFTS4TNoh5+XfsLzVKAsQqXOzOX7Jqt1lDNC12tZAwCA1Dysd7qdVPqwaafV6sNWvMaIrnnzCDymuBKP+QeTAyZP7NsJiVj3tYNUi3QwS8k4CtBoCZgadeHAhv+4ZzqcwwHA+z6smFDVqKy7e2wrT1+Oj49cI8ACb+4u2m3YW0tjvHAAAgAElEQVQk7CTsXH4Ltj6fITOXCb8h8XMphLRyjLjxCYq9Pz40vtA7a0y6ayLgQQRwpj8TczXb514bAUMnzOZS+WHYoDTTHu9KzNYKFs/DkEBM0iKuZNnrxNXpXBioKR+d63ld/dZ+p21phY1Db/UnzlqcwGrN5/gExd7TRibGeFB1SLdCBLyLAC8DgOaBpRX25ZBWmIUNSlOiYqx9XPJmlxDZT3ce6WACMGWrNZUoHUtiba9nALNV4vwVaejt4fwawCEpLp/7IGxQE5bSw7tqTrpbIuABBH77zJtcegDEvQe/e/YtbmmFzYYNcop9trUixApWmpwFDYqt16PzyAzY4xmQ+w1hGO7WPcUQGMknrTCafiGtsCbuNx5QLdItEAHvIPD4M2/eF4s3z9c80woLKVFzTxm1uJ0dNoi9FDibn3X/4/aT7flkAGgegEs+Axh6e0DyG2JLdZtLcGWNKRHCBsOT1nlH7Ul3SQTcnMDjXfvazQAwM8EzrbCrhA3iAkLSNQCKjrUCtrasqTDpWGr1O/oZwN+QvvyckXHFtStwgiuvsmBa4aCIxPFuXj1S8YmAZxP43bP97G4A0AjwTCuMk/CWpe43yqaHre88O4cNYisJl2TddaAMKmqvGlWgGboawCgGXhUoXYeMgT2fAVO/IVyLAtfF4PHZfg/CBiPmrOjk2bUo3R0RcFMCnZ7r9wtrqTtiyzOtsCPDBifPXm4k+Gg4MFwRJ/3ZsvwvjwqWrkEmQe0zgKtZ4lwAcegtZqjEKJdx0/gsSuUb3JZW2E2rSCo2EfBcAk889/bPjhB+6WfwTCscteBjyC1qMBJo3mGD2GLClf0wwxqO+3+YegAwJ7vaCpjOJxF3hWcA0wrnHDWez1JWcQESVu7iltvCJyj2p8CIhHmeW5vSnREBNyPwxPPOMQDMEPBKK+wOYYOuUNFTGchwmHoG2G/oeNVFIzONi1WFx63hYnb9J7alFQ6OXt7fzapKKi4R8DwCT3Yb8BMTY2dtH+val1ta4YDwRKH7UrqSH88lU01VoLSfxNUTnoHxYQmwVrKsNQ4RYJZOTInN4x79WNhgdMojnler0h0RATch8NSLA+45S/iln8szrbAQNphTadSScXbYII+Kk65BJsNRzwDOe8G1K8RhrrikNU7AxRwYPMoxIij2fkBYwh43qS6pmETAswg89eI7P0qF2Nl/P/eaD7e0wnIhT6602iCPSpSuQabAns/A7MUboKDUYGQEjh5rhdjETVxMAJYdwwa1EUu1nlW70t0QARcn8IeXBv7gbMGX+3xMK9yz33jwCY5TXcmYCnnCsEGeS6basxKma5PIO/MZYGmFy6svGRkBDBucbGY5bGvK7P8grXBIVGI3F682qXhEwDMIPP3SwH/JCbCr7OOZVhhDnlx9tUFrKkw6lkyBo58BTWQSbNxVAHWnb7YbAZxvg/vGhy1Rbdbxfny0bWGDGo3m155Ry9JdEAEXJdC5x6B/uIrYmyvH0z0Hw3tjZnCpYKbP/xhyj9o3bNDRFTN9HpkBRz4DmFb4YF5VuwnAeQLHKz/nHTb4iyYiaZWLVp1ULCLg/gS69Bj8d3PC62rv8UorzEKeTpwy7tJ0pdUGHVmh02eRgbDlGZBLzZ1X1ChkzLTlenLn+AbF/pc2InGw+9e2dAdEwMUIPPPykL+6mshbKk97WmEOyw5T2CAJn5zo0D7lz8XY0MWwasMho9Tc7WGDUXzCBv0fpBUOi1n5uItVoVQcIuC+BLq+MvQvlgTXVd/nmVZ4asxKOEBhg1yGWEg8lYunJ7GSS81dVXdNyCkwduoiLs+WT1Ds/fGh8YXuW+NSyYmACxHo+sqw71xV4JWWq8vLQ2DQ2JlcKhjs0iwuP2s8tll1EZLXpHNLiepJlT7di3eKvbnvXW6ODe+hNZ+g2HvayMQYF6pKqShEwP0IPPvqsK+VCq2rHyekFQ6KVW0ExkxpW22wss54xT9cB4DCBknwzIkfvdf2fLA5NtK0wlwzcj4IG9SEpfRwv5qXSkwEXIDAc68N/9LVhd2a8vFMKyy3UhqObWJ2tJCZfJZMJcEgQ+HJz4BcWmHeGTl9WVphTdxvXKBKpSIQAfch8PxrI+5YI7DucuxTLw2Et33DVfcGYOUs16XJe7VBTxYBujcyOVNiVnRIK4xJhTCt8KjJfNIK+wTF/qIJT1rnPrUvlZQIOJnAC6/73HQXUbelnLzSCrMuTWnYoP7EWVi4bBsXo0FCSULp6c/A+wmfQmFZi9EcG2FoLT6V228I0woHRSSOd3LVSh9PBFyfwAuv+161RVjd6ZxHu/BLKzxuWseV0jAJCo5ths1Zxa0S83QhoPvzXrPD5thU1F5pNwJsaG0ip6E1vwdhgxFzVnRy/VqYSkgEnETgxV5+F91JzNWUlWdaYQwbxDzo4pXS2NhmQDiflKgkkt4rkt7w3culFeY9tOYb3JZW2EnVK30sEXBtAi/08j+nRlTd8dw/dH8P3h0VyaW1jl2auDKa2AicrLnMdWzTG8SA7tF7zU7E3I8g80it0W8IQ3F5Dq35BMX+FBiRMM+1a2MqHRFwMIGXevm3uKOI8ygzr7TCrEtTNmyQ49gmiaT3iqQ3fPeYg6P05HkjI3A4vwamxa7mYtb9Jy4ATCscHL28v4OrWfo4IuCaBF7q7d9oSUx/+0wfeLRzb7B0nDu+zzOtsDYqBbbuKQYcz2Q9Amxsk8IGSby9QcTV3iNLK4wZBNlvqLbppvC7Cozkk1bYj4UNRqc84pq1MpWKCDiIwEt9RtaYE+7hY6fBsYrToCuqhL6DNR5pAvD+n3h+APQbEcqlpRE5by3kHK1vr8CwIuM9tqm2oqXzyZC48jMgl1b4ZDXfobURQbH3A8IS9jioqqWPIQKuR6B775En5QzAS71GwJbdWXD7y+/hzp/+Kvy7cefPsH7rfnj2lcEeawSEtMJj1KcVZmGD0kxoFDZIwuvKwutqZYuavw5yi4yX7s7Xn4ZZiz7hYtbxfjFsUBuxVOt6tTOViAjYmUDP3qNKxQbgyW79IWHZBrh685t24WcGgG3PXboDMQtWAA4NiM/1pNe80grLZULDHoEMXQ2FDU4iM+BqguuK5WFmWpqDA6NwJkbzycjp/yCtcEhUYjc7V7l0eSLgOgS6vznyKAo3jvEHhc6FesMlk8LPDADblpQ3wHv+UzzWBPBMK4yZ0ChskATfFQXWXcrElu6ubrzRPrxW3XAdUrfpAPNz8LgPH21b2KBGo/m169TSVBIiYCcC3fuMzH17aDAc0VcpFn5mAHCLQwQ4VPD8q0M91gjwTCsshA1KMqFR2CAZAx7i5S3XkMvBUVZxARJW7uK2YqeQVjgiaZWdql26LBFwPoGLF7/9/cGssq9ufvEXm8RfbAQuXPlCGBZ4vOubHmsEeKUVNhU2iGObMylskEtLzlvE0JvvU85MYz6B8Lg13J4h38DYvwdOTx7k/NqaSkAEOBFoAvjfF65+tf3W3e9/EYs4j9cYMTBkVKjHmgCeaYXNhQ3ySonqzQJB9+75PSvMTFfUPly6G0Nvdx4og8DpfMIG/R+kFQ6LWfk4pyqYLkMEnEPgzIW7s67d+vafPMTe3DX2ZxVDjz6+HmsEeKYVxrDB7ELjmc4UNuj54kUGhd93rIlIgo27CqDu9M32+QEVNVdg1YZDMGYqt9UG748PjS90Ts1Nn0oEVBBoPnNn4MVrX39hTrR5v3f5+ldCREGnZ/t5rBHglVaYzXSmsEF+okAC630sMa1wdqFxDo6iY60Qm7SZ27CAT1DsPW1kYoyK6phOJQKOIVDTcuepsxe/rBLH8/MWekvXq6o/B6ODoz3WBGAUBa+0whQ26H2iRUaF/3cul1YYo3Amz/qQjxF4EDaoCUvp4ZianD6FCNhAoKC0NbOh5Qbc/lL9RD9LQm/pfRwWeLmvv8cagd92fhNefTsAfLVzVVcyk2cvh7SME+3dmZg7gFYb5C8UJL6ey3Rc6GJYuzkLMFSQpRWuabwpDBWMD+OzYif+1sdMXtCq0cT9xobqmU4hAvYlkFfcnKPTG6C4/BycvfSl6tn+lkTe0vuYYAgTDT3xvOcOC2Ba4beGTwFcfEStwOBM50IKG1TNUe33QOerf5adxTBk5lJhUqB4jY7jlZ/zDxsMT1pn39qcrk4ErCTADACaAPxX03QNbonS+1oSbHu939R6FaZGLfLY3gAcFuCVVlhupjO2aISwwYWpJI6UUZCeAQXPAKYPPlLS3N4bgL+hvKJGmLGA328I0woHRSSOt7KapsOJgH0ISA0AmoAjpa1w9tJduP1lW45/e4m8kutmF5RDr3cneLAR6A09+o7BfOOqK2m5mc5stUEKG3TfFqqzWsbe+Llssm151cV2I8DCBoOi+IQN+oXMg9GTFlyPmLOik31qdboqEVBI4Ghp60nW+pduyyrPw7Vb3zl9WODarW9AM2WeB5uAXvAwrfA81UZACBssMJ7pXNVwXRjvHDt1kerre6Mw0D17l4FiaYVxTgCbH8A79NY3uC2tsMKqmg4jAvwJ5OsNLVLhl/5de/oa8MgGqKTFLz3mxCkDbNmth5kLNni0AWALJfFKK4wtmYXLtkFpxfn2CgwrsuLys8J+EjTvEjT6vm37vqe+vxIO5FQa/4aOn4G4ZK5hgz8FRiTM41+70xWJgAUCOr3hhFTw5f5uHxa4+3D5X6lY8/zbcPYGbE07Crsy6mD34XqvMQDMCDz/2ggYOmGW6ta6ubDBabGrVV+fhMU2YSFu7sVNSCt8rNXICBzSVUPonFVcfkM4Idg3KPa/gqOX97dQZdPbRIAfAbk5AHIGgO3TV1yAyze/FRb54Sn47FrX73wL+zJLYceBKkH4Ufy90QCgEeCZVpjCBt1LcMgguN73xSbbVtY9TCvMO/TWj4UNRqc8wq+WpysRARMErDUAzAhUNlyFG3f+zHV+QH5xNWzdc9xI+L3ZALDegPa0wpPmq25txCRsoLBBBTPCSYBdT4Bd5TuRW6OD94qdI4Ji7weEJewxUW3TbiLAh4CtBgCNwJFSAxjO3YGbX6gzAlUN52Hz7iJZ4ScD0Kt97sMfXnwP3h05XbUJYC0Z8QIpFDZIgucqAusu5ZCbbMs79BbDBrURS7V8anu6ChGQEFBjAFhvQNGJs3Dp+tdWDwucv3wHtu/Dcf62bn4m9tLt/JSdgGPirEVsbvtYlz6KjjN3DVd/D9MKD9e8r9oIUNggib67iK2rllNusi3v0Fv/B2mFQ6ISu0mqb/qTCKgjwMMAMCNQWXcZbijoDcChgwM5x2Db/gqzrf7VG/Oh37ApigT9d13fgsiYD6D5zDXYsjsLur0+XNF5ri72psrHM62w3AIpFDZI5sBVRdcVy9WeVrjxRvtEQd6/IR9tW9igRqP5tbpan84mAg8I8DQAzAjgsMCtL+TXFjhaVg9b0kvNCv+m9HIYEzIfHnvGcmseW/xBoXOhtulzo/kIV258DUvXfAZ/eGmARxsBXmmF5VoyFDZIJsAVxdaVyxQyc5mQVpjlDsBtWcV5Ia0wr3L7BMX+oolIWkUiRgRUE7DVAOQ9SB3MRF+6LTzWCheufNU+LFB3+iJsSTtqVvh3HqyF6XHr4Onu7ykSbd8JkXC8stlI+Fk0AdtijwD2DPxWgZkw1dp2h/1CWuGxM1UPC8i1ZLASO5xfAxQ2SIaAl4h5+nVmJ2yAglLjtMK8f0MYNqiNSBysWgToAt5LwFYDIBV8U3+X116E5vNfmBV+HPNfvHwPdO89UrHw60/UmxV+ZgDYtqK2FcZqZyu6vjsIvqkyvthnJAwPnKPaCEyZ1XG1wdqmm7B1TzHg3AFPr8Dp/sjsqH0GWFrhE9WX2ocF2G8oMJJPWmH/kHkwMmT+zbCYlY97r4rRndtMwN4GQDAGJWdMGoDUbXoYNjZakTC/6zsJcG0AJuq2bLPyT8BbQwIVfZ4pkXX1/TzTCs9ejC0ZQ3sFhr0BJ6svw7LU/TBqcjwZAQoppGfAwjMQEJEoLDGM4s+GBnj/hnyCYu+PD40vtFkI6ETvJOAsA/DZvkoICk+Gx7v2tSjGuBjQrv357cMJtgi/+Jxbd//iFRMFeaUVHj0lHpLXpAPGOrMKDLe8Q57UtrjofOe32jE65Z2RkdBnyER4uf94eKG3P3R9dRj8oft70Om5/vB417dAGqnzaOfewv7fPdcPnnrxXWGVzOff8IEeb42BNwYFw9u+02Do+NmAs+Hd+TsOlUkrjL8hXIWQ1335BMXe00YmxninmtFdW03AGQYAJ/k9++owi8Lfs48frN+6327rEHjLREFeaYU1kUlCS6bu9MOWDBqB/dmVMDF6GbdKjFdlSNexryHw1c6F/r5h8OqACdD1j8MBE1bZs3cMjUPnlwcLxuDNYZNhWECMWz5zc5O3gL78nJGZ5vobehA2qAlL6WG1INAJ3kXAngYgr9gAOASQW9xiNATwwZpDZiuK514dIszgv3b7G1Xd/eJWv7nX3jBRsD2tMIdlhzFsMKugzqgC4x3ypES8aWVD+wq83HcwaOxMeHVAAHTpORiw5W5PwVdy7d+/+I5gCLCXwJ16CMZMjReG0cRphasbrkPqNh2Mm5bAxdigQRszeUGrRhP3G+9SNbpbxQTsaQDYxMBdh04ZGYAlK/fLVhzP9HxPEH5smZsTbHu95w0TBXmmFcaWTOlJ49UGeYc8yYkQ2zdl9odcKkp2PdrKG4ohE2YJov/7F96R/d0qEWpHHIPDiS+9OUoYgnCX71IurfCxygtC2CBOIuRxH0LYYHjSOsWiQAd6DwFHGIDVG3VGBmDRh+myFcnipZvh+CnzYX32En/xdTNyS6HPexNky+iIiswRn8ErrbAzwwbnJPIbO+VR0XraNd7xj4Dn3/CFRzs/TEftiGeTx2egWcH5A77aOC4iau/vVkgrXNhg1KuWeaQWwuPWcCs/phUOikgc7z3qRndqkYBjDECukQHA1L5yP/LkVbshr7gZdh8shjMXbjqlF4AZAW+ZKMgrrbBcAhTeIU/iShgnJm7alc2tchRf29tfvzViKrh6a1+u/pDbh70COGThGzzX5Z8VlowLe9HYZFtMK7zzQBkETucTNuj3IGwwYs6KThbFgQ7wfAKOMADSFf5iEz8zaQDYsEF2YQMYzt3iNvOfCbu1W2+YKMjSCvtp56muJNsSoNg/bHBqzHLIK6pQXV5vF3vx/Q8YGa44CZec2LryPowwwB4Bd5gnMD4sAdZuzoJqUVrhitorsGrDIcC5A+LvzNbXvsFtaYU9X+HoDs0ScIQBOKRrMuoBiFm02aIBYEagvPoS92WHrTUBeLw3TBTklVaYhQ3id8daMixsMDp+PZcKLHnNDmg9f5XLtWytRD3lPGwV9nxrjOxv0pVF3ZayPd1jEOCcBnf47uSScRUda4XYpM3cyu8TFPtTYETCPLMiQW96LgFnGIB5H+yQrWw27TwiRA0w8Rdvm87cgpt35dcXsEXQbT2n9GQjvPrWaNny21IhueI5XV4eCjjbW20lac+wwT2Hi+Af//wB0GyoLac3nz94XDRgvghXfA7tVabfdn0TMIzQXb53uWRcGDY4eRafSbD+ExcAphUOjl7e33OVju5MloAzDMC+3Ia/xyV8Ap27G1c8ezJOmjQAaAYeri/gHCNQfLwBNqeXwvBxs7yiwuSVVtgeYYOnz1wC/G9eyka3qchdTXDeHDoJHutsecEtewmxs6+LEQMofq72vciVR65XrabxppCXY8K0JVzuwU87F0ZPnN+iiU55RFYsaKfnEXCGAUg7XL81X2+Ysy+n6u+BUxfCY13a4ok37z5q1gCwHoET1Rfh+p3vHDZJ8PSZa7BVtJCRtxgArKB5phXmFTYYEL4Efrz3k2AAMnTHuFR+cpWuJ+/D8XBnC7ArfH63N3zdYl4AexZZr5o4rfDxys+FTJ28wgZHBMXeDwhL2ON5akd31IGAMwzA7sP1qViQHH3Tk/nFhm0btuf/8uagYMAoACbySraNLTdMLjtsaxe/+DycALjrQDHsPFRrNIfBmwwAq6Sf7DYA+o0IVS227WGDDdeN5gcc1ilfbXDtloOC+OP//vT1n4FXxccqWU/f9uw3jsT/6Yehjc+9NgKERXUs5PR3pecC0wofzKsy+g3lFTXCjAWpqn+j7D4xbFAbsVTbQTRoh+cQcIYBSMuoM1rL+oi+9Q2d3lCx57D5IQA5U3CktBXOXroLt+5+z61H4PaX30N2QSVIoxdw1UL8540GgBkBTCs8ZPxs1ZVMyMylHdZNVxo2eO7i9XYDgC+WrNqmujys0vP07avvBDhF/DFrIK4FgEbyD90HCtEGuOw3+4f7n3j+bXjsmTedUr5ub/i55TOEvWolorTCLGwwePoHXO4Hoyb8gud+GxKV2M1zVI/upJ2AMwzA7oyGpe0FePACAP6HTm/4Wk7klewrrTgPV299q9oElFe1wObdeqMWPxN+tvVmA4BGgGdaYbl1082tlLZw2WYj8cc/DGcvc6nsPF38+/mE2lVcUcTRIL7cfxz0HjIRMKxwyPhZ4BcyFwIjk4RJa9PmrITpcz8S/s1enAoz5q8VXkfErYbQ91dAcNQHMHryAhimiYGBo6dD32GT4Y8DAuCFXn7CgkL2TD+MwyLu+AywtMKn6q629wicqr8mhBLySpfto42DcZPjj2s0ml9L6276240JOMUAHG5IlEOm0xu+VCL25o6pPX3NpsWDWs5dh+17i2H34TqT4r8row4whLFzj0F2rUhZa9vVt797th/0GToZ/CepW6VNboKTXNggdvVfuHyzgwHAHYuWb3XLyttRgoOz/X/7jOWVN5U+cyjEXV4eIiTZGeA3TRD5sDkrYF7yJkhZmwbrtmbCjn1FcCjnBOQcOWX1v8N5JyHtkB42bs+BFan7IH7ZZzB93kcwLnQRDBw1HXoN0gpZCpWsJmrNPb07KtJtn6PgGSlCrxr2ArDw2+LjZ2DhMn49ZEJa4Ygkox5cubqc9rkJAWcYgF2Z9Qvk8PAwAGgO2LDAbQVhgzfufAf7Mkth+0Hj9QpYa59tl6VmQ693gxQJP1ZK0fM+hJLyBtCGz3eJRVOUVoK2HMcrrTCb4GRqtcFte3Wy4o87v/jyGxgftthtK297G4FnXhmq6Nk19/2zXPu4AuDYqQth1qJUWLF+H2zfUwhZ+RVWi7wtxgDPQWOwdnMGzP9gM2AufewpwBUJcWEgc+VX8h5ewx2SBZl7XqbP/xhyjta3mwA0A4d01RA2ZxW33weGDWojEgfL1eO0z40IOMMApGXWzZFDxMsAsB6CkooLZocF8ourYcueYyZb/Cj+G3efgDEh89sjFSxVIr4TIgGHEcSTCfUn6mHYmDDVlZOlz3b2+7zSCuMEp0O5xhOcDOe+gHs//WzSAOAbR0qquFVw5ipYd3tPTdc/tvRxfLy/XxgERSVDwsod8Fn6EcjOr3SY4FsyCukHS2B56l4Ij10F742NFoYgMPOfrb+H3oND3P45wt6yhJW74HjVxXYjUNPUFjaIUTQ8nmFh4mTI/JthMSsfl6vPaZ8bEHCGAdid2TBTDg1vA8CMQGXDVbjxxZ/bRbmm6QJs3l1kVvh3HKqBsJjVwqQlJRXJgOEhkHe0sv0zxAaAvc7KPwG9B463uWJSUg5nH8MzrTALG2w59yXcu2de/Jkz2LY3n0vlxqOCdIVrYGv2yRcHWP3MdXq2n9Cq9p84DxYu3QKfpRW4jOCbMwR7M0ph6UfpgJPgMM8BTji09jeB5gFj4l3h+1NbBrm0widrLgtLEY+azCeJlk9Q7P3xofGFcnU67XNxAs4wALsy68PlsNjLALBhgdbP70JV4zVIy2ibzc+696VbXKzohTd8FVUcL/UaAeu37gdcPIgJvbktDjng8c+/qr5L1tqKzZHHd3r+bXhr+BTViVZmJ6yHv/39n0zfLW7v378Puw4WeETlrbbyx/NxfN6a7x27+V8fGAjaGR/Ah+v2QkZuuVsIf0dTUAmffJYtzBt423+a1dkO+wyZ5FHP0OTZyyEt40R7bwCbYzNzIdewwXvayMQYubqd9rkoAWcYgN2HGybJ4bCnAWC9AVKxF/+9ZlMB9B8+VVGF+dSLAyBh2Qa4dusbRcIvNQWXrv1JOL+Tiq5Kayp2Zx2rJq3wh6lp8I9//sui6MsdoCuu5LZwCg8hdtY1MNudku/+sS594JX+4yFgWgKs/GS/S3XxdxR36yYVYu9FZNxqIaIAIxWU8MA5E876zuz5uTEJG6Cg9OFiXThhEI3BxOhlfO73QdigJiylh1wdT/tcjIAzDMCuww2BchicZQA2p5fDhCmL4XEFs6SxhRQZ8wG0nr9hk/BLjUBjyxXhelgBK6mY3PUYa9IKayIShfF8bM2r+Q8XC8KZ6fasUF392kq6/1/s7Q+jJy2AZR/vgUyd4ybzqRV2a8//dHsuaKM+EHo4cD0Ac78lTJHsKcMA0mdULuqmquE617BBX+1cGDN5QatGE/cbubqe9rkIAWcYgLTD9WPlbt/xBqAOVm08Ap27v2e2MmAVBU7wO1ndykX4pUbAGyYKWkorjBOX1m09BN/++a9qdN/o3H/+6wfAeQFjQxd5nRHAVf4e7fww4x17jtm20/P94d2R4bDow202h+tZK8LOPj4z7yQsXLoVhmneh2deGWL2d4/RBVLx9KS/5aJuyirOC5MHed2nEDYYnrROrr6nfS5AwDkGoM5P7tYdawDa4v1xoh+rEE1tlUzwkwq6rX97w0RB7IYVpxXGJDGbdufA7S++MhJvnn98+fV3sCU9V0hIw6tyc/XrjAicY/LZ7vrKUAiMWOI2k/t4G4dNO/MgMDIZevYba5IRJiFy9e+YR/lwsa7MI7VG8wOsSc2tpAyYVjgoInG8XL1P+5xIwBkGIP1QwxC5W7a3AcgtPg27M4wT/ZgzAN17+xJmynUAACAASURBVFg1wc9W0Zee5+kTBX/XtS/0HxoIi1JS4VRtC/zw3z/y1Hqz1/rhhx+huvEsbNiRBZiJzpN7BoZr3pcVtxd6+wsZ+A7luOsEP+vmAJgyD/sOl8HUmOVgamEkTDakRNw85RhpWmGlqbmV3j/2SI0MmX8zYs6KTnL1P+1zAgFnGIC0Q/XvyN2qvQ0ATgQUT/rD16YMAM4HSDtYDNfvqE8vLBV4pX9fuPIFxCV8BJ4yUfAPL70Dbw3WQNScJNi0bR/UNbbAzz//Ylaw7fXmt999DyeqTsOO/UcgLvlTmDKbz9rqSitDRxyHFa60VwvFP2bxesjSuU4cvymBdsT+w7knYeaCj4V5AVJWmM7YEd+TK33G2NDFsGrDIaiqu9beI2AuNbctZfcNjoNxU+PL5TSA9jmYgDMMwO5DtX3lbtOVDMDvur4lrEy4L/skFJXV2WXcX6kR8OSJgl1fHgSx8SvgzPlL9tL69uv+1z/+BblHK4SWvy0Vlzue8+QLD2e9d31lGMxcuBZyjpD4i80FZjGcuXAd4NLAYhOACZTc8TvnUWbtjLbFusRphY8ea4U5SzZyY+ITFPtTYETCPDktoH0OIpBf3DyahcjZa3tI12TU8t55qPF1udtzRQPAmOw+qIczn99yqhHw9ImCwaGx8Pmla+2CzesFJhG6ded7qG++BRt3FUBARCK3SoxHZWvPa2D0BYra7198F4KjksDbu/3Fwi9+jZMDp87+EJ566d12EzCUw6qX9vxuHXHt6Pj1kK8/3d4bgPkD0jKOw8SZfMIGcR0Rf23cd5qIZb3kNIH2OYBAnt5gYEJnj63UAOzOrJONEXVlA4Bc8vXNkJVfbtNiQ0pb+0qO8+SJgo93fRNSVn4KP/54T7X+YxhhVf1ZKD7RalSBlVdfguSP9gCvTGiOqIht/Yy3/cIBQ0yHB8TA7v1FbprUh8+Yv1jw5V7vzzwGoydi5ERvwAgJW5l7ynkYlbNoxU4oq7hg9PtBE1DdcB3WbM4CPEbN/foEx0H3N8fC28Om1jpA6ugj5AgUFNQ8ladv+cUe4o/XlBqAnZk1z8uVw5UMQKdn+wtDAHJMjpSehlN155zaG4ATBVeu2wWYslXcbekpr4ePDYOvv/nOZhPw5+//1r5CIMuLXi7Ki84yoc1a9ImqCkxN5eeIczEVcL8RU4X0uHKiR/uMzcXmXTro/uYoITrAEd+Pq34GRgZkFxovKIS/GfYvr7hJGDZRU/7X3gmCp7sPhae7D4G3Bk+uk9ME2ucgAnlFzelyYsdjn9QA7Mls6ix3W84wABt3lfz4ct+O2dIwh7i5e88vaYHCsga4dPVLpxiBwrI62JJeBhjO5SmiL72Pl/v6wdXrt6w2AVeu34HJszp2UWLXPw4B4OxmVpHhdn92Jb9MaJMWuJyhwLS+npzgh7eJiVm0HoZOmO1y36MasVV6riYiSfiNSFfkZL+X45WfQ/KadFUt//5+4fDMy8ME4Ufxx39DRk6/IKcJtM9BBFJS4H/p9IZ/mBM9W9+TGoC0zIYn5G7LGQZgX05Dy76cqtHT41b+9ffd3m4X0y493jNrABiLohOtUHSs3mEmoLbpc9giWsjIkw0AGoIefXzh2o3bik3AuYvXLcb642qDB3JPGZkAzISWuk0H46YleFzFj0v28hZJT77evsOlqgROqdi60nFjpsQLCwRV1F41+l0w4a9pbFtJcHyY7SsJDhk/G55/w99I+JkBiJi9FAznv7hRcuq87ARxOb2gfZwJHCltnsyEjedWagAOHDj1n3JFd5YBwLLklRv+/217iveNnTgXHu3cB57pOUiRAWCcTlRdAMPZ63YzAp9fuQs79hXBzoM1RhMqPd0AoAno8954+P6vf7NoAm598RUERyUrFnBp3DNWdjjeicuoulLlrLYsk2d9SGF/R4y7+s0ZmA8+SvOo79/S8/N+wqdQWNYiK/ysh2zSLNvDZDEc9ZX+E6Dzg+5+JvribWTMMqHuvHHnz9B89lb10fLzso1EOd2gfRwJ6PSGK0zUeG2lBmDv3tb/T67IzjQArDx5Jc2+67Zkfz10dKRVBgBZFZa1QkXtebh+m1/uAFxl8LCuHLbtrzASfpbPwBsMAJoAjBAwtzYAJviJnLva6oqbxT2fqjNu+WTm18C02DVWX89SZeus9z9ct4d6ARSYAJwIOD5sscd87+aetykxK4ThL9bKl25x9r/aOTK9B0+Ezj3axvnFgi99zQwAmwR95da3Pze13NpfVHTl/2F1M20dQODIiZae+XrDfV7ij9eRGoBt25r+t9ytuIIBwHJl6s8/qitu/petDI5VfQ6NhiuqewP0Jxph8+4SWeH3NgOAJiD9QI7JXgBMJWyusrP0nlzcM8ZA7zxQBkGRynsVLH2Os94fF7qYogAUGIDZiz17Uig+fzjMtXZzFlQ33pBt9Z+suSwMB6iJkhk4agZ0fWWEbHe/VPzxb6kBYEbgwtWv/lnTcG2OnF7QPjsRyC825NsqfnLnSQ2AqWK7igHA8un0hv+Suxdr9tU2X4OL1/5ktRFoPnsdtu8tNiv8uzJqYcbc9YCrE6I4esO/p7u/A998++cOJuDCxavQ7XVfwDFGtQIbteBjyD3aaFQxVtRcUV0hqi0Xj/ODpifB3owy6gkwYQSWrU1X/fzw+J7sdQ0WDXPi1CWj55u1/Gua2sb5A8JtH+cfHhgD3d4YqVj4mRkwZQDQCNz+8q9w7vKfvq5tvuprSjtoP0cC5eXl/55f0vyDNWJn7lixAUjLrL9vqqiuZQBaVBsAZFJ07CwYzt0E7MpnrtbU9sqNryH9kB52HqgyK/5L1x6G1wYEKBL93z7TB2bO/RA27cyEnn38FJ3jymZiYdKaDgZgStQC4b5w7kaPvqPBJyhWVUXOKkpp2CBmQns/kV8mNHtV9Oaui7nvMf2tuTFwb3xv6+58GD05XtVzY467s9+bPh+NbYOs8KMBOKSrhtA5q2y+f7+QBYBhfZ17tM3qZ8KudGvOALD68tbd76Hlwt1zFXUXupnSENrPiYCuyDDfnKhb8547GoB8Dj0AYkaVdVfgopmQwfziatiy97hZ4V+/vQSGjY0WEpUoEen+Q4KgqKy23XjgugarP9kNnbsPdFsj8MRz/YzyA3z19beAiwuJefzu2X7Qe3AIYAy8moo3IDxRiAzAGdCslYRbdw8bDJuzAg5kHSMT8KAnYFt6AUyYZnurV80zZu9zg2ekCMNY4pS+4me56FgrxCVvVvU76TtsCnTpaRzWp1T42XFKDAAzAje++Mv9lvN3isvLzz/CSe7oMnIEdCXNd8UiZutriQH4Re6zcJ8r9QDk2yEk8khpK5y5+AXcuP1duyiXV7fCpt3mu/u37a+CSTM+hCe69TcSOrHoiV+jwKPQ3/xCvtfh3KU7MG/JWrdNIrQ6dVt7L8D6zWkmmTz10kB4Z5T6Nd2nYthgTqWRCcBMaO4cNqidkQLpB/VebwI2bMuGcWGeF/o5ZmpbWJ90cisTfxzWwkV/8DhbTcig8bPgudf8rO7uZ6Iv3lpjAJgRuHzj23tNhlsrAeB/mNIU2q+CQFHZ6bdsFX3xecwApGc2/Hwo9/QsU0XydAPAmJRVnIfLN74Gnb4Rdh+uNdvqn5OwBZ59dZhJkRMLP74OCp0LredvtBsM9mOR21bVnxOOl17D1f9+rf+o9ogAzBhoqbwvvOEHwwPet7miYxUkhg3qy88ZGQEWNqg2JSr7DEducax3445crzQBuBpi0uqdHhnvLxfeyoSfTWwNnG77xFaWvlcs4Gpf22IAWJ32+dWv/1Z3+kaYKV2h/SoI6PSGCiZctm7RAOzNavzLwey6V80VxVsMAHLUnzxvVvg/TM2BXgODLYobE7/X3h4DWbrjioSf/XDY9mhpDQzyn6L4s9hnOnPb3Hoe/vq3vwPOcVBSjsc694ZX3w4AP+08VUbAVMvKXcMG0bjMT9nsVfMCtu8pBBwGcaTZcsRnYYKrg3lVRgaVCT9uD3MIbe31nlZRWJ+1hkCNAcB6DCcKnr/ypztNLbcGmNMYes9KApmZNY/mlxh+slX8dXrD/cMFp/Mw06Clj3YlA6ArNvxTxT1bzCFgygBsSiuHMSHz4bEuvRUJ2xPP94OEZRvg2u1vbBJ/ZgJuf/k97NqfD6+81bZ6nBJRdeYx2PVfUd2giJG4nJ2efxveGj4F/CeqS9krN7bKWlfuGDaIQwKbd+Z5dG8ARkDEJn4KIyepW8DGEWJuzWeYSnHNxF9/4iwsXLZNleEZ4BcOXSTpe60VeXPHqzUArB7DiYJnL96tabp580lLekPvKySQr2/ZZYMY3svXNx88mH+2k8KPcak5ADq94w3AomXp8IeXlE/QGxcyG+qbL6oSfvbDYVt3mSgYOPV92Lx9v9UGgJmBLj0Hw3tjZ6qqFLGSbgsbNJ5dzcIGR0+xfXzVGgHgeez0uR8BtpA9KRLgYPZxSFi+DcZMXaT6++bJWu218PnCvPwnquXD+k7VXxPi/cequO+h42NMpu81J+jWvsfLALTXY7f//LO+/OIMpdpDx5khkFfanKTcADT/kFfc8unRo/L5/s18jFcYgDx9s9A7gGPJLJnP7sN1wut3facpErQX3xghtNbZw26PratPFHzlLX/AkEAm6LZuX+wzEoYHzlElDCxsUBpfjWGDc5a4Y9jgQpi1KBW27NK5tRHYc6gEFi3/zCMn+c1O2AAFpc2y3f2sJyp4+ge2P9cP0vdaK+S2Hs/TAJz5/C4cLmyG/bmNOeb0ht5TSECJAcjTGyCz4PSPtgg/K4ZrDQHYnglQiVk6pKuF3Rltws+MgCUDgEl/YhasgEs2JBey1SS46kRBXOM+YHKMagOAxuGxrn3h9YHB4B+ibn6AubBBNbnU1bYU1Zw/ZfZyWL3hABzKKXcLM5CdXylMbJwdn+qRE/xCZi4TwvpY9750i0msohass134Jy2AvkOn2GWc35w54GEArt76Fo6eeDi3igwAU1aVW0sGILPgNKRn1sOe7Ia/qfko1zIABptTASsxABt3HRX1ANRb7AEYOjoMTla3cu3ut8YUuOJEwV7vjOViAFjvwZPdBkC/EaGqKk8U26kxnhc2iJMfsVfg400ZkJHrWmYARX/zLh0sSNkCmohE1d+fGsNkr3MxlbO59L3HKtsWsVITjdKWvteHS1ifObGXe0+tATBcuAvpWRhV1VaX4pYMgBo1Fp1rzgDsy3kI3aMMgJ5fJkQ5Q/DJNp3Rw4oPrKkegP5DtJBbWAk4Uc8a0eZ9LH7+trQcl8ko2Ln7u1wNADMCz/5xOJe0whiOVVx+1qiblkdFbS+RUXpdzJgXHrdaCKPbmpYPmXkVDu4dqBTWNcBljrGlP94D4/jZd4GCjhP4SivOGz1HrOXPYxlrHAJ7ofdopwg/MwO2GoBLN76BwwWGDnVpmwFoyhXJGL20lYA5A7CXqwE4rZcTS577xA4RX+/LaWiR46LTt3BLhSxX/q3pHZP/mDIA7/pNFeYN7Mk4BqUnm5xqAtBUuMtEQSbotmxZWuERQXGqWpRsnXVpQpbMI7UQHucZqw2iIcChgnnJm2B56l7YuD0H0g+WALbM1U4mxNX5ME3vmk8PwqIPt0HE3DUeOabPBF+8jZy3FrIL6mWFHw2A2oyULH0vE2Fnbq01AOcvfwVHjonnUT1s+bM6/qDudJNc3U77rCTgKAOQmXn+EZ3e8KOcYPLaxx4OtjVlAPLtbAByi5s7uFZLBoAxqKz7XHGyH969AOLrufpEQVuEX3oOr7TCnhY2KBYqU69xlnrQ9GQh5n7mgo+FEDw0CTgjH/99sHoXLF6xXXiN3fdzkzdC9MJ1MC12FYTMXApjQz1r1r4pTtL9gZHJsHFXAdSdNk5BzVr9uExvdPx6Vca077BQ6NJDXfpenoZBqQG4dvs7OHbqYoe6k9XnbdsG4f29uU0FVkodHS5HwFEGAD87r6TlQyZ09tgaPyhmewD+2x6fz65pjQEYPn56h7wCmFa4tukyXLz2pdN7BE7VnYUx2ll26Y6XCrKz/sa0wu+OjFRV6WJFL7coizuHDUrFi/62Pb8E6y2qrLsq2+o/dupzIexPzTK9g8dFc0vf60gDgPH91U3XYU/2wyFnaV2Of6fRHAA5CVe3z5EGAEuarzd8w4SS91b60JjqAdDpDQ43AJNnLP1FTuCmRH/QwQAwLkUnzkJN0yW4fvtbpxmBomP1sGL9YY82AOx7ee61ETB0grplhz0vbNB20SPD0Mbu/YRP4WhZi6zws2V61SxYhOl7e/YdB52727ZaH0+xl7vWpMhEk3OcWi58ARlHTptt9adntrX6xfU7TQJUp/vtZzvaAOQVNw9hAsd7K35A8LUpA5DvBANwUNf40bTZS7e/8LqPkREIDl9k0gAwPsdOXYDaps9N/ojEXfe8XhvO3oCtaW3RDGs2FXiFAUAjwCut8LhpCbIzu3Fs113DBknQrTNDGDGC3zfr3pdu8b0ps5ar6nnqPXgiPN1jqFMn+cmJvnjfhEkLhXU2zl162KN56drXcKT0rFnhxxb/QV0T5BZ1HFIlA9Au4epeONoAYGnzSwx1TNx4bpUaAHvPRZAbAjioa1qF9/7JniOdg8Liq598sPofmwSohMPJ2kvQ1HrVrr0BN+78GfZllsKOA1XtP05vMgCsN4BXWmE5EXD31QbJCJg3AixnRHXjDVnxxyRSsUnqlukd4BcBz7w83KWFn5kANACsfiuvvaRgnF8I8wOsR/G8vOKOkQBkANTpfvvZzjAAev2FJ3V6w8/soeC1dQcDwMDHJ28dMXjktK8G+oW2/ziUcqhquASt529yNwIYhbAlvbRd+BlPbzQAzAjwSissdAMfazUSBE8IGyQz8NAMmBr+YS3/k9WXYVnqflCTRnpYwPvQ7Y2RbiH8cgYA67j0rI6z+lldsze7EbILTxvViWQAmGrYYesMA4C3kVvUslWp4Ck9jj1EbGtqCECnb7FrNIK5HgDpV5j6Wd4RpfcnPg4nCtY0XIYLV+6qNgLnL9+B7fuwu19++WJvNgDMCPBIK2xqIpgnhQ16qyEQ1o0oMl43ggl/bdNN2LqnGDACwGY+LH1vD9cc52diL7cV9wBgHSZnANIy6yHjSJOR8LP6jgyAVDU4/u0sAwAA/zNPb/gr+5J5bJnws60pA5CnN9zj8XmmrmGNATDH39T1xfvVTBTE5D9ZR07C9gOnOrT6GcNdGbUwZcZyr5kDwARfbssrrbA2KkUQBMzrzkSC5XhXs5a7zeIy6WErlq5hHQvtjKVC+l7xd8m+U9xm6GpgWuxq24W/PX2v64T1yYm8uX1mDUBmPRzMaxS6+cX1mvg1GQCOgi+9lDkB4pkISPq5+Hfe0Wat+ItW+5qJFtuaNAAlnmMAGLOyygtQe/qi4omCFTVnYctuvUnhR4YfpubAawMCFIv/Uy8OgMTlGyFwapzic+SE1tX3PdHtbS5phTEZTM5R42QwFDZonQA7y7CMDV0MqzYcgqq6a+0mTiz8xcfPqF6md+CYGdD11RFu1d0vZwRMGYB9OQ2QU9Q2zs/qMbktGQA59eS0z5kGAG9Bpzecl/vSbdnHhJ9tTRkAnb75J1uur/QcR/YASMtkaaLg5RtfwY59RbD7kPFiRYwZbrfsOQljQubDY116KxLyRzv3hqDQudBguNw+HJF3tBL6DQlUdL6rC76p8rWlFZ6lqnXHxo2PV100EhJholjiJlXXdpY4evrnYhrokvJzRt8XE380BJjXX80yvSOCY6H7m2PdXviZGZAagL05DZApGeeX1mPiv8kAcBJ7ucs42wBkFJ19Tqc33Bd/4ba+FosYvjZtAAweawAYO7mJgvnF1fDZ3hNmW/3zU3bCM68MUSzcbw/TwpGSqnbhF4ch3rr7F9iyOwue++NQxdczJbauup9XWmHMeS+3IAyFDbpOj0Do+yvhUG6VrPCzIZygKNvH+V0pfS8Tbx5bqQFgdZTSLRkAOeXmtM/ZBgBvI19vOKz0YTB3nNgA7Mtp+GqfrqG/HKb8Es8wAHkPwmRMMcGJgvWnr0B1wwXYnFZkVvhXb8yHPoO0ioW62+vDYf3W/YAiLxZ9udcXrnwB85ashU7P9lN8fVcVfFPl+t2zb0HvwSHgP3G+qlb7lJgVHWLHKWzQuSZAE5lkNn0vTuKMmPuRqu+9v980eKan+47zmzMKZADkVMhF9rmCAcjMzPy3/BL1S/SiAUjPbLh3IK8pyRxee4QgikXY0UMA+Hniz5e+Fq+jLTZJ+Hrb/ioICk+Gx7u+pUicH+/aF2IWrICLVx8m9ZATfbl9VfXnhKECUyLqCft5pRWWyx5HYYOONQIYrpe8Jh3Kqy/JtvrLKtQv0zt43CyXTN9rTtCtfY8MgDk1cvJ7rmAAEMGRkuYYqXBZ9XeJ4f7+vAY9LjpkCalO38w9B4G4rI42APjZefpmkzNpi06cl239Y3f/c38crkj4UZzHhcyGmsYLFlv8cuIv3peVfwL6vDdB8ee6ozHAtMJDJsSoahVS2KBjBV88d2H24g1QUGqQFX5cplftOP/D9L2uncXPWrGXO54MgCVFcuL7rmIAEIGuxHBXLKTKXjf/rCtuPlJwvOYppRjz7ZCESFxWZxgA9vlZhQ0degOkBuCTHaUwbGy0YgF+fcBYOJRTqlr4xSbgxp3vhCGEZ18ZrLgc7mYEeKUVprBBxxmBybOXQ1rGCVnhx3F+fG/izGWqjB2m7+3shvH8cuKuZB8ZAKXK5ITjXMwA1DMhs7gtbv5ZV9KyP//Y2U7WYtPpDb9YvL7e0EFIlZ7jTAPAyphZUP+w/CUtRj0Az7ysbJJflx7vwepPdgOmBxaLN8/XuOwwDin89pk+HmsEOj3XD/oMnQz+E9UJmbCGfKFxshkMG8RwtDFT41WJkrj1642vTU3CZLP784qbYObCdaoYDxw13SPC+pSIvvgYMgDWKpQDj3c7A1BsgMMFzZCR35xpKyZvMABoBLILGwF7BPbnGi+z+WS3AWbF9rEufWBq1CJovcA/3bAp81BR2wr+mhlmy+VuPQDS8gpphcfMUCUipsIGizC/PIUNWs0WeS5ctg3KKs7LtvqPV7JlehdafW1mpIYHznG79L1iAVf7mgyArUrlgPPcyQBkFTZDelbb0pD7c5u22oqHV9gha21Lt67QA8DKtDI1o50ZmwBozgCMGBcOxyub7dbiN2UA2P79WcXwylsjPdoI8EgrbKrFSmGDyntZ5HpUWIu/pvGmMPN/fNgSm4Xfb9I8+OPbGujs4qv1qRV4S+eTAbBVqRxwnrsYAGn+6H25DWttxaPTt3DJO8BEVrp1JQOwfN0ho+5/NAGmDEDQtHg4feaa08SfmYBrt76B5JWbATMLSlvRnvI3SyvsFzLPZoHBFiaGDUrHrHmIF2u9euJWbk4FE37c8jBRfYdPgc49PX+CnyXxx/fJANiqVA44zx0MgHwiiKZkW/Hk65v/JhVtnn+7qwGIilsFOUcbIT2jGC5esT7Mjwk4r63h7DWIjPkAcEjCU4Rfeh+80gpj2GBhWYtRNzaFDRr3BpiKqmDin68/DbMWfaLKkA0cEwXPvurrMVn8lAi8pWPIANiqVA44L6fwzLM6vQEn33VoFdt7LQDp7elKhHI8nLz2YCKenAE4lNsYJz1f6d/5hQb/PBWT/CyZBVcyAHszqxT3AKABYPeWXdAANY0XFSX64SX4pq6jP1EPg/2neqwJQFPAI60wE7iK2qtGRiD3aCNEzVc3gc3dewIwfW9x+VkjLkz4T9a0LdM7arLtEykxrM+T0vdaEnVr3icDoFSZnHjckbLznXXFhqO64ocz5JkB2JPdcHt/XsMkexfPKgOQUx+upjx5xaePM7HjvXUlA5Bd0KzYAMxe+HG7AWBMMAnK5RtfO31YAFcu3LU/H3r28fNYI8ArrbAmomPmOpaq1ttWG5z6/ko4kFMpK/w1TW3j/AHhto/zozF67Z0geLo7dfebMgVkANQolYPPzdE3PZmnNxzO1xu+3Z/bUL879/RgRxXBGgOwN7deo6ZcmTU1v9FxyD7IhFK8dXUD8IeX3pUV0XVbsjsYAHZftaevwZWb3zjVCOBaBtPj1siWXdq17s5/80orLExyK5CsNljrHWGDAeGJkLpNBzgfgrX0xdtDumoIm7NKVXf/2z7h0OXl4dTd332IWQZkANQolReda40BOJjfOEwtmvxiw1QmcDy3rm4AYpM+De31ruYbqUiaMwDIJ7/EAM1nb8PVm47tEWhovgSbd7etZTA9bp3HGwD2vfz+pXfhnZGRqkTKVJibEDaYtFnVtV1xWICFSZZLVldk4o/3HZes7r6HjJ8Nz7/hb1b0TLWGvXE/GQC1SuUl51tjAPYfaejDA0t+iaGRp/jjtVzdAOzWNTyN7EYHxyQ+9+qQe0xwouJWm+wBEDMqLGuFc5fuwvXb39q1RwCzBe7LLIUdBx/OY/AmA8C+Fx5phc2FDU6e9aFHGAGcwHekpFm2xc8jYRJGbLzSfwIJv4UWv9TkkAHgoVRecA1rDMCBgrpuPJAUFDT9Nk9vuCcWOLWv3cUAID/fiTH/Z/j4qCNPPN//vngSoBIG+hPnBCOgZEVAUxP8TO0vPt4AW9KPdZi/4I0GAI3Aw7TCc1WJtVyqW3cPGwyZuRR2HigDnOfAWvpsy2vuQ1v6Xhrnl4q7kr/JAPBQKi+4hjUGIDe3/jFeSHQlLXFKBE/pMe5kABjDCdo5r36wJu0fSu9RfBxOFDx36QsuvQEt567D1rSjHYSfJTHyVgPAegN4pRWOSdjQIWwQs94lrNwF2I3uit370jKNC10spEGuqrvWQfjRABzW1cC02DWq7mXgqBnQ9ZUR1Oq3stUvNgZkAFgtS1uzBKwxACkp8L/MXszKN3V6w0WxqKl57Y4GAHGZ4q+URc3pa3Dh3uUBbgAAIABJREFUyl2bjAD2IhzIOQbbD54yKf5oArzdADAjwCOtsDuHDWJYX+lJ+fS9+hNnhfS+UsNgzd/DA2O8On2vWMDVviYDYKUYeevhpgSoQx6AzHrgzehQScPTOk6rBHqrAWBGobHlJnxuhRE4Wd0KW9PLzAo/iv/m9HIYNCpK0STAzt0HQuziNdCjj6+i45mwutv2hTf8AHPNWyNu0mPdKWwwYu5HkFVQJ9viP1V/TfUyvX4hbWF93rRan1qBt3Q+GQDeauWh11NqANIyG+7bA0Fu6ZmlTMTUbL3dACA7nChoOH8brprJIXDhyhewfR9299eaFf8dh2qEln/n7u9ZFHO2kFHL+RtCT8T1O98KKxo+3V0+9NHdBF+uvLzSCqO4Zrto2KAmsmNuA+k4f/D0D1QZob7DpkCXnsOou19Fd7+cGSADYA+18sBrKjUA6VkNP9vr9vP0hjtqxB/PJQPwcCllnCjYdOY63Pzi4ZLCmNTnsK4cPttXYVb4sdU/P2UnvPCGslb8sDFhUFZxWnYI4uzF2zBvyVr4Xde3LJoIOZF1h3080gqzsMFSyep4zgobfDhMcUW21Y9ZDmcsSFUl/IPGz4LnXvMj4ecs/MwMkAGwl1p52HWtMAD37HXrRUXNPeTSIltjCqQGYF9u41VTUQvm1mKw5jNNHSuXCZCFAUoZmuJv6trW7D9RfRGaWq9BXfMl2JTWFtPPJvbJbZd+nAm9BgYrEuuXeo2ALbuzAI2FqagCtr+q/hwEhc5VdF13EH25MvJIK4wT7NZuzoLqxhtGwosL5TgqbBAnKhaUGow+n7X6eaxzQOl7zSfwYQKudksGQFrT0t+yBEwJkHQOwJ6shh9kL8BpZ15xy05rxE16LDMA6VkNP+zXNUSbK5a3GADG6HDBabOt/o+3FsHgUdPh0c69LYr0k936C636S9f+ZFH4mQFg26OlNTDIf4rFz5ATWHfYxyut8JRZyx2+2qBcqCIT/qqG60KGv3HTElS1+nu9p/X6ZXrVCrvS88kAmFMAeq+dgBUG4B/tJ9nhBQD8T52++TsmWtZu84oNP+3PbcxJKy//d0vF8zYDkFlgkDUAn+2thKDwZHi8a19FojwuZDbUN1+0WviZAcAtW1/g5b7+ij7THYRfWkZeaYVnL+7YGucdNmgqWRETf+x9mBi9TJXwD/DD9L00zq9UvNUe98f+ATAvaYuiBGOm6llpAxB7DLF+tVS30vtuRsAKA/BXe99abnHLAKtXDCw2/Jyvb80vKGh5Smn5PNkAyPGTGgBrJvihuL09NBjyi0+pEn6xCcDX3jBRkEda4dFT4mFZ6n6oqDUej88raoSoBbavNsjS9x43kb4Xl+mNjl+vSviHBlBYn1oxt+b8F3qNhJ59xwrzKhYmbyUDoFQQvPk4pQZgb1bDt47gJF4Z0ZQ7bdvf/JNOb9idqT//qLXl8mQD0M6suLm9AhAbgC17K6B775GKWt9dXx4kzOa/+cVfuIq/2Ax4w0RBHmmF5Wbks4x7QVHJVgn19PkfQ85R4wWLWIsfE0yh4VCzTO9ISt/r0MmNmDTpjXdxdcSH8wvIAFirCl56vFIDsC+n8a4jEOWXGO63i5j+4cz29n3FBjh8pAkO5rfYvFSyVxgAEbu0zIchf0vXZVkUfxwSiFmwwqq8AmJRt+W1p08U5JVWWAgbLDQWb+wdWLXhEIyZGm/WCATPSIGte4pl0/eyZXonTFO3TG/foVNonF8kxGJR5v26c4+h8PqAAOjSo2O6ZHsYgH25DWsdoQH0GQ4koNQA7M1puOGIYrULvUjA2L6sgtOQltkgjGcfzDOMtbU83mYANqcfb58DYMkA+E6IhIqaFru1+C2ZA0+fKMgrrbBcVr6i460QK7PaIBoDbNWfqrsqO7sfx/lx4qE0WZE1f7el7/UxaoXyFjy63sMW/ku9R0GXHqbnVfA0AOlZDf88lNs4zdb6ls5zYQJKDcC+nIZL9r6NbU1N/y8Te/EWJ6SkPxB+Fr5GBkCmd0TGNCHH9duLFRmARSmfgj0WGbIk+tL3caLgZ2nZHp1RkEdaYSVhg2gU9OXnZIX/6DF5w2CN8GNGxBd6jybhd1Cr/7k/+sLzr/la5B23+NOvxXWota+xzk3LrL+/P6/xYGYm/NredT9d30kElBqAvTmNrfYuYkFBzVNyD2ru0eZ2AeNhAPILW8bLfQ6vfa6SB4Ddj1ID8Mk2HezNKoeCkhqn9QCIzYA3TBTEtMLDNO+ran1jjoC9mSeNRB5zCeQVNxntY+P8J2suQ8ravYATDK0Re/GxLH0vtcoftsrtyeKZnsOge69RFoWflSFgyqJ9+fqWHFYHWLm9n1tsqMrMrO9q7zqfru9kArqjTRF5+pY/Sx8QaRjI/tzGensXtbCk9WVpOfBv3gYA7yO/xHBZ7rN47HNnA8Duf8/hMjjz+W2XMAKePlEQ0wr/8Z1A8A1Rt+ywXNggE33c1jbdFOYABEZaN2lQLPz4uu+wULPdz0yEaKveHHTuPgR6vDna6nkVY7Tzs7Geyys2/Iv9phVsf87XG3QFx5VHVNlbE+j6DiJwpKTZV1fSciZf3zYJT2wA9mY3fJ2R2zjG3kXBMEC5h9QeBuDIiZae7F7lPlPNPlczAGkZNe09KObmAGAPgPi+j5QawHDuDty4/Z1LGAFPnyjII60wtuqT16QDzuYXi3+GsEzvaptb/Cj8g8dFU/peB3X1o3l64Y2RNi2L/I5P6HfTopcPwPpaV2xQtNx4TnFzdY6+6Ul71/F0fRcnkHO8uUt+sSFfp2/+AYX/YG7TVEcVOafM4C8WIPbaHgYA76ntPpWPpbPyWNq6mgHYn9PYbgCWr881GQWwNa3IyACw+8Sx4gtX/gT2DAcUd/2ben3jznew93Ap9BmkLF2xNEGPu/zNI61wUGSy0NrH7y4uebMq4cf0vT37jgNsjVKr3v4Mnn1lBHR7w99q1q/2D7gXELpwtbi+zituNtsDkFl4GtIz6+FAXlOS+Dx6TQQcTiCv9PQkJjrirb0MQHl5+b/n61t+EH8Wj9eubADSDtf9681Bwccf69Ix7e/B3BpZA8CY4GI1l298oyj/vykRt3V/YVkdbE4vFYzMm4NCTJoYdxF5S+VkaYV9gmNVibe0+97av3sPnghPy4SZkRHgbwS69BwK3ftYP6HyuVd9YLR27smYmE//j7TS1ukN/81+v+JtdmEzpGe1RVThvCoyAFJy9LfDCeQU/9/27j0+ivrQ+zh62j59evpqz6OtWi03QSCAEZQgAhWQq6BclIgCipGLEcVK1R5FraGix/Oc1qqtFhAhEEjIhmRnCdmdBTTeQHLb2SiIyk1QK621PU+Peh4V+T3PLzgw2exlZjK7O5v9/JHX7E7m+p7L77szv/mNttC4k+qfkxUA5Aoqfu0efT5Odd0cAOQjPXK98y6/7vLel1z5vrEg+sPz1XEDgO5Tu/Ndse+9v6TktsCuxrfFMxEvMsqGAKBvl5PNCs+8J6VBYPjEeaJb/3GWf4USDGwEg74nCv4u/do+zx/PU7YDMGbqbQfm3VaUG+tkrQRaGkxrdVx7/W2bBicAxBKkf8oENqvhf9ULGWM3mQFArpwS1D40zq+9nzMhAOgbdcjYWYVd+436XBY4xjoAXvVUS4KxPHaFDooDhz9OShB45+BR8fyGgFhVeqr+gv4ESDYFAD0IyGaFh181L+khYOz0O8UFF19FwZ+i2x09B04U5+cmfqwvMgjkjZr16azCpfP14zhW1xvQvo48fgkAsbTon1YBRdWWRe6s8nuyA4BvqzYs2nzt9sukACA3+LnnXvK9vJHXrX9qpa/VLwW5/l5Dk8LRPJyuKCjbIShXasWK9S+frLegF/x6NxsDgB4EZLPCY669w/kgoDff29fGL9gUFZaRhWAmf5eP9fW28Fifvq45g6ccmzbr7ufz8z2mns2PdvwSANJazDHzWAK+rc1PRitkkh0A5PIoqvZytHnb6ZdpAUDfHpu2NMasMBTtRGK02bK9Wex+50/i0Puf2L4i8MIrmnhmjRqz4CcAXNJS98GpZoX1+gAnmu+N3aqcXvjQbX846tJXf6zP2rS69R8rJly7KLzgrkdN19T3+/f9D+Mxqn8mAOhnPLquEvAGwqv0ndTYTUUA8Hh2nqGomnzBUJtfwVb7ZWoAUALaZ4nWVT4eGm8YWVHwHYsVBbXdB8WKtX7x/MZdCQv/J1aootfFVyasBHj+hVeI/Dl3iTO75iUcVv91nWnd9jYrPGJKoa3LzwQBa4W37tV70FWiq416FSMmzj1asOixEVZP1t5a7V+iHasEAKuSDJ8SgapgqCzaDpuKACBX0Lc1/Jto87faryMHALMWZioK7n/vL6K4TBWrNryWsOD//eoXxbU33S9kpbh4BfWPuw8W8xc9LN7Ye7jlSoR8r8GU62+PO0686WXC/6w2Kywf68sZfOK1sXrhRNdeoW7G7UTzvRMt16sYMDz/i5nzH3rQ7snXtzV0brTjlQBgV5TxkirgDYY2R9thUxUA5Mopauiv0ZbBSr9sCQDtqSjoC+wQz6479ZIi/fJ+ZHf5ulfE7MJHxE8uGJ6wEL/ymvmi9rXoLzKq8L0oLr0iP+E0MqHAj7WMZpoVHvCz1q+NNVOAMYy9cNCt3ziRk2e++V7d+YKBk45fM/veqpuLir7bnhOu19/YI9p5iwDQHlXGTZqAT9W2RdthUxkAfIHQ5GjLYKVfZAAo2VS/Z01tbdSDOda7GKzML9GwxoaA9McAo21EM7cAos0rUf0AY0XB15veFs+s9if8xb+ydIdYsPi3onPOyISF9kVDJ4vn1/sS1j2QFQyfXV0hLhg4LuE0YxWybu8fq1nhoRPnClnxTC9k6Nor1M24nWy+1+JjffLtfmOnLdw9Y/5jvaIdn1b7VcVoWp0AYFWS4VMioKjajmgFTCoDgFxRr6pp0ZbDbD89AKzd1PBZaWXdvHh4HSEA6C6JgoD60m5RXFEXt/B/rmynmL/4t6Jb/9EJC+lzew0TS379lDhwxFqbBO8ePCqW/vty8dM+ia8quL3Aj7V8erPCV0y7neZ7U/iUQkvzvbnWg9awcXP+ftOtRdPjnSus/m9zQMvTj01jlwBgVZLhUyLgDYSajDuq/jnVAUC+ldCrhts8P6svT6LuppqmL0uVprIVKxq/nQiuIwUA3SVWRcGa7W/ELPxlBcCfP/BHUxX8zugySMy59T4R3n0w4a/+eC0Pht440FJf4EfdOm5Fwc59ruBXfwoCwPm540UvG8339r906rEZBUtWJDpP2Pm/Lxi6XD8mjV0CgB1Nxkm6gKKGdxt3VP1zqgOAXFGvP1Ssz99K16dq9WUBrZtZrI4YAGJ5xQoA9y9bKy4cMjXhL375a3f4+JliS3BHuwr+yFDQkSsK/jSHAGDmsr3dYWTrfX3zpgj5eJ+Vacj2/q+esXj7ggWP/9DsucLqcEogPD7asUgAsCrJ8CkR8AZC+6PtsOkIAL6gNjbassTq51NDH21RQ2OsQnX0AGCsKBgtAMxb/BtTBX+vi8e13L8/8qe/O1r4G8NAR6woSACwVjBbKcT7DLpadO1v7XK/bL531FUL3p+3aNkQq+cKq8MrgfC0aOcrAoBVSYZPiYCiho5E22HdGwBConxzo1ACoTuLisTpdpA6egDQt6esH1BZc+qthHpt/2k33Rc3AJzT8zJx9wP/Id7e/1HSCn5jCOhoFQUJAM4HgBPN94639ItfBotBo2Z+OnveQwvsnCfsjKOo2kz9+DN2CQB2NBkn6QKKGjpq3FH1z+4LACHhqW4Sazx1Yk15/dftgcmWACC3ZWnVjjZ1AOIFgGkz7xC7mt5OScFvDAHyc0epKEgAcC4AyNb4+gyy/p6EnEFTvp5+030lI0fWfqs95wqr43oDobn6OdTYJQBYlWT4lAgowfAnxh1V/+ymAFDl11ren63/giUAxG8ZUN+Gslu8sdZUADir+xCxstibloI/Mgg0vbFfFCx8IGNbFCQAtD8AdMkZI/oOnixk18otgq79xrU031tYuOy8lJxAI2biU8N3GI8//TMBIAKKr+4QUALaP/Sd1Nh1UwDY6GtsVYgRAJwPAOf2Gi6q/E1izQb/yRb9IgvmVH/P1IqCBID2BQD5WJ8syK0U/HLYYeMLPpmz6NFJ6Tyz+gLavcbzqP6ZAJDOrcK8Ywooqlar76TGbkcOAN5AqNK4rsn4nOyGgMwuc3G5uSsAMgDo0yz3vS7Kql4Q733wV1dcEci0ioIEAHsBoOeACaLnAOuv6R0wLP+LGQVLHoh5kkvhPxQ19Cv9ODJ2CQAp3AjMypqANxi6UlFDHxl32MgAsK6i/uMNNaGu1qZsbehYTwE4fQXA49nzfUXV/q9xfZ3+7JYAUOVvffVE3kaJVgfAGAB0i22v7BHvHvqzK0JAJlUUJABYCwBd+44ROXmTLf/i7zlg4vEpM+7avGBB0fesnWmSN7QSCP+bfvwYuwSA5JkzZYcEvGrTL33B0H/LHVcPAMWe+mMbvA1JaTQjcrFTFQDkfCsD2kLjAer0Z7cEAEUNtbp9YiUA6Cav1u8X+w9ba/kvGbcLDhz+i1hRXB33CYZYrfSlsj8BwHwAaLnPb7H5Xvn8/5iptx0ouPuxvpHnkHR/V4Lhp/TjxtglAKR7yzB/UwK1tbXf9QbDJZv8of8uqawPl25/82xTIzowUCoDgFxcRQ3vNR6kTn52cwC4bu6DbQrR83PHnLwFEMuhIXxIHDz8cVquCLS8yGjtiRcZpbIwtzMvAkDiANBr4CTRPXeC5V/9Q8fO+c8b71ia78DpJimTUFRtZbTjhwCQFG4mmiwBIcQ/JWvasaab6gBQWRPqqgQ0280PRzvQ9X5uDgCryl5tmJR/x/tndh10Mgic1/tnJwJAIBQ3CGze2ize2PuhOHgkNUFgR8Nb4pnVNa2uYtgplFM5DgEgdgDonjte9L7Y+n3+foOnHrv2pl/+vlOnTqfFOn+4ob83qJXo5wBjlwDghq3DMrhaINUBQGIoQe0Z44Hq1Gc3B4D1VQ1bhBCn3VP07ON5I647JgvHaHUA4ln4X3xT7N3/Z3H4w0+SckVgz7vvi5UlNWJ12a5Whb+8hZHKwtzOvAgAbQOAbI3PbvO9k29Y/OLcuUVnuPrk9c3C+VStPNpxQwDIhK3HMqZVIB0BQK6womofRzto29PP7QFA39Ab/Y09Fj/w5O5+l14d95d/LAunKwoeev8TsaFyu1hR8nKbgl9vB8JOoZzKcQgArQOAneZ75WN9w68s+ODm24qS3nyvfiw40d2y5Y3/VaVqz0VeWYwWAEorG+5yYp5MA4EOIZCuAFDlrx/hVc0/Wx+rMDT2z5QAIHcceTVgQ8UrDxmX3+rnV1oqCrbvtoB/e514tnhrzIKfANC6YLX6nHyqh+9x0ZW2HusbNGLmZ7NuLVqYySe16mBjH5966k2rxgCwtqLhiw1K05JMXj+WHQHHBdIVAOSKKKq2zWqhF2/4TAoAcv3LgvWd462P2f+1VBS0WD9ANj28fG0gYcEvA8BvlwdM3QLoOWCsGDBsiqlhnb46kO1XAGTzvb1tNN/b6+JJx6+ZfW9Vfn7Rdxw/uaRpglUBLV9RQ/9HBoA15XWipKrhpfX+fT9I0+IwWwTcK5DOAFBd3fg9nxpueQTSbGEXb7hsDQDSRFYUbN7zgTh4JH5DQu8eOiqe3xAQq8peT1j4r1j/mphd+Ig4u+fQuIX6mV3zxJxb7xNvvn1EHHr/r+J3f1wveuaOiTsOAcCpKwvyPv9ky6/p7dpvrBh/zR1NBQuXdXbv2cn+kjU2Nn67wh96ukxpvNT+VBgTgQ4ukM4AIGl9wfAt8Qp1K//L5gCgO8WqKChfL1yu1IrlJS8lLPjlr/57ilaJHrnjEhbiQ0fPEP5tr7eplPjOgY/Ekl8/Jc7ucVnCaTgRBrLxCkBL870X2mu+t+D2pVM6+KmN1UMAgUQC6Q4AcvmcahvAGADWext2xVp3JaB9pheYyem2bQhIPgUQuTxO3QKItg7GioK1O5rFs6tVUwX/I7/bJC65fEbCQrtLzgjx+JOrxXsf/K1N4W9skKghvE/MX/Rw0l8ylE0BoMdFE0TPgdYf67to6PQvr79lycOR+yHfEUAgSwXcEABaCkIH2gaQAaDYU398g9Lwh3ibMxsCgB4KXqnbZ6rgf2rVdjFh+p3ijC55CQv/GTf/QjTvORS34DeGAPlZfbFOjJ1SkHDadq8GZEMA6Np3rK3me2XFwMk3/OKlRYue5j54vBMD/0Mg2wTcEACkuU/VntULLbvdUqXx041VDQkvbWZTAAi+9FbcAPBc2U5RsOhx8ZMLhicsnGUFvwrlBUsFf2QQkC8ZGjTimoTzshoEOnoAkO32y/v2Vp4q0JvvLbzz0f7Zdl5jfRFAwISAWwKAXFRFDf3VZuH/lU8Nl3u2Nf7QxCp3IgDUtYSC+5etFTmDrkpYGJ/T87KW+/kHjjjzboJkVBTsqAGg58CJokfueEsFvwwJg0fO+scNc381x8zxwDAIIJClAm4KAPJ9CBYDwFeyFTCPp/b7VjZftgeAJ5arYti4mxMW/PJX+LSZd4i60Nvt+tUfeRVA/+5kRcGOFgC6XzhO9Lp4kuWCv9+lU4/NKFiyoqio6HQrxwTDIoBAFgpkYgCoqgkd86nakx7Pzv9pZ5NlUwDYtKWhzS2AgcPzExb+vS8eL55f70tKwa8HAL3rREXBjhIAWprvHWz9sT7Z3v/E/J+/dmNh0Vl2jgnGQQCBLBTIpABQsSUk1lbUiXWbGg63Z1NlUwBYv2lnmwCQe9m0mAHgx90vFYvufVTIX+d6AZ2qbnsqCnaEANDSfG9fa/f55eX+ERPnHp17++OXt+eYYFwEEMhCgUwIABU1IVHsOXHfWj6jTgAw34Ty8rVtm/mNFQAGDJsqXt7ZnPKCPzJgrCmtttyiYCYHAPvN917/+U23/mpRFp62WGUEEHBCIBMCQHFF68vYBADzAeDxpzymrwBMnfULUbzxBbH15ca0hwCrFQUzMQB06zdW5FxyteX7/L0Gdrzme504lzENBBCwKLAp+EYfRQ0di6x8t9HX2KrgWFNe/7XFSVsePFYlQMcDgP2nDUy+vS/9DQHp29NqAJDjeQMhUbwxKN7YeyTtQcBsRcFMCgBdckaLvi33+cdYKvxlOwBjpxa+MWPBgz0sH1yMgAACCEQTqPTv+qlPDe/VCw3ZjQwA6yrrDkUb18l+qQoAvkDoeuO6Ov/ZPQHguZLtrYKcvIUS6xaAvAJgtNiyvVk0Nh9M+H6ByEv4yfieqKJgpgQA2Xxv9wutP9Y3dNycT2bfVjTZyeONaSGAAAInBbxB7X5FDX9lDADFnvovN3gbUtJ8aKoCgFxhJaCFjIWds5/dEwAqa9oui9kAoJtse+Ut0fzW4bRfDZAvMlr8wBNRKzC6PQCcf+F4cYGNx/ouGpr/5fVzlzxx8iDlAwIIIJAsgerqnecpqvZW+eamY/I1ml5v7b8ka16R001lAAgGm89SVK0l7OgFnXPdtoVuqt8FoK+LlQCw+MGnWl0B0Kehd1+t25eWICBfZLSp+hWxfN2L4v5H12VUAOjab4y95ntzJ9B8b+QJgu8IIJAaAU/NnnNSM6dTc0llAJBz9flDv9YLN2e77g4A8+/6t10/6Tn068jmdmcveChuAJBGm7dqounN98S7B4+m5IpA7Wth8cyawMnbGBkTAPqeKPi79LN2n1+2AzB6SuH+ebcV5Z46MviEAAIIdHCBVAcAyamo2p+cLfxlDX13B4BSX/3sS4bld8kbMWOH8eU/xjoAsiJgPBf/9mYRfuuIeO+DT5ISBMK7D4rlxTXi+Y2nHv+U9RcyIQDI5nvPz7X+tr68UbM+nVW4dH4HP8xZPQQQQKCtQDoCgG9beKBP1Y7HK+ys/8/9AUDXHz5+9oScvElH5dUAYwAwu84v7Hhb7H7nA8dCgHz8r8SzVawsffXkr35Z8Ot/bg4A8rG+3jYe68vJm/L19JvuKxk5svZb+nahiwACCGSVQDoCgARWglqV2QLP3HCZEwC+2cFOGzpu9sPX33J/m8dBza2vJnaFDrb7tsCWbbvEs8Vtn1rQC3+3XgGQb9078VjfaGuP9fUfK8ZPu71+3s8fPTurDnRWFgEEEIgUSFcAKCoS31JU7b/MFnaJh8u4ANCyKcqr68sSr1vsRog2b20W4T3vi/2Hrb01cGfjXvHHYvXkr3xjgR/5efFDK11VCbD3oKtE1/7jLBX8evO9BYseGxF5DPAdAQQQyEqBdAUAiV21VctvT+HXetzMDACx/FuvW+wAoA8XePFNsXffR+Lwh3+Le2vgrX0fiOdK/OK5srbvK4gs+JeXvCJmzP2V+HH3Ia4IACea751oueAfMDz/i5nzH3owKw9wVhoBBBCIJRCrAHK6JcBY83eubYDsDgB6EKjd8a5499Cf24QAGQzKlVqxvOTlhL/6n9+4Syz85e9Fl76johb8+pMMqWoHoFu/cSInz3rzvRd803zvzUVF3421/9EfAQQQyFqBdAeA4I79Z/kcaRugdQAo9tQfL/M2tvnVVxas76wXlsnqRmsHQD4FEG0ni+Xf3mVrCB8SBw5/3BIEAi/Ui2eLgwkLfnkFYOlvPGLAzxK/uliGgGQHgJPN91p8rK+l+d5pC3fPmP9Yr2jm9EMAAQQQ6NSpU6wCKFVXAORG8Aa0h9tb4BkfAyyprD9aublpSLQNnC0BQHrK+gE7mw6aKvh/tzIoRk+5TZzRZVDcX/36r/9kB4CW5ntzrb+md9i4OX+/6dai6dG2Pf0QQAABBAwCbggAcnHa3zaAfH1x/ZcblKYlhtVr8zGbAoAMATUv7I4bAFaW7hAFix4X51ww1HTBr4eAZFwBOD93vOg10Pp9/v6XTj02o2DJijYbnB4IIIC7ioTVAAAOk0lEQVQAAtEF3BIAKgNani9ou22AY141XL6iuvF70dfyVF8CwKnn++8pWiV6XDTOcsGfjAAgW+/rmzdFyMf7ZI19s3+yvf+rZyzeftddRSlrPvvU3sQnBBBAIIMF3BIAJKGiho5YvBVwzBds9mzb1vhDs5uAAFAnHv+9TwwZc6Ptgt/pANBn0NWia39rl/tl870jJ81/b9bCX+eZ3fYMhwACCCBgEHBVAPBrh00GgOO+YLPf49l5hmFVTH3MtgBQWdPY6hbAyg2vijO7mr/Prxf20brtvQVwovle66/pzRs167Obby0qNLXBGQgBBBBAILpAJgWA/19ZUJQqjWK9t6E0+tok7pttAWBN+WutAsCza19q9y9/PQzYDQDd+o8VfQZdZfoyv347IGcQzfcm3sMZAgEEEDApkCkBYKOvUaz5pn369d6GEpOr12awbAsAf1zbupnfdAaALjljTjTfm2PtbX1d+40TE65dFC4sXHZemw1KDwQQQAABewKZEACqAq2f8ScAJG4ZUL+VsuyJja64AiAf65MFuf5r3mx32PiCT+YsenSSvb2bsRBAAAEEYgp4g+FH9MLC2E1lOwD6wikx6gA4GQCqqxt/ZFzPZHx2Q0NA+nqlOwD0HDBB9Bxg/TW9A4blf3Hd3PvbNOSk7yt0EUAAAQQcEKiqCRUqqvaFXmjIbmQAWF/VsN2BWcWdRCoCgFwAr6q9alxXpz+7KQA8/nRFWq4AdO07RuTkTbb8i7/ngInHp9ywePON9/zHP8fdWfgnAggggIAzArJGvS8Yel0vDPUAsLai/ov13oZfOjOX+FNJVQDw+/f9IDLw6OvtRNdNAaBMqU95AGh5Ta/F5nvl8/9jpt52oODux/rG30v4LwIIIIBAUgSqVG2+LBzXbWo4XlLV8JLHs+f7SZlRlImmKgDIWXv92l1OFPbRpuGmAOCpbv0YoJOVAM/tPaLVL/xeAyeJ7rkTWvUzc69/6Ng5/3njHUvzo+wS9EIAAQQQSKWAvE++aXO4XyrnKeeVygAg5+cNagejFeDt7efmALCqbKfo1nfkP/RH+drT1QNA99zxovfF1u/z9xs89di1N/7rHzp16nRaqvc15ocAAggg4CKBVAeAmppwL0UNf93eAj9yfDcHgGJP3fFOfft+Z+Dl039zdo/LjrUnAHTOGWm7+d6rZvz89XlLnjzbRbsfi4IAAgggkC6BVAcAuZ6KGlobWYC397vrA8A3G/jcHpd3zh0y+TUrbwA0Bobu/a091ieb7x07beEH8xYti/qmxnTtd8wXAQQQQCDNAukIAEKI0xVV+1t7C33j+JkSAPTNPXD4dWMuGDj+qLFwN/O524Xm2+8fNOKGz29csPR2fZ50EUAAAQQQOCmQjgAgZ+5TmycYC/D2fs60APDNBjh96LjZD3fuc/mXZgp/OYyZANDr4knHr5l9b1V+ftF3Tm5oPiCAAAIIIGAUSFcAkMvgZNsAGRoAWjbFeX1Gnzno8vytP+qWl/CdAfECgN58b8HCZZ2N25jPCCCAAAIItBFIZwBwsm2ATA4A+kb52fi5g3OHTn0v3tWAWAFANt9bcPvSKfq06CKAAAIIIBBXIJ0BQC6YVw3d3d7L/3L8yACwxlN3vNQfGhFt5WO9i8GJ5ZDTiGwHoOUpgGgLEqPfuGsX3Hv+hWO+iBYEIgPARUOnfznzlgeLYkyK3ggggAACCEQXSHcAkEvlRNsAxgBQUtlwYGNVQ//oayznFy5xqrCPNp32BgC53Lm5N/7zqEm3lJ/Tc+hxYxDQA0CPi64Uk2/4xUuLFj39g1jrSX8EEEAAAQRiCrghADjRNoAMAGsr6j8v94UKY67sN//IhACgr8PVN9zeb8gVN+zVHxscMOzaluZ7C+98NGbA0celiwACCCCAQEwBNwQAuXBef6g42q9pM/28gfDX3kBoncfjMVXrPZMCgL7hpsy6e2FO3lWfzyi4/9/1fnQRQAABBBCwLeCWACDbBvCp2nEzBX7rYUI7q1945zwrAJkYAOT6ycf6CguLzrKyrgyLAAIIIIBAVAG3BAC5cEpAM9VEsDcQEooa+nDL9sZRUVcqQc9MDQAJVot/I4AAAgggYF4gowJAICQ2+hrFGk+dWLu5sYv5tWw9JAGgtQffEEAAAQSyUCBTAkC5r/Urdlcr9bYbuyEAZOGOziojgAACCLQWyIQAsKk6JFaX17X+IwC03pB8QwABBBBAwIqAomp7Wleq04T8XhVoXeiu9zaUWJmunWFj1QFwPAAEwquirbNT/ZxoB8COH+MggAACCCBgWmDFisZvK6q2JrLwjQwApVUN/9v0RG0OGLkMeoHsdADw+0M/VlTtK336TncJADZ3AEZDAAEEEEi9gG/XwbO9Ae0lr9r6CkCxp/54aWXd06lYolQFALku3q2hh5wu+PXpEQBSsbcwDwQQQAABRwW8gdBor6q9L68ArN1U9/l6b/1oR2cQZ2KpDAByMXyB8Ad6oe1klwAQZyPzLwQQQAABdwtU1jTdvN6/L6XtzKc8APjDAxVbjQ+duEoSKzQQANy9b7N0CCCAAAIuE0h1AJCrrwRDFbEKcrv9CQAu27FYHAQQQAABdwukIwAUFYlveYPh/7Jb2EcbjwDg7v2MpUMAAQQQcJlAOgKAJFD8DdOjFeR2+xEAXLZjsTgIIIAAAu4WSFcAkCreYKjRboEfOR4BwN37GUuHAAIIIOAygXQGgOrqxh8pasiRtgEIAC7bsVgcBBBAAAF3C6QzAEgZp9oGIAC4ez9j6RBAAAEEXCaQ7gAgObxq6MPIS/pWv7cJABX1X7mMmsVBAAEEEEDAPQJuCACemvoBvna2DWAMACWVDQc2VoV7uUeZJUEAAQQQQMBlAm4IAJLEGwhVWv3VbxxeBoB1mxo+LVGaClxGzOIggAACCCDgPgG3BAD5giTbbQMEtK8rA9oaj0f8k/uEWSIEEEAAAQRcKOCWACBpvMHwI8Zf9SY/v1gVbD7LhbQsEgIIIIAAAu4VcFMA8G0N322m0PcGNKEEQkeqAuHh7pVlyRBAAAEEEHCxQCYFAFnwlymNYl1Fw+dCiNNczMqiIYAAAggg4G6BTAgAsuAv39wo1pTXidXldaK4ov4zd6uydAgggAACCLhcIBMCQKnS0FLwy8KfAODyHYrFQwABBBDIDAFF1Y5Fu+++qTrUqtBtKXyV+s7JXKtYdQAIAMlUZ9oIIIAAAlkpsNnfPEQJaO9FhoA2AcBTJ0q3v3l2MpEIAMnUZdoIIIAAAghEEahSwwU+NfwPPQgYA8DayvpPypWGiVFGc7QXAcBRTiaGAAIIIICAOQEhxOlKQHtCUcNfyQBQ7Kk7tsHbsMLc2O0figDQfkOmgAACCCCAgG0B366DZ1dUN/3B49l5hu2J2BiRAGADjVEQQAABBBDIdAECQKZvQZYfAQQQQAABGwIEABtojIIAAggggECmCxAAMn0LsvwIIIAAAgjYECAA2EBjFAQQQAABBDJdgACQ6VuQ5UcAAQQQQMCGAAHABhqjIIAAAgggkOkCBIBM34IsPwIIIIAAAjYECAA20BgFAQQQQACBTBcgAGT6FmT5EUAAAQQQsCFAALCBxigIIIAAAghkugABINO3IMuPAAIIIICADQECgA00RkEAAQQQQCDTBQgAmb4FWX4EEEAAAQRsCBAAbKAxCgIIIIAAApkuQADI9C3I8iOAAAIIIGBDgABgA41REEAAAQQQyHSB2tra7ypqWFVUTRj/SpUGsbq87uTf2or6TzN9XVl+BBBAAAEEEIgQ2KxqUxRV+1QPAcYAUFJZf7REqR8aMQpfEUAAAQQQQKAjCMirAb5gs1+GABkAij31X5Z5Gx/sCOvGOiCAAAIIIIBAAgF5NaBsc8NGj2fP9xMMyr8RQAABBBBAAAEEEEAAAQQQQAABBBBAAAEEEEAAAQQQQAABBBBAAAEEEEAAAQQQQAABBBBAAAEEEEAAAQQQQAABBBBAAAEEEEAAAQQQQAABBBBAAAEEEEAAAQQQQAABBBBAAAEEEEAAAQQQQAABBBBAAAEEEEAAAQQQQAABBBBAAAEEEEAAAQQQQAABBBBAAAEEEEAAAQQQQAABBBBAAAEEEEAAAQQQQAABBBBAAAEEEEAAAQQQQAABBBBAAAEEEEAAAQQQQAABBBBAAAEEEEAAAQQQQAABBBBAAAEEEEAAAQQQQAABBBBAAAEEEEAAAQQQQAABBBBAAAEEEEAAAQQQQAABBBBAAAEEEEAAAQQQQAABBBBAAAEEEEAAAQQQQAABBBBAAAEEEEAAAQQQQAABBBBAAAEEEEAAAQQQQAABBBBAAAEEEEAAAQQQQAABBBBAAAEEEEAAAQQQQAABBBBAAAEEEEAAAQQQQAABBBBAAAEEEEAAAQQQQAABBBBAAAEEEEAAAQQQQAABBBBAAAEEEEAAAQQQQAABBBBAAAEEEEAAAQQQQAABBBBAAAEEEEAAAQQQQAABBBBAAAEEEEAAAQQQQAABBBBAAAEEEEAAAQQQQAABBBBAAAEEEEAAAQQQQAABBBBAAAEEEEAAAQQQQAABBBBAAAEEEEAAAQQQQAABBBBAAAEEEEAAAQQQQAABBBBAAAEEEEAAAQQQQAABBBBAAAEEEEAAAQQQQAABBBBAAAEEEEAAAQQQQAABBBBAAAEEEEAAAQQQQAABBBBAAAEEEEAAAQQQQAABBBBAAAEEEEAAAQQQQAABBBBAAAEEEEAAAQQQQAABBBBAAAEEEEAAAQQQQAABBBBAAAEEEEAAAQQQQAABBBBAAAEEEEAAAQQQQAABBBBAAAEEEEAAAQQQQAABBBBAAAEEEEAAAQQQQAABBBBAAAEEEEAAAQQQQAABBBBAAAEEEEAAAQQQQAABBBBAAAEEEEAAAQQQQAABBBBAAAEEEEAAAQQQQAABBBBAAAEEEEAAAQQQQAABBBBAAAEEEEAAAQQQQAABBBBAAAEEEEivwP8DbP8ToGpuwCYAAAAASUVORK5CYII=;" vertex="1" parent="1">
          <mxGeometry x="170" y="360" width="150" height="150" as="geometry" />
        </mxCell>
      </root>
    </mxGraphModel>
  </diagram>
</mxfile>
